<svg xmlns="http://www.w3.org/2000/svg" viewBox="0 0 942.65 942.63"><defs><style>.cls-1,.cls-2,.cls-3,.cls-5,.cls-9{fill:none;}.cls-1{stroke:#e1dadc;}.cls-1,.cls-2,.cls-3,.cls-5{stroke-miterlimit:10;}.cls-1,.cls-5{stroke-width:2px;}.cls-2{stroke:#f29131;}.cls-2,.cls-3{stroke-width:4px;}.cls-3{stroke:#6ac6f1;}.cls-4{fill:#802537;}.cls-5{stroke:#fff;opacity:0.2;}.cls-6{fill:#a34992;}.cls-7{fill:#27b4b8;}.cls-8{fill:#b4a4a9;}</style></defs><g id="Layer_2" data-name="Layer 2"><g id="Layer_1-2" data-name="Layer 1"><line class="cls-1" x1="536.39" y1="471.34" x2="729.92" y2="471.34"/><line class="cls-1" x1="729.92" y1="471.34" x2="923.46" y2="471.34"/><line class="cls-2" x1="536.39" y1="471.34" x2="716.91" y2="471.34"/><line class="cls-3" x1="729.92" y1="471.34" x2="923.46" y2="471.34"/><circle class="cls-4" cx="934.84" cy="471.34" r="7.81"/><line class="cls-1" x1="536.3" y1="474.72" x2="729.57" y2="484.85"/><line class="cls-1" x1="729.57" y1="484.85" x2="922.84" y2="494.98"/><line class="cls-2" x1="536.3" y1="474.72" x2="724.69" y2="484.59"/><line class="cls-3" x1="729.57" y1="484.85" x2="921.21" y2="494.89"/><circle class="cls-4" cx="934.2" cy="495.57" r="7.81"/><line class="cls-1" x1="536.03" y1="478.14" x2="728.5" y2="498.37"/><line class="cls-1" x1="728.5" y1="498.37" x2="920.98" y2="518.6"/><line class="cls-2" x1="536.03" y1="478.14" x2="728.5" y2="498.37"/><line class="cls-3" x1="728.5" y1="498.37" x2="917.74" y2="518.26"/><circle class="cls-4" cx="932.3" cy="519.79" r="7.81"/><line class="cls-1" x1="535.58" y1="481.52" x2="726.74" y2="511.79"/><line class="cls-1" x1="726.74" y1="511.79" x2="917.89" y2="542.07"/><line class="cls-2" x1="535.58" y1="481.52" x2="701.04" y2="507.72"/><line class="cls-3" x1="726.74" y1="511.79" x2="913.07" y2="541.3"/><circle class="cls-4" cx="929.13" cy="543.85" r="7.81"/><line class="cls-1" x1="534.96" y1="484.87" x2="724.27" y2="525.1"/><line class="cls-1" x1="724.27" y1="525.1" x2="913.58" y2="565.34"/><line class="cls-2" x1="534.96" y1="484.87" x2="682.91" y2="516.31"/><line class="cls-3" x1="724.27" y1="525.1" x2="907.21" y2="563.99"/><circle class="cls-4" cx="924.71" cy="567.71" r="7.81"/><line class="cls-1" x1="534.17" y1="488.15" x2="721.11" y2="538.24"/><line class="cls-1" x1="721.11" y1="538.24" x2="908.05" y2="588.33"/><line class="cls-2" x1="534.17" y1="488.15" x2="703.83" y2="533.61"/><line class="cls-3" x1="721.11" y1="538.24" x2="900.2" y2="586.23"/><circle class="cls-4" cx="919.05" cy="591.28" r="7.81"/><line class="cls-5" x1="533.2" y1="491.42" x2="717.26" y2="551.22"/><line class="cls-1" x1="717.26" y1="551.22" x2="901.33" y2="611.03"/><line class="cls-2" x1="533.2" y1="491.42" x2="715.72" y2="550.72"/><line class="cls-3" x1="717.26" y1="551.22" x2="892.05" y2="608.01"/><circle class="cls-4" cx="912.15" cy="614.55" r="7.81"/><line class="cls-1" x1="532.06" y1="494.65" x2="712.75" y2="564.01"/><line class="cls-1" x1="712.75" y1="564.01" x2="893.43" y2="633.37"/><line class="cls-2" x1="532.06" y1="494.65" x2="694.53" y2="557.02"/><line class="cls-3" x1="712.75" y1="564.01" x2="882.8" y2="629.29"/><circle class="cls-4" cx="904.05" cy="637.45" r="7.81"/><line class="cls-1" x1="530.76" y1="497.77" x2="707.56" y2="576.49"/><line class="cls-1" x1="707.56" y1="576.49" x2="884.37" y2="655.21"/><line class="cls-2" x1="530.76" y1="497.77" x2="679.34" y2="563.92"/><line class="cls-3" x1="707.56" y1="576.49" x2="872.48" y2="649.92"/><circle class="cls-4" cx="894.77" cy="659.84" r="7.81"/><line class="cls-1" x1="529.29" y1="500.85" x2="701.74" y2="588.71"/><line class="cls-1" x1="701.74" y1="588.71" x2="874.18" y2="676.58"/><line class="cls-2" x1="529.29" y1="500.85" x2="693.04" y2="584.28"/><line class="cls-3" x1="701.74" y1="588.71" x2="861.14" y2="669.93"/><circle class="cls-4" cx="884.32" cy="681.74" r="7.81"/><line class="cls-1" x1="527.84" y1="503.87" x2="695.45" y2="600.63"/><line class="cls-1" x1="695.45" y1="600.63" x2="863.06" y2="697.4"/><line class="cls-2" x1="527.84" y1="503.87" x2="685.59" y2="594.94"/><line class="cls-3" x1="695.45" y1="600.63" x2="848.97" y2="689.27"/><circle class="cls-4" cx="872.91" cy="703.09" r="7.81"/><line class="cls-1" x1="525.89" y1="506.75" x2="688.2" y2="612.15"/><line class="cls-1" x1="688.2" y1="612.15" x2="850.51" y2="717.56"/><line class="cls-2" x1="525.89" y1="506.75" x2="685.47" y2="610.38"/><line class="cls-3" x1="688.2" y1="612.15" x2="835.51" y2="707.82"/><circle class="cls-4" cx="860.06" cy="723.76" r="7.81"/><line class="cls-1" x1="523.96" y1="509.55" x2="680.53" y2="623.31"/><line class="cls-1" x1="680.53" y1="623.31" x2="837.11" y2="737.07"/><line class="cls-2" x1="523.96" y1="509.55" x2="638.43" y2="592.72"/><line class="cls-3" x1="680.53" y1="623.31" x2="821.32" y2="725.6"/><circle class="cls-4" cx="846.32" cy="743.76" r="7.81"/><line class="cls-1" x1="521.89" y1="512.25" x2="672.29" y2="634.05"/><line class="cls-1" x1="672.29" y1="634.05" x2="822.7" y2="755.85"/><line class="cls-2" x1="521.89" y1="512.25" x2="635.64" y2="604.37"/><line class="cls-3" x1="672.29" y1="634.05" x2="806.27" y2="742.54"/><circle class="cls-4" cx="831.55" cy="763.01" r="7.81"/><line class="cls-1" x1="519.68" y1="514.84" x2="663.5" y2="644.35"/><line class="cls-1" x1="663.5" y1="644.35" x2="807.33" y2="773.85"/><line class="cls-2" x1="519.68" y1="514.84" x2="638.12" y2="621.49"/><line class="cls-3" x1="663.5" y1="644.35" x2="790.4" y2="758.61"/><circle class="cls-4" cx="815.79" cy="781.46" r="7.81"/><line class="cls-1" x1="517.33" y1="517.34" x2="654.18" y2="654.19"/><line class="cls-1" x1="654.18" y1="654.19" x2="791.03" y2="791.04"/><line class="cls-2" x1="517.33" y1="517.34" x2="648.43" y2="648.44"/><line class="cls-3" x1="654.18" y1="654.19" x2="773.78" y2="773.79"/><circle class="cls-4" cx="799.08" cy="799.09" r="7.81"/><line class="cls-1" x1="514.86" y1="519.66" x2="644.36" y2="663.48"/><line class="cls-1" x1="644.36" y1="663.48" x2="773.86" y2="807.31"/><line class="cls-2" x1="514.86" y1="519.66" x2="629.13" y2="646.56"/><line class="cls-3" x1="644.36" y1="663.48" x2="756.45" y2="787.97"/><circle class="cls-4" cx="781.48" cy="815.77" r="7.81"/><line class="cls-1" x1="512.27" y1="521.87" x2="634.07" y2="672.28"/><line class="cls-1" x1="634.07" y1="672.28" x2="755.86" y2="822.68"/><line class="cls-2" x1="512.27" y1="521.87" x2="620.76" y2="655.85"/><line class="cls-3" x1="634.07" y1="672.28" x2="738.46" y2="801.2"/><circle class="cls-4" cx="763.03" cy="831.53" r="7.81"/><line class="cls-1" x1="509.57" y1="523.97" x2="623.33" y2="680.54"/><line class="cls-1" x1="623.33" y1="680.54" x2="737.08" y2="837.12"/><line class="cls-2" x1="509.57" y1="523.97" x2="586.04" y2="629.23"/><line class="cls-3" x1="623.33" y1="680.54" x2="719.88" y2="813.43"/><circle class="cls-4" cx="743.78" cy="846.33" r="7.81"/><line class="cls-1" x1="506.76" y1="525.87" x2="612.17" y2="688.19"/><line class="cls-1" x1="612.17" y1="688.19" x2="717.58" y2="850.5"/><line class="cls-2" x1="506.76" y1="525.87" x2="586.48" y2="648.63"/><line class="cls-3" x1="612.17" y1="688.19" x2="700.75" y2="824.58"/><circle class="cls-4" cx="723.78" cy="860.05" r="7.81"/><line class="cls-1" x1="503.83" y1="527.65" x2="600.6" y2="695.26"/><line class="cls-1" x1="600.6" y1="695.26" x2="697.37" y2="862.87"/><line class="cls-2" x1="503.83" y1="527.65" x2="564.82" y2="633.29"/><line class="cls-3" x1="600.6" y1="695.26" x2="681.1" y2="834.7"/><circle class="cls-6" cx="703.06" cy="872.73" r="7.81"/><line class="cls-1" x1="500.87" y1="529.3" x2="588.73" y2="701.74"/><line class="cls-1" x1="588.73" y1="701.74" x2="676.59" y2="874.19"/><line class="cls-2" x1="500.87" y1="529.3" x2="556.24" y2="637.99"/><line class="cls-3" x1="588.73" y1="701.74" x2="661.09" y2="843.76"/><circle class="cls-6" cx="681.76" cy="884.33" r="7.81"/><line class="cls-1" x1="497.79" y1="530.77" x2="576.51" y2="707.57"/><line class="cls-1" x1="576.51" y1="707.57" x2="655.23" y2="884.38"/><line class="cls-2" x1="497.79" y1="530.77" x2="559.31" y2="668.94"/><line class="cls-3" x1="576.51" y1="707.57" x2="640.67" y2="851.69"/><circle class="cls-4" cx="659.86" cy="894.78" r="7.81"/><line class="cls-1" x1="494.64" y1="532.07" x2="564" y2="712.75"/><line class="cls-1" x1="564" y1="712.75" x2="633.36" y2="893.43"/><line class="cls-2" x1="494.64" y1="532.07" x2="544.19" y2="661.13"/><line class="cls-3" x1="564" y1="712.75" x2="619.95" y2="858.51"/><circle class="cls-4" cx="637.44" cy="904.06" r="7.81"/><line class="cls-1" x1="491.43" y1="533.19" x2="551.24" y2="717.25"/><line class="cls-1" x1="551.24" y1="717.25" x2="611.05" y2="901.31"/><line class="cls-2" x1="491.43" y1="533.19" x2="532.64" y2="660.02"/><line class="cls-3" x1="551.24" y1="717.25" x2="598.98" y2="864.19"/><circle class="cls-7" cx="614.56" cy="912.14" r="7.81"/><line class="cls-1" x1="488.14" y1="534.15" x2="538.23" y2="721.09"/><line class="cls-1" x1="538.23" y1="721.09" x2="588.32" y2="908.03"/><line class="cls-2" x1="488.14" y1="534.15" x2="522.66" y2="662.97"/><line class="cls-3" x1="538.23" y1="721.09" x2="577.8" y2="868.76"/><circle class="cls-7" cx="591.27" cy="919.03" r="7.81"/><line class="cls-1" x1="484.86" y1="534.95" x2="525.1" y2="724.25"/><line class="cls-1" x1="525.1" y1="724.25" x2="565.33" y2="913.56"/><line class="cls-2" x1="484.86" y1="534.95" x2="515.97" y2="681.3"/><line class="cls-3" x1="525.1" y1="724.25" x2="556.54" y2="872.2"/><circle class="cls-7" cx="567.7" cy="924.7" r="7.81"/><line class="cls-1" x1="481.51" y1="535.59" x2="511.78" y2="726.75"/><line class="cls-1" x1="511.78" y1="726.75" x2="542.06" y2="917.9"/><line class="cls-2" x1="481.51" y1="535.59" x2="506.19" y2="691.41"/><line class="cls-3" x1="511.78" y1="726.75" x2="535.19" y2="874.53"/><circle class="cls-7" cx="543.84" cy="929.14" r="7.81"/><line class="cls-1" x1="478.13" y1="536.04" x2="498.36" y2="728.51"/><line class="cls-1" x1="498.36" y1="728.51" x2="518.59" y2="920.99"/><line class="cls-2" x1="478.13" y1="536.04" x2="491.73" y2="665.43"/><line class="cls-3" x1="498.36" y1="728.51" x2="513.83" y2="875.7"/><circle class="cls-7" cx="519.78" cy="932.31" r="7.81"/><line class="cls-1" x1="474.74" y1="536.31" x2="484.87" y2="729.58"/><line class="cls-1" x1="484.87" y1="729.58" x2="494.99" y2="922.85"/><line class="cls-2" x1="474.74" y1="536.31" x2="481.63" y2="667.86"/><line class="cls-3" x1="484.87" y1="729.58" x2="492.53" y2="875.75"/><circle class="cls-7" cx="495.59" cy="934.21" r="7.81"/><line class="cls-1" x1="471.3" y1="536.37" x2="471.3" y2="729.9"/><line class="cls-1" x1="471.3" y1="729.9" x2="471.3" y2="923.44"/><line class="cls-2" x1="471.3" y1="536.37" x2="471.3" y2="702.26"/><line class="cls-3" x1="471.3" y1="729.9" x2="471.3" y2="874.65"/><circle class="cls-7" cx="471.3" cy="934.82" r="7.81"/><line class="cls-1" x1="467.9" y1="536.28" x2="457.77" y2="729.55"/><line class="cls-1" x1="457.77" y1="729.55" x2="447.64" y2="922.82"/><line class="cls-2" x1="467.9" y1="536.28" x2="460.58" y2="675.95"/><line class="cls-3" x1="457.77" y1="729.55" x2="450.28" y2="872.47"/><circle class="cls-7" cx="447.05" cy="934.19" r="7.81"/><line class="cls-1" x1="464.5" y1="536.04" x2="444.27" y2="728.51"/><line class="cls-1" x1="444.27" y1="728.51" x2="424.04" y2="920.99"/><line class="cls-2" x1="464.5" y1="536.04" x2="446.82" y2="704.25"/><line class="cls-3" x1="444.27" y1="728.51" x2="429.48" y2="869.23"/><circle class="cls-7" cx="422.85" cy="932.31" r="7.81"/><line class="cls-1" x1="461.13" y1="535.59" x2="430.85" y2="726.75"/><line class="cls-1" x1="430.85" y1="726.75" x2="400.58" y2="917.9"/><line class="cls-2" x1="461.13" y1="535.59" x2="441.79" y2="657.67"/><line class="cls-3" x1="430.85" y1="726.75" x2="408.97" y2="864.89"/><circle class="cls-6" cx="398.79" cy="929.14" r="7.81"/><line class="cls-1" x1="457.78" y1="534.95" x2="417.54" y2="724.25"/><line class="cls-1" x1="417.54" y1="724.25" x2="377.3" y2="913.56"/><line class="cls-2" x1="457.78" y1="534.95" x2="420.92" y2="708.35"/><line class="cls-3" x1="417.54" y1="724.25" x2="388.8" y2="859.47"/><circle class="cls-7" cx="374.93" cy="924.7" r="7.81"/><line class="cls-1" x1="454.47" y1="534.15" x2="404.38" y2="721.09"/><line class="cls-1" x1="404.38" y1="721.09" x2="354.29" y2="908.03"/><line class="cls-2" x1="454.47" y1="534.15" x2="422.9" y2="651.97"/><line class="cls-3" x1="404.38" y1="721.09" x2="369.02" y2="853.05"/><circle class="cls-6" cx="351.34" cy="919.03" r="7.81"/><line class="cls-1" x1="451.2" y1="533.21" x2="391.4" y2="717.27"/><line class="cls-1" x1="391.4" y1="717.27" x2="331.59" y2="901.34"/><line class="cls-2" x1="451.2" y1="533.21" x2="414.01" y2="647.67"/><line class="cls-3" x1="391.4" y1="717.27" x2="349.68" y2="845.65"/><circle class="cls-6" cx="328.07" cy="912.16" r="7.81"/><line class="cls-1" x1="447.99" y1="532.05" x2="378.63" y2="712.73"/><line class="cls-1" x1="378.63" y1="712.73" x2="309.28" y2="893.41"/><line class="cls-2" x1="447.99" y1="532.05" x2="389.71" y2="683.88"/><line class="cls-3" x1="378.63" y1="712.73" x2="330.84" y2="837.23"/><circle class="cls-7" cx="305.2" cy="904.04" r="7.81"/><line class="cls-1" x1="444.84" y1="530.74" x2="366.13" y2="707.55"/><line class="cls-1" x1="366.13" y1="707.55" x2="287.41" y2="884.35"/><line class="cls-2" x1="444.84" y1="530.74" x2="383.99" y2="667.43"/><line class="cls-3" x1="366.13" y1="707.55" x2="312.54" y2="827.89"/><circle class="cls-7" cx="282.78" cy="894.75" r="7.81"/><line class="cls-1" x1="441.8" y1="529.3" x2="353.93" y2="701.74"/><line class="cls-1" x1="353.93" y1="701.74" x2="266.07" y2="874.19"/><line class="cls-2" x1="441.8" y1="529.3" x2="382.73" y2="645.23"/><line class="cls-3" x1="353.93" y1="701.74" x2="294.87" y2="817.67"/><circle class="cls-7" cx="260.9" cy="884.33" r="7.81"/><line class="cls-1" x1="438.78" y1="527.65" x2="342.01" y2="695.26"/><line class="cls-1" x1="342.01" y1="695.26" x2="245.24" y2="862.87"/><line class="cls-2" x1="438.78" y1="527.65" x2="372.1" y2="643.15"/><line class="cls-3" x1="342.01" y1="695.26" x2="277.77" y2="806.53"/><circle class="cls-7" cx="239.55" cy="872.73" r="7.81"/><line class="cls-1" x1="435.9" y1="525.9" x2="330.49" y2="688.21"/><line class="cls-1" x1="330.49" y1="688.21" x2="225.09" y2="850.52"/><line class="cls-2" x1="435.9" y1="525.9" x2="370.35" y2="626.83"/><line class="cls-3" x1="330.49" y1="688.21" x2="261.4" y2="794.6"/><circle class="cls-6" cx="218.89" cy="860.07" r="7.81"/><line class="cls-1" x1="433.07" y1="523.97" x2="319.31" y2="680.54"/><line class="cls-1" x1="319.31" y1="680.54" x2="205.55" y2="837.12"/><line class="cls-2" x1="433.07" y1="523.97" x2="338.43" y2="654.23"/><line class="cls-3" x1="319.31" y1="680.54" x2="245.7" y2="781.86"/><circle class="cls-7" cx="198.86" cy="846.33" r="7.81"/><line class="cls-1" x1="430.36" y1="521.87" x2="308.57" y2="672.28"/><line class="cls-1" x1="308.57" y1="672.28" x2="186.77" y2="822.68"/><line class="cls-2" x1="430.36" y1="521.87" x2="342.34" y2="630.57"/><line class="cls-3" x1="308.57" y1="672.28" x2="230.78" y2="768.33"/><circle class="cls-7" cx="179.61" cy="831.53" r="7.81"/><line class="cls-1" x1="427.77" y1="519.66" x2="298.27" y2="663.48"/><line class="cls-1" x1="298.27" y1="663.48" x2="168.77" y2="807.31"/><line class="cls-2" x1="427.77" y1="519.66" x2="308.07" y2="652.61"/><line class="cls-3" x1="298.27" y1="663.48" x2="216.66" y2="754.13"/><circle class="cls-7" cx="161.16" cy="815.77" r="7.81"/><line class="cls-1" x1="425.3" y1="517.32" x2="288.45" y2="654.17"/><line class="cls-1" x1="288.45" y1="654.17" x2="151.6" y2="791.02"/><line class="cls-2" x1="425.3" y1="517.32" x2="314.9" y2="627.72"/><line class="cls-3" x1="288.45" y1="654.17" x2="203.35" y2="739.27"/><circle class="cls-7" cx="143.55" cy="799.07" r="7.81"/><line class="cls-1" x1="422.96" y1="514.87" x2="279.13" y2="644.37"/><line class="cls-1" x1="279.13" y1="644.37" x2="135.31" y2="773.87"/><line class="cls-2" x1="422.96" y1="514.87" x2="331.1" y2="597.58"/><line class="cls-3" x1="279.13" y1="644.37" x2="190.91" y2="723.81"/><circle class="cls-6" cx="126.85" cy="781.49" r="7.81"/><line class="cls-1" x1="420.75" y1="512.28" x2="270.34" y2="634.08"/><line class="cls-1" x1="270.34" y1="634.08" x2="119.94" y2="755.87"/><line class="cls-2" x1="420.75" y1="512.28" x2="327.22" y2="588.02"/><line class="cls-3" x1="270.34" y1="634.08" x2="179.34" y2="707.77"/><circle class="cls-6" cx="111.09" cy="763.04" r="7.81"/><line class="cls-1" x1="418.67" y1="509.55" x2="262.1" y2="623.31"/><line class="cls-1" x1="262.1" y1="623.31" x2="105.53" y2="737.07"/><line class="cls-2" x1="418.67" y1="509.55" x2="309.47" y2="588.9"/><line class="cls-3" x1="262.1" y1="623.31" x2="168.68" y2="691.18"/><circle class="cls-7" cx="96.32" cy="743.76" r="7.81"/><line class="cls-1" x1="416.74" y1="506.75" x2="254.43" y2="612.15"/><line class="cls-1" x1="254.43" y1="612.15" x2="92.12" y2="717.56"/><line class="cls-2" x1="416.74" y1="506.75" x2="302.17" y2="581.15"/><line class="cls-3" x1="254.43" y1="612.15" x2="158.95" y2="674.16"/><circle class="cls-7" cx="82.57" cy="723.76" r="7.81"/><line class="cls-1" x1="414.97" y1="503.84" x2="247.36" y2="600.61"/><line class="cls-1" x1="247.36" y1="600.61" x2="79.75" y2="697.38"/><line class="cls-2" x1="414.97" y1="503.84" x2="285.39" y2="578.65"/><line class="cls-3" x1="247.36" y1="600.61" x2="150.18" y2="656.72"/><circle class="cls-7" cx="69.89" cy="703.07" r="7.81"/><line class="cls-1" x1="413.37" y1="500.85" x2="240.93" y2="588.71"/><line class="cls-1" x1="240.93" y1="588.71" x2="68.49" y2="676.58"/><line class="cls-2" x1="413.37" y1="500.85" x2="306.14" y2="555.49"/><line class="cls-3" x1="240.93" y1="588.71" x2="142.39" y2="638.92"/><circle class="cls-6" cx="58.34" cy="681.74" r="7.81"/><line class="cls-1" x1="411.9" y1="497.77" x2="235.1" y2="576.49"/><line class="cls-1" x1="235.1" y1="576.49" x2="58.3" y2="655.21"/><line class="cls-2" x1="411.9" y1="497.77" x2="296.01" y2="549.37"/><line class="cls-3" x1="235.1" y1="576.49" x2="135.55" y2="620.81"/><circle class="cls-6" cx="47.9" cy="659.84" r="7.81"/><line class="cls-1" x1="410.57" y1="494.63" x2="229.89" y2="563.99"/><line class="cls-1" x1="229.89" y1="563.99" x2="49.21" y2="633.34"/><line class="cls-2" x1="410.57" y1="494.63" x2="295.18" y2="538.92"/><line class="cls-3" x1="229.89" y1="563.99" x2="129.68" y2="602.45"/><circle class="cls-6" cx="38.58" cy="637.42" r="7.81"/><line class="cls-1" x1="409.43" y1="491.42" x2="225.37" y2="551.22"/><line class="cls-1" x1="225.37" y1="551.22" x2="41.31" y2="611.03"/><line class="cls-2" x1="409.43" y1="491.42" x2="294.97" y2="528.61"/><line class="cls-3" x1="225.37" y1="551.22" x2="124.83" y2="583.89"/><circle class="cls-6" cx="30.48" cy="614.55" r="7.81"/><line class="cls-1" x1="408.47" y1="488.15" x2="221.53" y2="538.24"/><line class="cls-1" x1="221.53" y1="538.24" x2="34.59" y2="588.33"/><line class="cls-2" x1="408.47" y1="488.15" x2="279.65" y2="522.67"/><line class="cls-3" x1="221.53" y1="538.24" x2="120.99" y2="565.18"/><circle class="cls-7" cx="23.59" cy="591.28" r="7.81"/><line class="cls-1" x1="407.7" y1="484.84" x2="218.39" y2="525.08"/><line class="cls-1" x1="218.39" y1="525.08" x2="29.09" y2="565.32"/><line class="cls-2" x1="407.7" y1="484.84" x2="283.62" y2="511.22"/><line class="cls-3" x1="218.39" y1="525.08" x2="118.17" y2="546.38"/><circle class="cls-6" cx="17.95" cy="567.68" r="7.81"/><line class="cls-1" x1="407.05" y1="481.49" x2="215.9" y2="511.77"/><line class="cls-1" x1="215.9" y1="511.77" x2="24.75" y2="542.04"/><line class="cls-2" x1="407.05" y1="481.49" x2="265.69" y2="503.88"/><line class="cls-3" x1="215.9" y1="511.77" x2="116.31" y2="527.54"/><circle class="cls-7" cx="13.5" cy="543.82" r="7.81"/><line class="cls-1" x1="406.61" y1="478.14" x2="214.13" y2="498.37"/><line class="cls-1" x1="214.13" y1="498.37" x2="21.66" y2="518.6"/><line class="cls-2" x1="406.61" y1="478.14" x2="259.42" y2="493.61"/><line class="cls-3" x1="214.13" y1="498.37" x2="115.47" y2="508.74"/><circle class="cls-7" cx="10.33" cy="519.79" r="7.81"/><line class="cls-1" x1="406.34" y1="474.72" x2="213.07" y2="484.85"/><line class="cls-1" x1="213.07" y1="484.85" x2="19.8" y2="494.98"/><line class="cls-2" x1="406.34" y1="474.72" x2="227.69" y2="484.08"/><line class="cls-3" x1="213.07" y1="484.85" x2="115.62" y2="489.96"/><circle class="cls-7" cx="8.43" cy="495.57" r="7.81"/><line class="cls-1" x1="406.26" y1="471.32" x2="212.73" y2="471.32"/><line class="cls-1" x1="212.73" y1="471.32" x2="19.19" y2="471.32"/><line class="cls-2" x1="406.26" y1="471.32" x2="285.91" y2="471.32"/><line class="cls-3" x1="212.73" y1="471.32" x2="116.77" y2="471.32"/><circle class="cls-6" cx="7.81" cy="471.32" r="7.81"/><line class="cls-1" x1="406.34" y1="467.91" x2="213.07" y2="457.78"/><line class="cls-1" x1="213.07" y1="457.78" x2="19.8" y2="447.65"/><line class="cls-2" x1="406.34" y1="467.91" x2="258.54" y2="460.16"/><line class="cls-3" x1="213.07" y1="457.78" x2="118.87" y2="452.84"/><circle class="cls-7" cx="8.43" cy="447.06" r="7.81"/><line class="cls-1" x1="406.61" y1="464.52" x2="214.13" y2="444.29"/><line class="cls-1" x1="214.13" y1="444.29" x2="21.66" y2="424.06"/><line class="cls-2" x1="406.61" y1="464.52" x2="280.45" y2="451.26"/><line class="cls-3" x1="214.13" y1="444.29" x2="121.94" y2="434.6"/><circle class="cls-6" cx="10.33" cy="422.87" r="7.81"/><line class="cls-1" x1="407.05" y1="461.14" x2="215.9" y2="430.86"/><line class="cls-1" x1="215.9" y1="430.86" x2="24.75" y2="400.59"/><line class="cls-2" x1="407.05" y1="461.14" x2="244.81" y2="435.44"/><line class="cls-3" x1="215.9" y1="430.86" x2="125.94" y2="416.62"/><circle class="cls-7" cx="13.5" cy="398.81" r="7.81"/><line class="cls-1" x1="407.68" y1="457.79" x2="218.38" y2="417.55"/><line class="cls-1" x1="218.38" y1="417.55" x2="29.07" y2="377.32"/><line class="cls-2" x1="407.68" y1="457.79" x2="266.1" y2="427.7"/><line class="cls-3" x1="218.38" y1="417.55" x2="130.88" y2="398.96"/><circle class="cls-7" cx="17.94" cy="374.95" r="7.81"/><line class="cls-1" x1="408.48" y1="454.48" x2="221.54" y2="404.39"/><line class="cls-1" x1="221.54" y1="404.39" x2="34.6" y2="354.3"/><line class="cls-2" x1="408.48" y1="454.48" x2="274.95" y2="418.7"/><line class="cls-3" x1="221.54" y1="404.39" x2="136.71" y2="381.66"/><circle class="cls-7" cx="23.6" cy="351.35" r="7.81"/><line class="cls-1" x1="409.45" y1="451.22" x2="225.38" y2="391.41"/><line class="cls-1" x1="225.38" y1="391.41" x2="41.32" y2="331.6"/><line class="cls-2" x1="409.45" y1="451.22" x2="279.52" y2="409"/><line class="cls-3" x1="225.38" y1="391.41" x2="143.4" y2="364.77"/><circle class="cls-7" cx="30.49" cy="328.09" r="7.81"/><line class="cls-1" x1="410.6" y1="448.03" x2="229.92" y2="378.67"/><line class="cls-1" x1="229.92" y1="378.67" x2="49.24" y2="309.31"/><line class="cls-2" x1="410.6" y1="448.03" x2="283.06" y2="399.07"/><line class="cls-3" x1="229.92" y1="378.67" x2="150.96" y2="348.36"/><circle class="cls-7" cx="38.61" cy="305.23" r="7.81"/><line class="cls-1" x1="411.87" y1="444.86" x2="235.07" y2="366.14"/><line class="cls-1" x1="235.07" y1="366.14" x2="58.27" y2="287.42"/><line class="cls-2" x1="411.87" y1="444.86" x2="290.04" y2="390.61"/><line class="cls-3" x1="235.07" y1="366.14" x2="159.3" y2="332.4"/><circle class="cls-7" cx="47.87" cy="282.79" r="7.81"/><line class="cls-1" x1="413.37" y1="441.78" x2="240.93" y2="353.92"/><line class="cls-1" x1="240.93" y1="353.92" x2="68.49" y2="266.06"/><line class="cls-2" x1="413.37" y1="441.78" x2="285.85" y2="376.81"/><line class="cls-3" x1="240.93" y1="353.92" x2="168.47" y2="317"/><circle class="cls-7" cx="58.34" cy="260.89" r="7.81"/><line class="cls-1" x1="414.99" y1="438.79" x2="247.39" y2="342.02"/><line class="cls-1" x1="247.39" y1="342.02" x2="79.78" y2="245.25"/><line class="cls-2" x1="414.99" y1="438.79" x2="309.36" y2="377.8"/><line class="cls-3" x1="247.39" y1="342.02" x2="178.37" y2="302.18"/><circle class="cls-6" cx="69.92" cy="239.56" r="7.81"/><line class="cls-1" x1="416.77" y1="435.88" x2="254.46" y2="330.48"/><line class="cls-1" x1="254.46" y1="330.48" x2="92.15" y2="225.07"/><line class="cls-2" x1="416.77" y1="435.88" x2="310.38" y2="366.79"/><line class="cls-3" x1="254.46" y1="330.48" x2="188.99" y2="287.96"/><circle class="cls-6" cx="82.6" cy="218.87" r="7.81"/><line class="cls-1" x1="418.67" y1="433.08" x2="262.1" y2="319.32"/><line class="cls-1" x1="262.1" y1="319.32" x2="105.53" y2="205.56"/><line class="cls-2" x1="418.67" y1="433.08" x2="310.78" y2="354.69"/><line class="cls-3" x1="262.1" y1="319.32" x2="200.26" y2="274.39"/><circle class="cls-7" cx="96.32" cy="198.87" r="7.81"/><line class="cls-1" x1="420.75" y1="430.4" x2="270.34" y2="308.61"/><line class="cls-1" x1="270.34" y1="308.61" x2="119.94" y2="186.81"/><line class="cls-2" x1="420.75" y1="430.4" x2="310.79" y2="341.36"/><line class="cls-3" x1="270.34" y1="308.61" x2="212.2" y2="261.52"/><circle class="cls-7" cx="111.09" cy="179.64" r="7.81"/><line class="cls-1" x1="422.97" y1="427.79" x2="279.15" y2="298.29"/><line class="cls-1" x1="279.15" y1="298.29" x2="135.32" y2="168.78"/><line class="cls-2" x1="422.97" y1="427.79" x2="322.66" y2="337.46"/><line class="cls-3" x1="279.15" y1="298.29" x2="224.76" y2="249.31"/><circle class="cls-7" cx="126.86" cy="161.17" r="7.81"/><line class="cls-1" x1="425.33" y1="425.32" x2="288.48" y2="288.47"/><line class="cls-1" x1="288.48" y1="288.47" x2="151.63" y2="151.62"/><line class="cls-2" x1="425.33" y1="425.32" x2="336.78" y2="336.77"/><line class="cls-3" x1="288.48" y1="288.47" x2="237.88" y2="237.87"/><circle class="cls-6" cx="143.58" cy="143.57" r="7.81"/><line class="cls-1" x1="427.8" y1="422.97" x2="298.3" y2="279.15"/><line class="cls-1" x1="298.3" y1="279.15" x2="168.8" y2="135.32"/><line class="cls-2" x1="427.8" y1="422.97" x2="342.92" y2="328.7"/><line class="cls-3" x1="298.3" y1="279.15" x2="251.51" y2="227.18"/><circle class="cls-6" cx="161.18" cy="126.86" r="7.81"/><line class="cls-1" x1="430.39" y1="420.76" x2="308.6" y2="270.35"/><line class="cls-1" x1="308.6" y1="270.35" x2="186.8" y2="119.95"/><line class="cls-2" x1="430.39" y1="420.76" x2="352.61" y2="324.7"/><line class="cls-3" x1="308.6" y1="270.35" x2="265.61" y2="217.27"/><circle class="cls-6" cx="179.64" cy="111.1" r="7.81"/><line class="cls-1" x1="433.09" y1="418.69" x2="319.34" y2="262.11"/><line class="cls-1" x1="319.34" y1="262.11" x2="205.58" y2="105.54"/><line class="cls-2" x1="433.09" y1="418.69" x2="358.53" y2="316.06"/><line class="cls-3" x1="319.34" y1="262.11" x2="280.14" y2="208.17"/><circle class="cls-6" cx="198.89" cy="96.33" r="7.81"/><line class="cls-1" x1="435.88" y1="416.76" x2="330.48" y2="254.44"/><line class="cls-1" x1="330.48" y1="254.44" x2="225.07" y2="92.13"/><line class="cls-2" x1="435.88" y1="416.76" x2="357.05" y2="295.36"/><line class="cls-3" x1="330.48" y1="254.44" x2="295.05" y2="199.89"/><circle class="cls-7" cx="218.87" cy="82.58" r="7.81"/><line class="cls-1" x1="438.78" y1="415" x2="342.01" y2="247.4"/><line class="cls-1" x1="342.01" y1="247.4" x2="245.24" y2="79.79"/><line class="cls-2" x1="438.78" y1="415" x2="345.26" y2="253.03"/><line class="cls-3" x1="342.01" y1="247.4" x2="310.3" y2="192.47"/><circle class="cls-8" cx="239.55" cy="69.93" r="7.81"/><line class="cls-1" x1="441.77" y1="413.35" x2="353.91" y2="240.91"/><line class="cls-1" x1="353.91" y1="240.91" x2="266.04" y2="68.47"/><line class="cls-2" x1="441.77" y1="413.35" x2="384.18" y2="300.32"/><line class="cls-3" x1="353.91" y1="240.91" x2="325.85" y2="185.85"/><circle class="cls-9" cx="260.87" cy="58.33" r="4.88"/><line class="cls-1" x1="444.84" y1="411.89" x2="366.13" y2="235.08"/><line class="cls-1" x1="366.13" y1="235.08" x2="287.41" y2="58.28"/><line class="cls-2" x1="444.84" y1="411.89" x2="395.89" y2="301.94"/><line class="cls-3" x1="366.13" y1="235.08" x2="341.65" y2="180.11"/><circle class="cls-9" cx="282.78" cy="47.88" r="4.88"/><line class="cls-1" x1="447.99" y1="410.58" x2="378.63" y2="229.9"/><line class="cls-1" x1="378.63" y1="229.9" x2="309.28" y2="49.22"/><line class="cls-2" x1="447.99" y1="410.58" x2="401.95" y2="290.63"/><line class="cls-3" x1="378.63" y1="229.9" x2="357.65" y2="175.24"/><circle class="cls-8" cx="305.2" cy="38.59" r="7.81"/><line class="cls-1" x1="451.21" y1="409.45" x2="391.41" y2="225.38"/><line class="cls-1" x1="391.41" y1="225.38" x2="331.6" y2="41.32"/><line class="cls-2" x1="451.21" y1="409.45" x2="414.02" y2="294.99"/><line class="cls-3" x1="391.41" y1="225.38" x2="373.82" y2="171.25"/><circle class="cls-9" cx="328.08" cy="30.49" r="4.88"/><line class="cls-1" x1="454.48" y1="408.5" x2="404.39" y2="221.56"/><line class="cls-1" x1="404.39" y1="221.56" x2="354.3" y2="34.62"/><line class="cls-2" x1="454.48" y1="408.5" x2="422.07" y2="287.54"/><line class="cls-3" x1="404.39" y1="221.56" x2="390.08" y2="168.15"/><circle class="cls-9" cx="351.35" cy="23.63" r="4.88"/><line class="cls-1" x1="457.72" y1="407.68" x2="417.48" y2="218.38"/><line class="cls-1" x1="417.48" y1="218.38" x2="377.24" y2="29.07"/><line class="cls-2" x1="457.72" y1="407.68" x2="432.36" y2="288.37"/><line class="cls-3" x1="417.48" y1="218.38" x2="406.32" y2="165.88"/><circle class="cls-9" cx="374.88" cy="17.94" r="4.88"/><line class="cls-1" x1="461.15" y1="407.06" x2="430.88" y2="215.91"/><line class="cls-1" x1="430.88" y1="215.91" x2="400.6" y2="24.76"/><line class="cls-2" x1="461.15" y1="407.06" x2="442.33" y2="288.19"/><line class="cls-3" x1="430.88" y1="215.91" x2="422.74" y2="164.51"/><circle class="cls-9" cx="398.82" cy="13.51" r="4.88"/><line class="cls-1" x1="464.53" y1="406.62" x2="444.3" y2="214.14"/><line class="cls-1" x1="444.3" y1="214.14" x2="424.07" y2="21.67"/><line class="cls-2" x1="464.53" y1="406.62" x2="450.59" y2="273.99"/><line class="cls-3" x1="444.3" y1="214.14" x2="439.03" y2="164"/><circle class="cls-8" cx="422.88" cy="10.35" r="7.81"/><line class="cls-1" x1="467.93" y1="406.35" x2="457.8" y2="213.08"/><line class="cls-1" x1="457.8" y1="213.08" x2="447.67" y2="19.81"/><line class="cls-2" x1="467.93" y1="406.35" x2="460.61" y2="266.68"/><line class="cls-3" x1="457.8" y1="213.08" x2="455.24" y2="164.36"/><circle class="cls-8" cx="447.07" cy="8.44" r="7.81"/><line class="cls-1" x1="471.32" y1="406.26" x2="471.32" y2="212.73"/><line class="cls-1" x1="471.32" y1="212.73" x2="471.32" y2="19.19"/><line class="cls-2" x1="471.32" y1="406.26" x2="471.32" y2="253.38"/><line class="cls-3" x1="471.32" y1="212.73" x2="471.32" y2="165.56"/><circle class="cls-8" cx="471.32" cy="7.81" r="7.81"/><line class="cls-1" x1="474.74" y1="406.35" x2="484.87" y2="213.08"/><line class="cls-1" x1="484.87" y1="213.08" x2="494.99" y2="19.81"/><line class="cls-2" x1="474.74" y1="406.35" x2="481.46" y2="278.05"/><line class="cls-3" x1="484.87" y1="213.08" x2="487.25" y2="167.61"/><circle class="cls-8" cx="495.59" cy="8.44" r="7.81"/><line class="cls-1" x1="478.13" y1="406.64" x2="498.36" y2="214.17"/><line class="cls-1" x1="498.36" y1="214.17" x2="518.59" y2="21.69"/><line class="cls-2" x1="478.13" y1="406.64" x2="490.88" y2="285.34"/><line class="cls-3" x1="498.36" y1="214.17" x2="502.95" y2="170.5"/><circle class="cls-9" cx="519.78" cy="10.37" r="4.88"/><line class="cls-1" x1="481.51" y1="407.09" x2="511.78" y2="215.93"/><line class="cls-1" x1="511.78" y1="215.93" x2="542.06" y2="24.78"/><line class="cls-2" x1="481.51" y1="407.09" x2="500.84" y2="285.01"/><line class="cls-3" x1="511.78" y1="215.93" x2="518.4" y2="174.17"/><circle class="cls-9" cx="543.84" cy="13.54" r="4.88"/><line class="cls-1" x1="484.84" y1="407.71" x2="525.08" y2="218.4"/><line class="cls-1" x1="525.08" y1="218.4" x2="565.32" y2="29.1"/><line class="cls-2" x1="484.84" y1="407.71" x2="511.22" y2="283.63"/><line class="cls-3" x1="525.08" y1="218.4" x2="533.53" y2="178.63"/><circle class="cls-9" cx="567.68" cy="17.96" r="4.88"/><line class="cls-1" x1="488.17" y1="408.48" x2="538.26" y2="221.54"/><line class="cls-1" x1="538.26" y1="221.54" x2="588.35" y2="34.6"/><line class="cls-2" x1="488.17" y1="408.48" x2="523.11" y2="278.09"/><line class="cls-3" x1="538.26" y1="221.54" x2="548.36" y2="183.83"/><circle class="cls-8" cx="591.3" cy="23.6" r="7.81"/><line class="cls-1" x1="491.43" y1="409.45" x2="551.24" y2="225.38"/><line class="cls-1" x1="551.24" y1="225.38" x2="611.05" y2="41.32"/><line class="cls-2" x1="491.43" y1="409.45" x2="529.13" y2="293.44"/><line class="cls-3" x1="551.24" y1="225.38" x2="562.8" y2="189.81"/><circle class="cls-9" cx="614.56" cy="30.49" r="4.88"/><line class="cls-1" x1="494.63" y1="410.58" x2="563.99" y2="229.9"/><line class="cls-1" x1="563.99" y1="229.9" x2="633.34" y2="49.22"/><line class="cls-2" x1="494.63" y1="410.58" x2="538.34" y2="296.71"/><line class="cls-3" x1="563.99" y1="229.9" x2="576.81" y2="196.5"/><circle class="cls-9" cx="637.42" cy="38.59" r="4.88"/><line class="cls-1" x1="497.79" y1="411.91" x2="576.51" y2="235.11"/><line class="cls-1" x1="576.51" y1="235.11" x2="655.23" y2="58.3"/><line class="cls-2" x1="497.79" y1="411.91" x2="547.4" y2="300.48"/><line class="cls-3" x1="576.51" y1="235.11" x2="590.4" y2="203.91"/><circle class="cls-9" cx="659.86" cy="47.9" r="4.88"/><line class="cls-1" x1="500.87" y1="413.35" x2="588.73" y2="240.91"/><line class="cls-1" x1="588.73" y1="240.91" x2="676.59" y2="68.47"/><line class="cls-2" x1="500.87" y1="413.35" x2="555.5" y2="306.12"/><line class="cls-3" x1="588.73" y1="240.91" x2="603.5" y2="211.93"/><circle class="cls-9" cx="681.76" cy="58.33" r="4.88"/><line class="cls-1" x1="503.86" y1="414.98" x2="600.63" y2="247.37"/><line class="cls-1" x1="600.63" y1="247.37" x2="697.39" y2="79.76"/><line class="cls-2" x1="503.86" y1="414.98" x2="568.91" y2="302.3"/><line class="cls-3" x1="600.63" y1="247.37" x2="616.08" y2="220.61"/><circle class="cls-8" cx="703.09" cy="69.9" r="7.81"/><line class="cls-1" x1="506.68" y1="416.78" x2="612.08" y2="254.47"/><line class="cls-1" x1="612.08" y1="254.47" x2="717.49" y2="92.16"/><line class="cls-2" x1="506.68" y1="416.78" x2="578.42" y2="306.3"/><line class="cls-3" x1="612.08" y1="254.47" x2="628.03" y2="229.92"/><circle class="cls-8" cx="723.69" cy="82.61" r="7.81"/><line class="cls-1" x1="509.57" y1="418.71" x2="623.33" y2="262.14"/><line class="cls-1" x1="623.33" y1="262.14" x2="737.08" y2="105.56"/><line class="cls-2" x1="509.57" y1="418.71" x2="580.31" y2="321.35"/><line class="cls-3" x1="623.33" y1="262.14" x2="639.58" y2="239.77"/><circle class="cls-9" cx="743.78" cy="96.35" r="4.88"/><line class="cls-1" x1="512.26" y1="420.78" x2="634.05" y2="270.38"/><line class="cls-1" x1="634.05" y1="270.38" x2="755.85" y2="119.97"/><line class="cls-2" x1="512.26" y1="420.78" x2="592.09" y2="322.2"/><line class="cls-3" x1="634.05" y1="270.38" x2="650.43" y2="250.16"/><circle class="cls-9" cx="763.01" cy="111.13" r="4.88"/><line class="cls-1" x1="514.86" y1="422.97" x2="644.36" y2="279.15"/><line class="cls-1" x1="644.36" y1="279.15" x2="773.86" y2="135.32"/><line class="cls-2" x1="514.86" y1="422.97" x2="603.01" y2="325.07"/><line class="cls-3" x1="644.36" y1="279.15" x2="660.68" y2="261.02"/><circle class="cls-8" cx="781.48" cy="126.86" r="7.81"/><line class="cls-1" x1="517.33" y1="425.32" x2="654.18" y2="288.47"/><line class="cls-1" x1="654.18" y1="288.47" x2="791.03" y2="151.62"/><line class="cls-2" x1="517.33" y1="425.32" x2="609.33" y2="333.32"/><line class="cls-3" x1="654.18" y1="288.47" x2="670.28" y2="272.37"/><circle class="cls-8" cx="799.08" cy="143.57" r="7.81"/><line class="cls-1" x1="519.68" y1="427.81" x2="663.5" y2="298.31"/><line class="cls-1" x1="663.5" y1="298.31" x2="807.33" y2="168.81"/><line class="cls-2" x1="519.68" y1="427.81" x2="613.95" y2="342.93"/><line class="cls-3" x1="663.5" y1="298.31" x2="679.21" y2="284.16"/><circle class="cls-9" cx="815.79" cy="161.19" r="4.88"/><line class="cls-1" x1="522.06" y1="430.38" x2="672.47" y2="308.58"/><line class="cls-1" x1="672.47" y1="308.58" x2="822.87" y2="186.78"/><line class="cls-2" x1="522.06" y1="430.38" x2="616.85" y2="353.61"/><line class="cls-3" x1="672.47" y1="308.58" x2="687.63" y2="296.3"/><circle class="cls-9" cx="831.72" cy="179.62" r="4.88"/><line class="cls-1" x1="524.13" y1="433.1" x2="680.71" y2="319.35"/><line class="cls-1" x1="680.71" y1="319.35" x2="837.28" y2="205.59"/><line class="cls-2" x1="524.13" y1="433.1" x2="621.5" y2="362.36"/><line class="cls-3" x1="680.71" y1="319.35" x2="695.18" y2="308.83"/><circle class="cls-9" cx="846.49" cy="198.9" r="4.88"/><line class="cls-1" x1="525.88" y1="435.91" x2="688.19" y2="330.5"/><line class="cls-1" x1="688.19" y1="330.5" x2="850.5" y2="225.1"/><line class="cls-2" x1="525.88" y1="435.91" x2="632.27" y2="366.82"/><line class="cls-3" x1="688.19" y1="330.5" x2="701.83" y2="321.64"/><circle class="cls-9" cx="860.05" cy="218.9" r="4.88"/><line class="cls-1" x1="527.84" y1="438.81" x2="695.45" y2="342.05"/><line class="cls-1" x1="695.45" y1="342.05" x2="863.06" y2="245.28"/><line class="cls-2" x1="527.84" y1="438.81" x2="636.29" y2="376.2"/><line class="cls-3" x1="695.45" y1="342.05" x2="708.12" y2="334.73"/><circle class="cls-9" cx="872.91" cy="239.59" r="4.88"/><line class="cls-1" x1="529.47" y1="441.81" x2="701.91" y2="353.94"/><line class="cls-1" x1="701.91" y1="353.94" x2="874.35" y2="266.08"/><line class="cls-2" x1="529.47" y1="441.81" x2="636.7" y2="387.17"/><line class="cls-3" x1="701.91" y1="353.94" x2="713.5" y2="348.04"/><circle class="cls-9" cx="884.49" cy="260.91" r="4.88"/><line class="cls-1" x1="530.93" y1="444.88" x2="707.74" y2="366.16"/><line class="cls-1" x1="707.74" y1="366.16" x2="884.54" y2="287.44"/><line class="cls-2" x1="530.93" y1="444.88" x2="643.85" y2="394.61"/><line class="cls-3" x1="707.74" y1="366.16" x2="718.14" y2="361.53"/><circle class="cls-9" cx="894.94" cy="282.81" r="4.88"/><line class="cls-1" x1="532.24" y1="448.03" x2="712.92" y2="378.67"/><line class="cls-1" x1="712.92" y1="378.67" x2="893.6" y2="309.31"/><line class="cls-2" x1="532.24" y1="448.03" x2="646.11" y2="404.31"/><line class="cls-3" x1="712.92" y1="378.67" x2="722.03" y2="375.17"/><circle class="cls-9" cx="904.23" cy="305.23" r="4.88"/><line class="cls-1" x1="533.11" y1="451.24" x2="717.18" y2="391.43"/><line class="cls-1" x1="717.18" y1="391.43" x2="901.24" y2="331.63"/><line class="cls-2" x1="533.11" y1="451.24" x2="680.06" y2="403.49"/><line class="cls-3" x1="717.18" y1="391.43" x2="724.91" y2="388.92"/><circle class="cls-8" cx="912.07" cy="328.11" r="7.81"/><line class="cls-1" x1="534.14" y1="454.5" x2="721.08" y2="404.41"/><line class="cls-1" x1="721.08" y1="404.41" x2="908.02" y2="354.32"/><line class="cls-2" x1="534.14" y1="454.5" x2="653.53" y2="422.51"/><line class="cls-3" x1="721.08" y1="404.41" x2="727.37" y2="402.73"/><circle class="cls-9" cx="919.02" cy="351.38" r="4.88"/><line class="cls-1" x1="534.96" y1="457.81" x2="724.27" y2="417.58"/><line class="cls-1" x1="724.27" y1="417.58" x2="913.58" y2="377.34"/><line class="cls-2" x1="534.96" y1="457.81" x2="681.32" y2="426.71"/><line class="cls-3" x1="724.27" y1="417.58" x2="729.04" y2="416.56"/><circle class="cls-8" cx="924.71" cy="374.97" r="7.81"/><line class="cls-1" x1="535.58" y1="461.16" x2="726.74" y2="430.89"/><line class="cls-1" x1="726.74" y1="430.89" x2="917.89" y2="400.61"/><line class="cls-2" x1="535.58" y1="461.16" x2="657.67" y2="441.83"/><line class="cls-3" x1="726.74" y1="430.89" x2="729.95" y2="430.38"/><circle class="cls-9" cx="929.13" cy="398.83" r="4.88"/><line class="cls-1" x1="536.03" y1="464.54" x2="728.5" y2="444.31"/><line class="cls-1" x1="728.5" y1="444.31" x2="920.98" y2="424.08"/><line class="cls-2" x1="536.03" y1="464.54" x2="655.72" y2="451.96"/><line class="cls-3" x1="728.5" y1="444.31" x2="730.12" y2="444.14"/><circle class="cls-9" cx="932.3" cy="422.89" r="4.88"/><line class="cls-9" x1="471.06" y1="470.82" x2="538.62" y2="469.85"/><line class="cls-9" x1="471.06" y1="470.79" x2="538.58" y2="473.36"/><line class="cls-9" x1="471.06" y1="470.82" x2="538.35" y2="476.91"/><line class="cls-9" x1="471.06" y1="470.82" x2="537.94" y2="480.43"/><line class="cls-9" x1="471.06" y1="470.82" x2="537.35" y2="483.91"/><line class="cls-9" x1="471.06" y1="470.79" x2="536.57" y2="487.34"/><line class="cls-9" x1="471.06" y1="470.79" x2="535.62" y2="490.75"/><line class="cls-9" x1="471.06" y1="470.82" x2="534.48" y2="494.12"/><line class="cls-9" x1="471.06" y1="470.79" x2="533.18" y2="497.38"/><line class="cls-9" x1="471.06" y1="470.79" x2="531.7" y2="500.6"/><line class="cls-9" x1="471.24" y1="470.82" x2="530.24" y2="503.76"/><line class="cls-9" x1="471.06" y1="470.79" x2="528.25" y2="506.77"/><line class="cls-9" x1="471.06" y1="470.79" x2="526.29" y2="509.72"/><line class="cls-9" x1="471.06" y1="470.79" x2="524.18" y2="512.56"/><line class="cls-9" x1="471.06" y1="470.79" x2="521.92" y2="515.28"/><line class="cls-9" x1="471.06" y1="470.82" x2="519.52" y2="517.9"/><line class="cls-9" x1="471.06" y1="470.79" x2="516.99" y2="520.35"/><line class="cls-9" x1="471.06" y1="470.79" x2="514.33" y2="522.69"/><line class="cls-9" x1="471.06" y1="470.82" x2="511.56" y2="524.91"/><line class="cls-9" x1="471.06" y1="470.79" x2="508.67" y2="526.93"/><line class="cls-9" x1="471.03" y1="470.79" x2="505.65" y2="528.82"/><line class="cls-9" x1="471.06" y1="470.82" x2="502.6" y2="530.58"/><line class="cls-9" x1="471.06" y1="470.82" x2="499.43" y2="532.14"/><line class="cls-9" x1="471.06" y1="470.82" x2="496.18" y2="533.54"/><line class="cls-9" x1="471.06" y1="470.79" x2="492.86" y2="534.75"/><line class="cls-9" x1="471.03" y1="470.79" x2="489.46" y2="535.8"/><line class="cls-9" x1="471.06" y1="470.79" x2="486.06" y2="536.68"/><line class="cls-9" x1="471.06" y1="470.82" x2="482.59" y2="537.4"/><line class="cls-9" x1="471.06" y1="470.82" x2="479.09" y2="537.91"/><line class="cls-9" x1="471.06" y1="470.82" x2="475.57" y2="538.24"/><line class="cls-9" x1="471.03" y1="470.79" x2="472" y2="538.35"/><line class="cls-9" x1="471.03" y1="470.79" x2="468.47" y2="538.31"/><line class="cls-9" x1="471.03" y1="470.82" x2="464.94" y2="538.11"/><line class="cls-9" x1="471.03" y1="470.82" x2="461.42" y2="537.7"/><line class="cls-9" x1="471.03" y1="470.79" x2="457.93" y2="537.08"/><line class="cls-9" x1="471.03" y1="470.79" x2="454.48" y2="536.3"/><line class="cls-9" x1="471.03" y1="470.82" x2="451.08" y2="535.37"/><line class="cls-9" x1="471.03" y1="470.79" x2="447.73" y2="534.22"/><line class="cls-9" x1="471.03" y1="470.79" x2="444.44" y2="532.91"/><line class="cls-9" x1="471.06" y1="470.82" x2="441.25" y2="531.46"/><line class="cls-9" x1="471.03" y1="470.79" x2="438.09" y2="529.79"/><line class="cls-9" x1="471.06" y1="470.82" x2="435.08" y2="528.01"/><line class="cls-9" x1="471.03" y1="470.82" x2="432.1" y2="526.05"/><line class="cls-9" x1="471.03" y1="470.79" x2="429.27" y2="523.91"/><line class="cls-9" x1="471.03" y1="470.79" x2="426.54" y2="521.65"/><line class="cls-9" x1="471.03" y1="470.79" x2="423.94" y2="519.25"/><line class="cls-9" x1="471.03" y1="470.82" x2="421.47" y2="516.75"/><line class="cls-9" x1="471.03" y1="470.82" x2="419.14" y2="514.09"/><line class="cls-9" x1="471.03" y1="470.79" x2="416.94" y2="511.29"/><line class="cls-9" x1="471.03" y1="470.79" x2="414.9" y2="508.4"/><line class="cls-9" x1="471.03" y1="470.79" x2="413.01" y2="505.42"/><line class="cls-9" x1="471.06" y1="470.79" x2="411.3" y2="502.33"/><line class="cls-9" x1="471.06" y1="470.79" x2="409.73" y2="499.16"/><line class="cls-9" x1="471.03" y1="470.79" x2="408.3" y2="495.91"/><line class="cls-9" x1="471.03" y1="470.79" x2="407.08" y2="492.59"/><line class="cls-9" x1="471.03" y1="470.79" x2="406.02" y2="489.22"/><line class="cls-9" x1="471.06" y1="470.79" x2="405.18" y2="485.79"/><line class="cls-9" x1="471.03" y1="470.79" x2="404.45" y2="482.32"/><line class="cls-9" x1="471.03" y1="470.82" x2="403.94" y2="478.85"/><line class="cls-9" x1="471.03" y1="470.79" x2="403.61" y2="475.3"/><line class="cls-9" x1="471.04" y1="470.8" x2="403.48" y2="471.77"/><line class="cls-9" x1="471.03" y1="470.79" x2="403.51" y2="468.23"/><line class="cls-9" x1="471.03" y1="470.79" x2="403.74" y2="464.7"/><line class="cls-9" x1="471.03" y1="470.79" x2="404.15" y2="461.18"/><line class="cls-9" x1="471.04" y1="470.8" x2="404.75" y2="457.7"/><line class="cls-9" x1="471.04" y1="470.79" x2="405.53" y2="454.24"/><line class="cls-9" x1="471.04" y1="470.8" x2="406.49" y2="450.84"/><line class="cls-9" x1="471.06" y1="470.82" x2="407.64" y2="447.51"/><line class="cls-9" x1="471.03" y1="470.79" x2="408.91" y2="444.2"/><line class="cls-9" x1="471.06" y1="470.79" x2="410.42" y2="440.99"/><line class="cls-9" x1="471.06" y1="470.79" x2="412.06" y2="437.85"/><line class="cls-9" x1="471.06" y1="470.79" x2="413.87" y2="434.81"/><line class="cls-9" x1="471.03" y1="470.79" x2="415.8" y2="431.87"/><line class="cls-9" x1="471.03" y1="470.82" x2="417.91" y2="429.06"/><line class="cls-9" x1="471.04" y1="470.79" x2="420.18" y2="426.31"/><line class="cls-9" x1="471.06" y1="470.8" x2="422.6" y2="423.71"/><line class="cls-9" x1="471.06" y1="470.79" x2="425.13" y2="421.23"/><line class="cls-9" x1="471.06" y1="470.79" x2="427.79" y2="418.9"/><line class="cls-9" x1="471.06" y1="470.79" x2="430.56" y2="416.7"/><line class="cls-9" x1="471.04" y1="470.79" x2="433.43" y2="414.66"/><line class="cls-9" x1="471.03" y1="470.82" x2="436.41" y2="412.79"/><line class="cls-9" x1="471.03" y1="470.79" x2="439.49" y2="411.03"/><line class="cls-9" x1="471.03" y1="470.79" x2="442.66" y2="409.47"/><line class="cls-9" x1="471.03" y1="470.79" x2="445.91" y2="408.07"/><line class="cls-9" x1="471.04" y1="470.79" x2="449.24" y2="406.84"/><line class="cls-9" x1="471.04" y1="470.82" x2="452.62" y2="405.81"/><line class="cls-9" x1="470.97" y1="470.79" x2="455.97" y2="404.91"/><line class="cls-9" x1="471.06" y1="470.79" x2="459.53" y2="404.21"/><line class="cls-9" x1="471.06" y1="470.79" x2="463.03" y2="403.7"/><line class="cls-9" x1="471.06" y1="470.79" x2="466.55" y2="403.37"/><line class="cls-9" x1="471.05" y1="470.79" x2="470.07" y2="403.23"/><line class="cls-9" x1="471.06" y1="470.79" x2="473.62" y2="403.27"/><line class="cls-9" x1="471.06" y1="470.82" x2="477.16" y2="403.52"/><line class="cls-9" x1="471.06" y1="470.82" x2="480.67" y2="403.94"/><line class="cls-9" x1="471.04" y1="470.82" x2="484.14" y2="404.53"/><line class="cls-9" x1="471.06" y1="470.79" x2="487.61" y2="405.28"/><line class="cls-9" x1="471.06" y1="470.79" x2="491.01" y2="406.24"/><line class="cls-9" x1="471.04" y1="470.79" x2="494.35" y2="407.37"/><line class="cls-9" x1="471.06" y1="470.82" x2="497.65" y2="408.7"/><line class="cls-9" x1="471.06" y1="470.79" x2="500.87" y2="410.15"/><line class="cls-9" x1="471.06" y1="470.79" x2="504" y2="411.8"/><line class="cls-9" x1="470.97" y1="470.82" x2="506.95" y2="413.63"/><line class="cls-9" x1="471.06" y1="470.82" x2="509.99" y2="415.59"/><line class="cls-9" x1="471.05" y1="470.82" x2="512.81" y2="417.7"/><line class="cls-9" x1="471.06" y1="470.79" x2="515.55" y2="419.93"/><line class="cls-9" x1="471.06" y1="470.79" x2="518.15" y2="422.33"/><line class="cls-9" x1="471.06" y1="470.82" x2="520.62" y2="424.89"/><line class="cls-9" x1="471.24" y1="470.79" x2="523.13" y2="427.52"/><line class="cls-9" x1="471.24" y1="470.82" x2="525.33" y2="430.32"/><line class="cls-9" x1="471.05" y1="470.82" x2="527.18" y2="433.21"/><line class="cls-9" x1="471.24" y1="470.82" x2="529.26" y2="436.19"/><line class="cls-9" x1="471.24" y1="470.82" x2="531" y2="439.28"/><line class="cls-9" x1="471.24" y1="470.82" x2="532.57" y2="442.45"/><line class="cls-9" x1="471.24" y1="470.82" x2="533.97" y2="445.7"/><line class="cls-9" x1="470.97" y1="470.82" x2="534.93" y2="449.02"/><line class="cls-9" x1="471.03" y1="470.82" x2="536.04" y2="452.39"/><line class="cls-9" x1="471.06" y1="470.82" x2="536.94" y2="455.82"/><line class="cls-9" x1="471.06" y1="470.82" x2="537.64" y2="459.29"/><line class="cls-9" x1="471.06" y1="470.82" x2="538.15" y2="462.79"/><circle class="cls-9" cx="471.06" cy="470.79" r="67.57"/><circle class="cls-6" cx="398.79" cy="929.14" r="2.6"/><circle class="cls-6" cx="351.34" cy="919.03" r="2.6"/><circle class="cls-6" cx="328.07" cy="912.16" r="2.6"/><circle class="cls-6" cx="218.89" cy="860.07" r="2.6"/><circle class="cls-6" cx="126.85" cy="781.49" r="2.6"/><circle class="cls-6" cx="111.09" cy="763.04" r="2.6"/><circle class="cls-6" cx="58.34" cy="681.74" r="2.6"/><circle class="cls-6" cx="47.9" cy="659.84" r="2.6"/><circle class="cls-6" cx="38.58" cy="637.42" r="2.6"/><circle class="cls-6" cx="30.48" cy="614.55" r="2.6"/><circle class="cls-6" cx="17.95" cy="567.68" r="2.6"/><circle class="cls-6" cx="7.81" cy="471.32" r="2.6"/><circle class="cls-6" cx="10.33" cy="422.87" r="2.6"/><circle class="cls-6" cx="69.92" cy="239.56" r="2.6"/><circle class="cls-6" cx="82.6" cy="218.87" r="2.6"/><circle class="cls-6" cx="143.58" cy="143.57" r="2.6"/><circle class="cls-6" cx="161.18" cy="126.86" r="2.6"/><circle class="cls-6" cx="179.64" cy="111.1" r="2.6"/><circle class="cls-6" cx="198.89" cy="96.33" r="2.6"/></g></g></svg>