<svg xmlns="http://www.w3.org/2000/svg" viewBox="0 0 943.92 1010.32"><defs><style>.cls-1,.cls-2,.cls-3,.cls-4,.cls-5,.cls-6{fill:none;stroke-miterlimit:10;}.cls-1,.cls-2{stroke:#e1dadc;}.cls-2{stroke-width:2px;}.cls-3{stroke:#29b5ba;}.cls-3,.cls-4,.cls-5,.cls-6{stroke-width:4px;}.cls-4{stroke:#f29131;}.cls-5{stroke:#6ac6f1;}.cls-6{stroke:#b3a3a8;}</style></defs><g id="Layer_2" data-name="Layer 2"><g id="Layer_1-2" data-name="Layer 1"><circle class="cls-1" cx="471.96" cy="505.16" r="471.46"/><line class="cls-2" x1="909.44" y1="757.74" x2="34.48" y2="252.58"/><line class="cls-2" x1="909.44" y1="252.58" x2="34.48" y2="757.74"/><line class="cls-2" x1="471.96" x2="471.96" y2="1010.32"/><path class="cls-3" d="M880.32,740.93c-59.57,59.68-133.57,7.76-408.36,6.81C202.34,746.8,132.65,796.29,70.35,737c-96-91.29-40.3-313.07,34.73-443.69,24-41.75,152-264.64,366.88-259.64,198.28,4.61,312.82,199.59,352.85,267.74C896.44,423.39,972.43,648.64,880.32,740.93Z"/><path class="cls-4" d="M582.37,568.9C501.54,709.09,544,789.14,472,836.64c-93.3,61.57-292.6,11.64-360.15-123.55-76.51-153.12,64-319.61,97.63-359.5,25.29-30,113.93-131.84,262.52-152.15,140.94-19.27,313,37.95,324.85,116.17C807.51,388.23,676.83,405.07,582.37,568.9Z"/><path class="cls-5" d="M614.39,587.39C574.69,607.84,551.2,577.92,472,578c-117.64,0-149.82,66-208.27,47.45C186.8,601,122.61,448.64,179.94,336.56c59.2-115.71,212.49-119.24,292-102.85,21.89,4.51,165.53,36.78,200,156C693.12,462.59,670.59,558.43,614.39,587.39Z"/><path class="cls-6" d="M497.42,519.86c-15.59,2.18-28.58-6.31-33.94-9.8-90-58.63-144.14-84.07-140.25-90.77,4.27-7.36,59.24,40.93,148.73,42,38,.46,62.52-7.79,68.95,4C548.73,479.76,525.24,516,497.42,519.86Z"/></g></g></svg>