<svg xmlns="http://www.w3.org/2000/svg" width="96.732" height="96.732" viewBox="0 0 96.732 96.732">
  <g id="Group_5462" data-name="Group 5462" transform="translate(-3.125 -3.125)">
    <path id="Path_3132" data-name="Path 3132" d="M42.735,29.688H39.51A14.526,14.526,0,0,0,25,44.2v6.449a1.613,1.613,0,0,0,1.613,1.613H97.55a1.613,1.613,0,0,0,1.612-1.613V31.3a1.612,1.612,0,0,0-1.612-1.612Zm53.2,19.346H28.224V44.2A11.3,11.3,0,0,1,39.51,32.912H95.937Z" transform="translate(0.696 0.845)" fill="#f29131"/>
    <path id="Path_3133" data-name="Path 3133" d="M37.5,37.55V44a1.613,1.613,0,0,0,1.613,1.613h6.449A1.613,1.613,0,0,0,47.173,44V37.55a1.612,1.612,0,0,0-1.612-1.612H39.113A1.612,1.612,0,0,0,37.5,37.55Zm3.224,1.613h3.224v3.224H40.724Z" transform="translate(1.093 1.044)" fill="#f29131"/>
    <path id="Path_3134" data-name="Path 3134" d="M51.613,45.611h6.449A1.613,1.613,0,0,0,59.673,44V37.55a1.612,1.612,0,0,0-1.612-1.612H51.613A1.612,1.612,0,0,0,50,37.55V44A1.613,1.613,0,0,0,51.613,45.611Zm1.612-6.449h3.224v3.224H53.224Z" transform="translate(1.491 1.044)" fill="#f29131"/>
    <path id="Path_3135" data-name="Path 3135" d="M64.113,45.611h6.449A1.613,1.613,0,0,0,72.173,44V37.55a1.612,1.612,0,0,0-1.612-1.612H64.113A1.612,1.612,0,0,0,62.5,37.55V44A1.613,1.613,0,0,0,64.113,45.611Zm1.612-6.449h3.224v3.224H65.724Z" transform="translate(1.889 1.044)" fill="#f29131"/>
    <path id="Path_3136" data-name="Path 3136" d="M76.613,45.611h6.449A1.613,1.613,0,0,0,84.673,44V37.55a1.612,1.612,0,0,0-1.612-1.612H76.613A1.612,1.612,0,0,0,75,37.55V44A1.613,1.613,0,0,0,76.613,45.611Zm1.612-6.449h3.224v3.224H78.224Z" transform="translate(2.286 1.044)" fill="#f29131"/>
    <path id="Path_3137" data-name="Path 3137" d="M32.863,76.961h9.673a1.613,1.613,0,0,0,1.612-1.613V65.675a1.612,1.612,0,0,0-1.612-1.612H32.863a1.612,1.612,0,0,0-1.613,1.612v9.673A1.613,1.613,0,0,0,32.863,76.961Zm1.612-9.673h6.449v6.449H34.474Z" transform="translate(0.895 1.938)" fill="#f29131"/>
    <path id="Path_3138" data-name="Path 3138" d="M17.238,76.961h9.673a1.613,1.613,0,0,0,1.612-1.613V65.675a1.612,1.612,0,0,0-1.612-1.612H17.238a1.612,1.612,0,0,0-1.613,1.612v9.673A1.613,1.613,0,0,0,17.238,76.961Zm1.612-9.673H25.3v6.449H18.849Z" transform="translate(0.398 1.938)" fill="#f29131"/>
    <path id="Path_3139" data-name="Path 3139" d="M4.738,20.86H16.023v9.673a1.613,1.613,0,0,0,1.613,1.612h4.836a1.612,1.612,0,0,0,1.312-.676L31.363,20.86H46.655a1.613,1.613,0,0,0,1.612-1.613,9.682,9.682,0,0,0-9.673-9.673H15.407L12.637,4.016a1.613,1.613,0,0,0-1.451-.891H4.738A1.613,1.613,0,0,0,3.125,4.738V19.247A1.613,1.613,0,0,0,4.738,20.86Zm16.9,8.06H19.247V20.86H27.4Zm23.2-11.285H6.349V12.8H38.593A6.46,6.46,0,0,1,44.838,17.635ZM6.349,6.349h3.84L11.8,9.574H6.349Z" transform="translate(0 0)" fill="#f29131"/>
    <path id="Path_3140" data-name="Path 3140" d="M4.738,93.281H8.19a6.419,6.419,0,0,0,12.441,0H46.883a6.419,6.419,0,0,0,12.441,0H66a1.613,1.613,0,0,0,1.612-1.613V59.425A1.612,1.612,0,0,0,66,57.813H4.738a1.612,1.612,0,0,0-1.613,1.612V91.669A1.613,1.613,0,0,0,4.738,93.281Zm9.673,1.612a3.224,3.224,0,1,1,3.224-3.224A3.224,3.224,0,0,1,14.411,94.893Zm38.693,0a3.224,3.224,0,1,1,3.224-3.224A3.224,3.224,0,0,1,53.1,94.893ZM64.389,73.935h-12.9V67.486h12.9Zm0-12.9v3.224H49.879a1.612,1.612,0,0,0-1.613,1.612v9.673a1.613,1.613,0,0,0,1.613,1.613H64.389v3.224H61.164v3.224h3.224v6.449H59.323a6.419,6.419,0,0,0-12.441,0H20.631a6.419,6.419,0,0,0-12.441,0H6.349V83.608H9.574V80.384H6.349V77.159h4.837A1.613,1.613,0,0,0,12.8,75.547V65.873a1.612,1.612,0,0,0-1.612-1.612H6.349V61.037ZM6.349,67.486H9.574v6.449H6.349Z" transform="translate(0 1.74)" fill="#f29131"/>
  </g>
</svg>
