<svg id="Group_5169" data-name="Group 5169" xmlns="http://www.w3.org/2000/svg" width="75.799" height="72.482" viewBox="0 0 75.799 72.482">
  <path id="Path_315" data-name="Path 315" d="M17.59-18.4H13.177a1.109,1.109,0,0,1-1.07-1.17v-9.142a1.109,1.109,0,0,1,1.07-1.17H17.59a1.109,1.109,0,0,1,1.07,1.17v9.142A1.131,1.131,0,0,1,17.59-18.4Zm-3.343-2.34h2.24v-6.8h-2.24Z" transform="translate(15.957 34.693)" fill="#29b5ba" fill-rule="evenodd"/>
  <path id="Path_316" data-name="Path 316" d="M25.8-14.72H7.278a1.054,1.054,0,0,1-1.162-.936V-22.97a1.054,1.054,0,0,1,1.162-.936H25.763a1.054,1.054,0,0,1,1.162.936v7.314C26.962-15.159,26.417-14.72,25.8-14.72Zm-17.323-1.9H24.638v-5.412H8.477Z" transform="translate(7.927 42.704)" fill="#29b5ba" fill-rule="evenodd"/>
  <path id="Path_317" data-name="Path 317" d="M33.557-7.4H1.274A1.149,1.149,0,0,1,.116-8.571v-9.142a1.149,1.149,0,0,1,1.158-1.17H33.521a1.149,1.149,0,0,1,1.158,1.17v9.142A1.12,1.12,0,0,1,33.557-7.4ZM2.468-9.741H32.4v-6.8H2.468Z" transform="translate(-0.116 49.437)" fill="#29b5ba" fill-rule="evenodd"/>
  <path id="Path_318" data-name="Path 318" d="M29.815-1.4H4.284a1.154,1.154,0,0,1-1.167-1.17v-9.142a1.154,1.154,0,0,1,1.167-1.17H29.815a1.154,1.154,0,0,1,1.167,1.17v9.142A1.2,1.2,0,0,1,29.815-1.4ZM5.451-3.777H28.612v-6.765H5.451Z" transform="translate(3.906 57.479)" fill="#29b5ba" fill-rule="evenodd"/>
  <path id="Path_319" data-name="Path 319" d="M24.454-18.4H18.569a1.3,1.3,0,0,1-1.426-1.17v-9.142a1.3,1.3,0,0,1,1.426-1.17h5.884a1.3,1.3,0,0,1,1.427,1.17v9.142A1.3,1.3,0,0,1,24.454-18.4ZM20-20.741h2.987v-6.8H20Z" transform="translate(24.156 34.693)" fill="#29b5ba" fill-rule="evenodd"/>
  <path id="Path_320" data-name="Path 320" d="M36.763-14.72H18.278a1.054,1.054,0,0,1-1.162-.936V-22.97a1.054,1.054,0,0,1,1.162-.936H36.763a1.054,1.054,0,0,1,1.162.936v7.314A1.074,1.074,0,0,1,36.763-14.72Zm-17.323-1.9H35.6v-5.412H19.441Z" transform="translate(24.121 42.704)" fill="#29b5ba" fill-rule="evenodd"/>
  <path id="Path_321" data-name="Path 321" d="M50.521-7.4H18.274a1.149,1.149,0,0,1-1.158-1.17v-9.142a1.149,1.149,0,0,1,1.158-1.17H50.521a1.149,1.149,0,0,1,1.158,1.17v9.142A1.149,1.149,0,0,1,50.521-7.4ZM19.432-9.741h29.93v-6.8H19.432Z" transform="translate(24.12 49.437)" fill="#29b5ba" fill-rule="evenodd"/>
  <path id="Path_322" data-name="Path 322" d="M43.815-1.4H18.284a1.154,1.154,0,0,1-1.167-1.17v-9.142a1.154,1.154,0,0,1,1.167-1.17H43.815a1.154,1.154,0,0,1,1.167,1.17v9.142A1.177,1.177,0,0,1,43.815-1.4ZM19.451-3.777H42.612v-6.765H19.451Z" transform="translate(24.121 57.479)" fill="#29b5ba" fill-rule="evenodd"/>
  <path id="Path_323" data-name="Path 323" d="M21.537,2.28H10.268a1.047,1.047,0,0,1-1.152-.936V-5.97a1.047,1.047,0,0,1,1.152-.936H21.5a1.047,1.047,0,0,1,1.152.936V1.344C22.69,1.87,22.149,2.28,21.537,2.28ZM11.456.378h8.893V-5.034H11.456Z" transform="translate(11.947 65.49)" fill="#29b5ba" fill-rule="evenodd"/>
  <path id="Path_324" data-name="Path 324" d="M29.5,2.28H18.268a1.047,1.047,0,0,1-1.152-.936V-5.97a1.047,1.047,0,0,1,1.152-.936H29.5a1.047,1.047,0,0,1,1.152.936V1.344A1.047,1.047,0,0,1,29.5,2.28ZM19.42.378h8.893V-5.034H19.42Z" transform="translate(24.119 65.49)" fill="#29b5ba" fill-rule="evenodd"/>
  <path id="Path_325" data-name="Path 325" d="M71.5,38.323H37.7v-69.15a1.1,1.1,0,0,0-1.116-1.111,1.1,1.1,0,0,0-1.116,1.111v69.15H1.178a1.111,1.111,0,1,0,0,2.222H71.5a1.111,1.111,0,1,0,0-2.222Z" transform="translate(1.262 31.938)" fill="#29b5ba" fill-rule="evenodd"/>
</svg>
