<svg xmlns="http://www.w3.org/2000/svg" width="73.15" height="73.148" viewBox="0 0 73.15 73.148">
  <g id="Group_5461" data-name="Group 5461" transform="translate(-5 -5.001)">
    <path id="Path_3129" data-name="Path 3129" d="M62.495,49.733a7.607,7.607,0,0,1,5.633,2.537c.127.137.25.282.369.429a1.4,1.4,0,0,0,1.97.267,1.5,1.5,0,0,0,.128-.11,1.718,1.718,0,0,0,.145-2.281c-.163-.2-.333-.4-.508-.591A10.449,10.449,0,0,0,62.494,46.5C56.83,46.5,52.156,51.2,51.6,57.2H47.9a1.46,1.46,0,0,0,0,2.91h3.648v2.841H47.9a1.46,1.46,0,0,0,0,2.911h3.7c.552,6,5.225,10.705,10.889,10.705A10.581,10.581,0,0,0,70.739,72.5a1.716,1.716,0,0,0-.144-2.281,1.407,1.407,0,0,0-1.989.028,1.491,1.491,0,0,0-.11.128,7.7,7.7,0,0,1-6,2.967A8.232,8.232,0,0,1,54.6,65.867h9.262a1.46,1.46,0,0,0,0-2.911h-9.34V60.115h9.34a1.46,1.46,0,0,0,0-2.91H54.6A8.233,8.233,0,0,1,62.495,49.733Z" transform="translate(-7.782 -7.769)" fill="#6ac6f1"/>
    <path id="Path_3130" data-name="Path 3130" d="M59.383,35A24.383,24.383,0,1,0,83.767,59.382,24.383,24.383,0,0,0,59.383,35Zm0,44.634a20.25,20.25,0,1,1,20.25-20.25h0a20.272,20.272,0,0,1-20.25,20.25Z" transform="translate(-5.617 -5.616)" fill="#6ac6f1"/>
    <path id="Path_3131" data-name="Path 3131" d="M30.6,78.148a56.756,56.756,0,0,0,8.931-.7,27.769,27.769,0,0,1-4.641-3.519c-1.364.1-2.793.16-4.29.16-13.345,0-21.539-4.383-21.539-7.526V60.551A19.508,19.508,0,0,0,11.9,62.159c4.352,2.037,10.439,3.276,16.912,3.47a27.5,27.5,0,0,1-1.577-4.147,38.881,38.881,0,0,1-13.612-3c-2.854-1.337-4.56-2.985-4.56-4.41v-6.01A19.508,19.508,0,0,0,11.9,49.666,42.19,42.19,0,0,0,26.152,53a27.634,27.634,0,0,1,.41-4.051,38.154,38.154,0,0,1-12.939-2.959c-2.854-1.337-4.56-2.986-4.56-4.41V35.567A19.536,19.536,0,0,0,11.9,37.172c4.488,2.109,10.828,3.366,17.542,3.5a27.684,27.684,0,0,1,2.707-4.084c-.514.014-1.025.033-1.544.033-6.565,0-12.752-1.139-16.98-3.124-2.854-1.337-4.559-2.985-4.559-4.41v-6.01c4.86,3.352,13.368,5.113,21.539,5.113s16.678-1.761,21.539-5.113v3.11c.538-.032,1.079-.052,1.626-.052.822,0,1.634.043,2.438.114V16.591C56.2,9.063,43.013,5,30.6,5S5,9.063,5,16.591V66.558C5,74.086,18.191,78.148,30.6,78.148Zm0-69.083c13.345,0,21.539,4.385,21.539,7.53S43.948,24.123,30.6,24.123,9.064,19.738,9.064,16.594s8.194-7.53,21.539-7.53Z" fill="#6ac6f1"/>
  </g>
</svg>
