<svg xmlns="http://www.w3.org/2000/svg" width="90.945" height="105.749" viewBox="0 0 90.945 105.749">
  <g id="Group_5460" data-name="Group 5460" transform="translate(-828.937 -484.357)">
    <path id="Path_3110" data-name="Path 3110" d="M865.753,501.335l-.086,0-.084,0c-.244,0-.483.026-.725.034h1.619C866.235,501.362,866,501.337,865.753,501.335Z" transform="translate(8.746 4.133)" fill="#a44993"/>
    <path id="Path_3111" data-name="Path 3111" d="M866.814,501.369c-.415-.022-.826-.032-1.236-.034.242,0,.481.026.724.034Z" transform="translate(8.921 4.134)" fill="#a44993"/>
    <path id="Path_3112" data-name="Path 3112" d="M865.531,501.333h-.022l.086,0Z" transform="translate(8.904 4.133)" fill="#a44993"/>
    <path id="Path_3113" data-name="Path 3113" d="M887.662,559.734a5,5,0,0,0-3.983-4.9l-.367-.077v-4.435a11.4,11.4,0,0,1,3.57-8.142,23.824,23.824,0,0,0-15.894-40.821H869.37a23.82,23.82,0,0,0-15.893,40.821,11.4,11.4,0,0,1,3.569,8.142v4.435l-.4.088a4.975,4.975,0,0,0-2.616,8.3l.3.316-.3.315a4.952,4.952,0,0,0,0,6.829l.3.315-.3.315a4.98,4.98,0,0,0,3.626,8.406h5.027l.078.361a7.575,7.575,0,0,0,14.8,0l.078-.361h5.027a4.979,4.979,0,0,0,3.625-8.406l-.3-.315.3-.315a4.949,4.949,0,0,0,0-6.829l-.3-.315.3-.316A4.963,4.963,0,0,0,887.662,559.734Zm-32.431-19.34a21.32,21.32,0,0,1,13.814-36.506h0c.375-.019.755,0,1.133,0s.757-.014,1.133,0h0a21.315,21.315,0,0,1,13.813,36.506,13.9,13.9,0,0,0-4.326,9.942v4.407H859.557v-4.407A13.9,13.9,0,0,0,855.231,540.395Zm19.627,39.856a5.045,5.045,0,0,1-9.366,0l-.252-.63h9.872Zm7.824-3.155H857.668a2.468,2.468,0,1,1,0-4.935h25.014a2.468,2.468,0,0,1,0,4.935Zm0-7.447H857.668a2.468,2.468,0,1,1,0-4.935h25.014a2.468,2.468,0,0,1,0,4.935Zm0-7.458H857.668a2.468,2.468,0,1,1,0-4.935h25.014a2.468,2.468,0,0,1,0,4.935Z" transform="translate(4.234 4.14)" fill="#a44993"/>
    <path id="Path_3114" data-name="Path 3114" d="M864.447,501.369h.511c.242-.008.481-.032.725-.034C865.273,501.336,864.861,501.346,864.447,501.369Z" transform="translate(8.646 4.134)" fill="#a44993"/>
    <path id="Path_3115" data-name="Path 3115" d="M865.5,501.333l-.062,0,.084,0Z" transform="translate(8.888 4.133)" fill="#a44993"/>
    <path id="Path_3117" data-name="Path 3117" d="M884.944,538.58a1.261,1.261,0,0,0-.9-.372h-.006a1.228,1.228,0,0,0-.879.369,1.26,1.26,0,0,0-.375.905,1.228,1.228,0,0,0,.369.879l8.507,8.518a1.306,1.306,0,0,0,1.783,0,1.263,1.263,0,0,0,.373-.9,1.23,1.23,0,0,0-.37-.879Z" transform="translate(13.111 13.111)" fill="#a44993"/>
    <path id="Path_3118" data-name="Path 3118" d="M884.944,505.431l8.5-8.5a1.261,1.261,0,0,0,.373-.9,1.232,1.232,0,0,0-.37-.879l0,0a1.26,1.26,0,0,0-.9-.373h-.006a1.23,1.23,0,0,0-.879.371l-8.505,8.505a1.253,1.253,0,0,0-.373.9,1.228,1.228,0,0,0,.369.879A1.3,1.3,0,0,0,884.944,505.431Z" transform="translate(13.111 2.536)" fill="#a44993"/>
    <path id="Path_3119" data-name="Path 3119" d="M903.665,519.911H891.628a1.262,1.262,0,0,0,0,2.523h12.037a1.262,1.262,0,0,0,0-2.523Z" transform="translate(14.956 8.656)" fill="#a44993"/>
    <path id="Path_3120" data-name="Path 3120" d="M865.753,498.916a1.263,1.263,0,0,0,1.262-1.261V485.618a1.261,1.261,0,0,0-2.523,0v12.037A1.263,1.263,0,0,0,865.753,498.916Z" transform="translate(8.657)" fill="#a44993"/>
    <path id="Path_3121" data-name="Path 3121" d="M864.564,503.394h0Z" transform="translate(8.674 4.635)" fill="#a44993"/>
    <path id="Path_3122" data-name="Path 3122" d="M865.509,503.39c.378,0,.752-.015,1.133,0C866.266,503.376,865.887,503.39,865.509,503.39Z" transform="translate(8.904 4.633)" fill="#a44993"/>
    <path id="Path_3123" data-name="Path 3123" d="M864.6,503.395c.38-.02.756,0,1.133,0C865.353,503.39,864.974,503.376,864.6,503.395Z" transform="translate(8.682 4.633)" fill="#a44993"/>
    <path id="Path_3124" data-name="Path 3124" d="M866.864,503.395c-.38-.02-.755,0-1.133,0s-.752-.015-1.133,0h2.266Z" transform="translate(8.682 4.633)" fill="#a44993"/>
    <path id="Path_3125" data-name="Path 3125" d="M866.464,503.394h0Z" transform="translate(9.126 4.635)" fill="#a44993"/>
    <path id="Path_3126" data-name="Path 3126" d="M849.129,538.208h-.005a1.261,1.261,0,0,0-.9.372l-8.507,8.518a1.228,1.228,0,0,0-.369.879,1.254,1.254,0,0,0,.373.9,1.306,1.306,0,0,0,1.783,0l8.505-8.518a1.229,1.229,0,0,0,.371-.879,1.266,1.266,0,0,0-.376-.905A1.231,1.231,0,0,0,849.129,538.208Z" transform="translate(2.536 13.111)" fill="#a44993"/>
    <path id="Path_3127" data-name="Path 3127" d="M848.229,505.431a1.293,1.293,0,0,0,1.786,0,1.229,1.229,0,0,0,.371-.879,1.259,1.259,0,0,0-.373-.9l-8.505-8.505a1.232,1.232,0,0,0-.88-.371h-.005a1.26,1.26,0,0,0-.9.373l0,0a1.23,1.23,0,0,0-.369.879,1.252,1.252,0,0,0,.373.9Z" transform="translate(2.536 2.536)" fill="#a44993"/>
    <path id="Path_3128" data-name="Path 3128" d="M843.5,521.173a1.263,1.263,0,0,0-1.262-1.262H830.2a1.262,1.262,0,1,0,0,2.523h12.036A1.263,1.263,0,0,0,843.5,521.173Z" transform="translate(0 8.656)" fill="#a44993"/>
  </g>
</svg>
