<svg id="Group_4898" data-name="Group 4898" xmlns="http://www.w3.org/2000/svg" width="31.11" height="33.331" viewBox="0 0 31.11 33.331">
  <path id="Path_2600" data-name="Path 2600" d="M28.889-10.914a1.857,1.857,0,0,0-1.523.795c-.021,0-.021-.021-.042-.021l-8.492-2.718a3.127,3.127,0,0,0,.042-.439,3.172,3.172,0,0,0-.209-1.108l9.306-5.437.042-.042a1.841,1.841,0,0,0,1.314.544,1.872,1.872,0,0,0,1.878-1.882A1.872,1.872,0,0,0,29.327-23.1a1.872,1.872,0,0,0-1.878,1.882,2.839,2.839,0,0,0,.042.418c-.021,0-.063.021-.083.021L18.1-15.347a3.02,3.02,0,0,0-1.21-.9L18.5-23.419a1.872,1.872,0,0,0,1.753-1.861,1.872,1.872,0,0,0-1.878-1.882A1.872,1.872,0,0,0,16.5-25.28a1.9,1.9,0,0,0,.939,1.631l-1.481,6.566L15.243-27.2c0-.021-.021-.042-.021-.063a1.887,1.887,0,0,0,1.21-1.756A1.872,1.872,0,0,0,14.555-30.9a1.872,1.872,0,0,0-1.878,1.882,1.881,1.881,0,0,0,1.481,1.84v.063l.772,10.727a2.974,2.974,0,0,0-1.022.439l-3.151-3.22a1.837,1.837,0,0,0,.23-.878,1.872,1.872,0,0,0-1.878-1.882,1.872,1.872,0,0,0-1.878,1.882A1.872,1.872,0,0,0,9.109-18.17a1.826,1.826,0,0,0,.876-.23l3.088,3.22a3.173,3.173,0,0,0-.584,1.422l-8.722.23H3.747A1.876,1.876,0,0,0,1.973-14.8,1.872,1.872,0,0,0,.1-12.922,1.872,1.872,0,0,0,1.973-11.04a1.9,1.9,0,0,0,1.815-1.38h.021l8.722-.23a3.186,3.186,0,0,0,.334.878L4.185-4.934c-.042.042-.063.084-.1.125a1.889,1.889,0,0,0-1.064-.335A1.872,1.872,0,0,0,1.139-3.261,1.872,1.872,0,0,0,3.016-1.38,1.872,1.872,0,0,0,4.894-3.261a2.177,2.177,0,0,0-.146-.732l.125-.063,8.68-6.838a1.2,1.2,0,0,1,.167.146L10.737-5.122a1.618,1.618,0,0,0-.334-.042A1.872,1.872,0,0,0,8.525-3.282,1.872,1.872,0,0,0,10.4-1.4a1.872,1.872,0,0,0,1.878-1.882,1.832,1.832,0,0,0-.563-1.338l2.963-5.625c.083.021.146.042.23.063l-.584,8.824V-1.3A1.884,1.884,0,0,0,12.865.544a1.878,1.878,0,1,0,2.525-1.756c0-.021.021-.042.021-.063l.584-8.845a3.2,3.2,0,0,0,1.627-.648l7.741,7a.158.158,0,0,0,.083.042,1.907,1.907,0,0,0-.209.836A1.872,1.872,0,0,0,27.116-1a1.872,1.872,0,0,0,1.878-1.882,1.872,1.872,0,0,0-1.878-1.882,1.9,1.9,0,0,0-.96.272c-.021-.021-.042-.063-.063-.084l-7.72-7a2.284,2.284,0,0,0,.125-.23L26.99-9.1h.021v.063a1.872,1.872,0,0,0,1.878,1.882,1.872,1.872,0,0,0,1.878-1.882A1.9,1.9,0,0,0,28.889-10.914ZM29.327-22a.771.771,0,0,1,.772.774.785.785,0,0,1-.772.774.771.771,0,0,1-.772-.774A.771.771,0,0,1,29.327-22ZM3-2.488a.771.771,0,0,1-.772-.774A.785.785,0,0,1,3-4.035a.785.785,0,0,1,.772.774A.771.771,0,0,1,3-2.488Zm7.386,0a.771.771,0,0,1-.772-.774.785.785,0,0,1,.772-.774.785.785,0,0,1,.772.774A.771.771,0,0,1,10.382-2.488Zm16.734-1.15a.771.771,0,0,1,.772.774.771.771,0,0,1-.772.774.771.771,0,0,1-.772-.774A.785.785,0,0,1,27.116-3.638Zm-9.348-9.639a2.1,2.1,0,0,1-2.107,2.112,2.1,2.1,0,0,1-2.107-2.112,2.1,2.1,0,0,1,2.107-2.112A2.091,2.091,0,0,1,17.768-13.277ZM18.352-26.1a.771.771,0,0,1,.772.774.785.785,0,0,1-.772.774.771.771,0,0,1-.772-.774A.785.785,0,0,1,18.352-26.1Zm-4.59-2.927a.771.771,0,0,1,.772-.774.8.8,0,0,1,.793.774.785.785,0,0,1-.772.774A.789.789,0,0,1,13.762-29.023ZM9.109-19.278a.771.771,0,0,1-.772-.774.785.785,0,0,1,.772-.774.785.785,0,0,1,.772.774A.771.771,0,0,1,9.109-19.278ZM1.973-12.127A.771.771,0,0,1,1.2-12.9a.789.789,0,0,1,.772-.795.785.785,0,0,1,.772.774A.776.776,0,0,1,1.973-12.127ZM14.743,1.318a.774.774,0,0,1,0-1.547.785.785,0,0,1,.772.774A.758.758,0,0,1,14.743,1.318ZM28.889-8.238a.771.771,0,0,1-.772-.774.771.771,0,0,1,.772-.774.785.785,0,0,1,.772.774A.785.785,0,0,1,28.889-8.238Z" transform="translate(-0.095 30.904)" fill="#fff" fill-rule="evenodd"/>
</svg>
