<svg xmlns="http://www.w3.org/2000/svg" xmlns:xlink="http://www.w3.org/1999/xlink" width="14.578" height="10.5" viewBox="0 0 14.578 10.5">
  <defs>
    <clipPath id="clip-path">
      <path id="Path_197" data-name="Path 197" d="M1.082-11.85v8.7H13.859v-8.7Zm-.15-.9H14.009a.75.75,0,0,1,.75.75v9a.75.75,0,0,1-.75.75H.932A.75.75,0,0,1,.182-3v-9A.75.75,0,0,1,.932-12.75Z" fill="none"/>
    </clipPath>
    <clipPath id="clip-path-2">
      <path id="Path_199" data-name="Path 199" d="M7.513-6.89l-6.3-5.45-.589.681L7.5-5.71l7.154-5.944-.575-.692Z" fill="none"/>
    </clipPath>
  </defs>
  <g id="Group_293" data-name="Group 293" transform="translate(-0.182 12.75)">
    <g id="Group_291" data-name="Group 291" clip-path="url(#clip-path)">
      <path id="Path_196" data-name="Path 196" d="M-4.818,2.75H19.759v-20.5H-4.818Z" fill="#802437"/>
    </g>
    <g id="Group_292" data-name="Group 292" clip-path="url(#clip-path-2)">
      <path id="Path_198" data-name="Path 198" d="M-4.373-.71H19.656V-17.346H-4.373Z" fill="#802437"/>
    </g>
  </g>
</svg>
