<svg xmlns="http://www.w3.org/2000/svg" xmlns:xlink="http://www.w3.org/1999/xlink" width="14.7" height="13.499" viewBox="0 0 14.7 13.499">
  <defs>
    <clipPath id="clip-path">
      <path id="Path_201" data-name="Path 201" d="M7.9-7.684A13.208,13.208,0,0,0,9.161-8.879l.031-.036a1.835,1.835,0,0,1-.679-1.168,1.1,1.1,0,0,1,0-.353,10.462,10.462,0,0,1,1.919-3.255,1.536,1.536,0,0,1,1.785-.457,3.953,3.953,0,0,1,2.627,3.262l0,.091c-.092,1.845-1.675,4.173-4.224,6.3l-.875.731C7.437-1.835,5.2-.751,3.456-.75a3.761,3.761,0,0,1-.6-.046,3.872,3.872,0,0,1-2.7-3.54A1.5,1.5,0,0,1,1.009-5.8a10,10,0,0,1,3.4-1.241.924.924,0,0,1,.385.058,1.808,1.808,0,0,1,.81.609,2.348,2.348,0,0,1,.168.25l.05-.021a7.419,7.419,0,0,0,1.418-.988ZM1.435-5.007l-.044.022c-.2.087-.342.267-.341.649A3.03,3.03,0,0,0,3-1.684a2.864,2.864,0,0,0,.459.034c1.491,0,3.552-1,5.717-2.8l.875-.731c2.375-1.983,3.825-4.116,3.9-5.643l0-.068a3.1,3.1,0,0,0-2-2.395c-.4-.126-.676-.039-.772.11l-.034.046a10.321,10.321,0,0,0-1.738,2.85.28.28,0,0,0,0,.07,1.091,1.091,0,0,0,.443.679c.286.263.354.344.362.568a.582.582,0,0,1,0,.067l0,.065-.023.061A6.714,6.714,0,0,1,8.478-7l-.664.556c-1.555,1.273-2.341,1.617-2.749.9a2.133,2.133,0,0,0-.177-.281.918.918,0,0,0-.41-.313A9.372,9.372,0,0,0,1.435-5.007Z" fill="none"/>
    </clipPath>
  </defs>
  <g id="Group_295" data-name="Group 295" transform="translate(-0.15 14.249)">
    <g id="Group_294" data-name="Group 294" clip-path="url(#clip-path)">
      <path id="Path_200" data-name="Path 200" d="M-4.85,4.25h24.7v-23.5H-4.85Z" fill="#802437"/>
    </g>
  </g>
</svg>
