<svg xmlns="http://www.w3.org/2000/svg" xmlns:xlink="http://www.w3.org/1999/xlink" width="62" height="62" viewBox="0 0 62 62">
  <defs>
    <clipPath id="clip-path">
      <path id="Path_208" data-name="Path 208" d="M21.357-23H1.638A1.65,1.65,0,0,0,0-21.342V-1.658A1.65,1.65,0,0,0,1.638,0H21.357A1.654,1.654,0,0,0,23-1.658V-21.342A1.654,1.654,0,0,0,21.357-23ZM6.951-3.286H3.542V-14.262H6.956V-3.286Zm-1.7-12.475A1.977,1.977,0,0,1,3.27-17.738a1.977,1.977,0,0,1,1.977-1.977,1.981,1.981,0,0,1,1.977,1.977,1.974,1.974,0,0,1-1.977,1.977ZM19.73-3.286H16.321V-8.625c0-1.273-.026-2.911-1.771-2.911-1.776,0-2.048,1.386-2.048,2.819v5.432H9.092V-14.262h3.27v1.5h.046a3.591,3.591,0,0,1,3.229-1.771c3.45,0,4.092,2.274,4.092,5.231v6.017Z" fill="none"/>
    </clipPath>
    <clipPath id="clip-path-2">
      <path id="Path_207" data-name="Path 207" d="M-200,3573H1240V-1415H-200Z" fill="none"/>
    </clipPath>
  </defs>
  <g id="Group_321" data-name="Group 321" transform="translate(-181 -1544)">
    <g id="Ellipse_6" data-name="Ellipse 6" transform="translate(181 1544)" fill="none" stroke="#c3b6ba" stroke-width="1">
      <circle cx="31" cy="31" r="31" stroke="none"/>
      <circle cx="31" cy="31" r="30.5" fill="none"/>
    </g>
    <g id="Group_312" data-name="Group 312" transform="translate(201 1587)">
      <g id="Group_311" data-name="Group 311" clip-path="url(#clip-path)">
        <g id="Group_310" data-name="Group 310" clip-path="url(#clip-path-2)">
          <path id="Path_206" data-name="Path 206" d="M-5,5H28V-28H-5Z" fill="#c3b6ba"/>
        </g>
      </g>
    </g>
  </g>
</svg>
