<svg xmlns="http://www.w3.org/2000/svg" width="134.014" height="136.584" viewBox="0 0 134.014 136.584">
  <g id="Group_2379" data-name="Group 2379" transform="translate(-2225.055 -183.503)">
    <g id="Group_3" data-name="Group 3">
      <path id="Path_3" data-name="Path 3" d="M2265.206,267.349a1.2,1.2,0,0,0,1.2-1.2v-2.509a1.2,1.2,0,1,0-2.41,0v2.509A1.2,1.2,0,0,0,2265.206,267.349Z" fill="#a8eaed"/>
      <path id="Path_4" data-name="Path 4" d="M2271.414,267.349a1.2,1.2,0,0,0,1.2-1.2v-2.509a1.2,1.2,0,1,0-2.41,0v2.509A1.2,1.2,0,0,0,2271.414,267.349Z" fill="#a8eaed"/>
      <path id="Path_5" data-name="Path 5" d="M2277.62,267.349a1.2,1.2,0,0,0,1.2-1.2v-2.509a1.2,1.2,0,1,0-2.41,0v2.509A1.2,1.2,0,0,0,2277.62,267.349Z" fill="#a8eaed"/>
      <path id="Path_6" data-name="Path 6" d="M2265.206,277.61a1.2,1.2,0,0,0,1.2-1.2V273.9a1.2,1.2,0,1,0-2.41,0V276.4A1.2,1.2,0,0,0,2265.206,277.61Z" fill="#a8eaed"/>
      <path id="Path_7" data-name="Path 7" d="M2271.414,277.61a1.2,1.2,0,0,0,1.2-1.2V273.9a1.2,1.2,0,1,0-2.41,0V276.4A1.2,1.2,0,0,0,2271.414,277.61Z" fill="#a8eaed"/>
      <path id="Path_8" data-name="Path 8" d="M2277.62,277.61a1.2,1.2,0,0,0,1.2-1.2V273.9a1.2,1.2,0,1,0-2.41,0V276.4A1.2,1.2,0,0,0,2277.62,277.61Z" fill="#a8eaed"/>
      <path id="Path_9" data-name="Path 9" d="M2265.206,287.873a1.2,1.2,0,0,0,1.2-1.2v-2.509a1.2,1.2,0,1,0-2.41,0v2.509A1.205,1.205,0,0,0,2265.206,287.873Z" fill="#a8eaed"/>
      <path id="Path_10" data-name="Path 10" d="M2271.414,287.873a1.2,1.2,0,0,0,1.2-1.2v-2.509a1.2,1.2,0,1,0-2.41,0v2.509A1.205,1.205,0,0,0,2271.414,287.873Z" fill="#a8eaed"/>
      <path id="Path_11" data-name="Path 11" d="M2277.62,287.873a1.2,1.2,0,0,0,1.2-1.2v-2.509a1.2,1.2,0,1,0-2.41,0v2.509A1.205,1.205,0,0,0,2277.62,287.873Z" fill="#a8eaed"/>
      <path id="Path_12" data-name="Path 12" d="M2265.206,298.134a1.2,1.2,0,0,0,1.2-1.205V294.42a1.2,1.2,0,1,0-2.41,0v2.509A1.205,1.205,0,0,0,2265.206,298.134Z" fill="#a8eaed"/>
      <path id="Path_13" data-name="Path 13" d="M2271.414,298.134a1.2,1.2,0,0,0,1.2-1.205V294.42a1.2,1.2,0,1,0-2.41,0v2.509A1.205,1.205,0,0,0,2271.414,298.134Z" fill="#a8eaed"/>
      <path id="Path_14" data-name="Path 14" d="M2277.62,298.134a1.2,1.2,0,0,0,1.2-1.205V294.42a1.2,1.2,0,1,0-2.41,0v2.509A1.205,1.205,0,0,0,2277.62,298.134Z" fill="#a8eaed"/>
      <path id="Path_15" data-name="Path 15" d="M2265.206,308.4a1.2,1.2,0,0,0,1.2-1.2v-2.509a1.2,1.2,0,1,0-2.41,0v2.509A1.205,1.205,0,0,0,2265.206,308.4Z" fill="#a8eaed"/>
      <path id="Path_16" data-name="Path 16" d="M2271.414,308.4a1.2,1.2,0,0,0,1.2-1.2v-2.509a1.2,1.2,0,1,0-2.41,0v2.509A1.205,1.205,0,0,0,2271.414,308.4Z" fill="#a8eaed"/>
      <path id="Path_17" data-name="Path 17" d="M2277.62,308.4a1.2,1.2,0,0,0,1.2-1.2v-2.509a1.2,1.2,0,1,0-2.41,0v2.509A1.205,1.205,0,0,0,2277.62,308.4Z" fill="#a8eaed"/>
      <path id="Path_18" data-name="Path 18" d="M2320.257,317.677h-5.444V285.413a1.205,1.205,0,0,0-1.205-1.2h-6.17V224.886a1.2,1.2,0,0,0-1.205-1.205h-27.411a1.2,1.2,0,0,0-1.205,1.205v26.833l-10.96-5.706V230.792a1.2,1.2,0,0,0-1.206-1.205h-25.893a1.2,1.2,0,0,0-1.205,1.205V273.8h-5.745a1.2,1.2,0,0,0-1.2,1.205v42.671h-5.143a1.205,1.205,0,1,0,0,2.41h94a1.205,1.205,0,0,0,0-2.41Zm-63.266,0h-23.176v-6.7h23.176Zm0-9.111h-23.176v-6.589h23.176Zm0-9h-23.176v-6.59h23.176Zm0-9h-23.176V284.4h23.176Zm0-8.573h-23.176v-5.783h23.176Zm.579-40.058a1.2,1.2,0,0,0-.579,1.031V273.8h-16.228V232h23.483v12.762l-5.5-2.861A1.206,1.206,0,0,0,2257.57,241.936Zm26.83,75.741h-25V244.953l25,13.016Zm1.762-61.51-6.135-3.193V226.091h25v58.117H2286.81V257.237A1.207,1.207,0,0,0,2286.162,256.167Zm18.943,61.51h-11.373V305.61a5.688,5.688,0,1,1,11.373,0Zm7.3,0h-4.889V305.61a8.1,8.1,0,1,0-16.193,0v12.067h-4.511V286.618H2312.4Z" fill="#a8eaed"/>
    </g>
    <g id="Group_5" data-name="Group 5">
      <g id="Group_4" data-name="Group 4">
        <path id="Path_19" data-name="Path 19" d="M2356.428,224.157l-4.433-5-.094-.094a27.362,27.362,0,0,0-25.752-26.033,8.1,8.1,0,0,1,7.924-6.7,1.415,1.415,0,1,0,0-2.83,10.888,10.888,0,0,0-10.754,9.433,27.562,27.562,0,0,0-26.033,26.127c-.095,0-.094.094-.189.094l-4.244,4.906a10.964,10.964,0,0,0-2.642,7.075v33.2a34.665,34.665,0,0,0,6.037,19.525c.095.094.094.189.188.284a34.388,34.388,0,0,0,56.408,0c.094-.1.094-.19.188-.284a33.957,33.957,0,0,0,6.037-19.525V231.232A10.783,10.783,0,0,0,2356.428,224.157Z" fill="#fff"/>
      </g>
      <path id="Path_20" data-name="Path 20" d="M2334.073,183.5a10.888,10.888,0,0,0-10.754,9.433,27.562,27.562,0,0,0-26.033,26.127c-.095,0-.094.094-.188.094l-4.245,4.906a10.964,10.964,0,0,0-2.642,7.075v33.2a34.665,34.665,0,0,0,6.037,19.525c.095.094.094.189.188.283a34.387,34.387,0,0,0,56.408,0c.094-.094.094-.189.188-.283a33.957,33.957,0,0,0,6.037-19.525V231.232a10.779,10.779,0,0,0-2.642-7.075l-4.432-5-.094-.094a27.361,27.361,0,0,0-25.752-26.033,8.1,8.1,0,0,1,7.924-6.7,1.415,1.415,0,1,0,0-2.83Zm-9.433,12.356a24.517,24.517,0,0,1,24.525,24.431,25.005,25.005,0,0,1-1.037,6.979L2324.64,240.1l-23.487-12.734a24.99,24.99,0,0,1-1.038-6.981A24.6,24.6,0,0,1,2324.64,195.859Zm-11.791,20.187a2.358,2.358,0,1,0,2.359,2.358A2.358,2.358,0,0,0,2312.849,216.046Zm23.11,0a2.358,2.358,0,1,0,2.358,2.358A2.358,2.358,0,0,0,2335.959,216.046Zm15.942,7.074,1.225,1.509-1.6.849A17.481,17.481,0,0,0,2351.9,223.12Zm-54.428.094c.1.755.189,1.509.378,2.358l-1.6-.849Zm27.167,2.264a6.132,6.132,0,1,0,6.131,6.132A6.18,6.18,0,0,0,2324.64,225.478Zm-30.278,1.415,27.354,14.809-28.675,15.47v-25.94A7.832,7.832,0,0,1,2294.362,226.893Zm60.557.094a8.148,8.148,0,0,1,1.32,4.433v33.108a31.316,31.316,0,0,1-5.187,17.356h-52.823a31.309,31.309,0,0,1-5.188-17.356v-4.055Zm-30.279,1.321a3.3,3.3,0,1,1-3.3,3.3A3.343,3.343,0,0,1,2324.64,228.308Zm-.943,1.887a1.414,1.414,0,1,0,0,2.829h1.886a1.414,1.414,0,1,0,0-2.829Zm-23.3,54.519h48.482a31.45,31.45,0,0,1-48.482,0Z" fill="#29b5ba"/>
    </g>
  </g>
</svg>
