<svg xmlns="http://www.w3.org/2000/svg" width="176.509" height="141.683" viewBox="0 0 176.509 141.683">
  <g id="Group_129" data-name="Group 129" transform="translate(-60.076 -768.992)">
    <path class="child mountains" id="Path_137" data-name="Path 137" d="M221.762,796.237l13.292,17.325c.506-.457,1.013-.91,1.531-1.352l-32.9-42.879a1.128,1.128,0,0,0-1.618.005l-37.251,48.742-7.977-10.4a1.008,1.008,0,0,0-.807-.365h0a1.008,1.008,0,0,0-.809.366l-13.091,17.129a6.872,6.872,0,0,1,.552,2.627l13.349-17.464,13.489,17.581-4.973,6.6-8.2-7.1a1.01,1.01,0,0,0-1.308-.022l-8.752,7.134-3.726-5.163a18.669,18.669,0,0,1-.636,2.6l3.344,4.632a1.028,1.028,0,0,0,.7.413,1.052,1.052,0,0,0,.771-.218l8.927-7.273,8.38,7.251a.991.991,0,0,0,.759.244,1.032,1.032,0,0,0,.721-.4l5.287-7.019,12.419,16.186a1.018,1.018,0,0,0,1.816-.487,1,1,0,0,0-.2-.749L166.1,819.752l15.907-20.814,7.63,11.005a1.017,1.017,0,0,0,.764.437l.1.005a1,1,0,0,0,.707-.321l10.926-11.583,8.853,10.822a.99.99,0,0,0,.8.371,1.046,1.046,0,0,0,.822-.435Zm-10.04,10.736-8.739-10.682a1.019,1.019,0,0,0-.75-.368.911.911,0,0,0-.777.316L190.6,807.75l-7.289-10.513,19.572-25.609,17.582,22.914Z" fill="#8bccca"/>
    <path class="child building" id="Path_138" data-name="Path 138" d="M62.023,910.675H169.741a1.083,1.083,0,1,0,0-2.164h-3.77V848.647a1.106,1.106,0,0,0-.565-.936,1.143,1.143,0,0,0-1.112-.008l-21.672,12.055V811.511a1.1,1.1,0,0,0-1.118-1.082H97.147a1.1,1.1,0,0,0-1.117,1.082v19.853H75.313a1.175,1.175,0,0,0-.987.553L60.224,855.7a1.014,1.014,0,0,0,0,1.048,1.148,1.148,0,0,0,.975.562H65.25v51.2H62.023a1.083,1.083,0,1,0,0,2.164Zm80.57-48.424,21.142-11.721v57.981h-10.4V890.884a1.1,1.1,0,0,0-1.117-1.082h-9.629Zm0,29.715h8.51v16.545h-8.51Zm-17.926,16.489H112.413V888.388h12.254Zm-26.43-95.862h42.12v95.862H126.874V887.333a1.1,1.1,0,0,0-1.118-1.082H111.295a1.1,1.1,0,0,0-1.118,1.082v21.122H98.237ZM82.969,891.476V908.37H67.485V857.309H96.03V884.18l-1.918-.135c-.281-.024-.552-.048-.823-.048C87.5,884,82.969,887.282,82.969,891.476Zm13.089-5.038V908.37H85.205V891.476c0-2.569,3.1-5.342,8.113-5.342a7.841,7.841,0,0,1,1.17.1ZM63.109,855.146l12.866-21.619H96.03v21.619l-29.674-.01c.028,0-.048.01-.132.01Z" fill="#1d8f9e" fill-rule="evenodd"/>
  </g>
</svg>
