<svg xmlns="http://www.w3.org/2000/svg" width="129.344" height="53.275" viewBox="0 0 129.344 53.275">
  <g id="Group_134" data-name="Group 134" transform="translate(-203.375 -2846.202)">
    <g id="Group_28" data-name="Group 28">
      <path id="Path_34" data-name="Path 34" d="M301.492,2861.925a.7.7,0,0,0-.632.376.8.8,0,0,0,.036.773.677.677,0,0,0,.633.293h3.945a.721.721,0,1,0,0-1.442Z" fill="#FAD3AC"/>
      <path id="Path_35" data-name="Path 35" d="M292.7,2870.765a.721.721,0,0,0,0,1.442h16.7a.721.721,0,0,0,0-1.442Z" fill="#FAD3AC"/>
      <path id="Path_36" data-name="Path 36" d="M324.142,2858h-5.453l-4.766-9.537a6.772,6.772,0,0,0-.834-1.378,2.322,2.322,0,0,0-1.719-.879H285.819a2.316,2.316,0,0,0-1.677.874,7.094,7.094,0,0,0-.93,1.491l-4.723,9.453-.139.018a4.654,4.654,0,0,0-4.052,4.6v8.85c0,.015.008.027.009.042.054-.009.1-.026.16-.031a13.091,13.091,0,0,1,4.947.316c.1.012.193.032.29.044-.011-.126-.038-.247-.038-.376a4.194,4.194,0,1,1,7.654,2.361c.03.013.062.022.091.035a1.655,1.655,0,0,1,.964.952,5.583,5.583,0,0,0,1.114-3.343,5.626,5.626,0,0,0-11.174-.944l-.037.218h-2.54v-8.123a3.172,3.172,0,0,1,3.206-3.206h45.2a7.061,7.061,0,0,1,7.137,7.137v4.192H323.83l-.037-.218a5.625,5.625,0,1,0,0,1.879l.038-.219H332a.721.721,0,0,0,.721-.717v-4.917A8.586,8.586,0,0,0,324.142,2858Zm-24.827,0v-7.137a.72.72,0,1,0-1.44,0V2858H280.111l4.393-8.786a6.4,6.4,0,0,1,.733-1.191c.21-.244.365-.376.583-.376h25.55c.277,0,.392.1.607.364a7.049,7.049,0,0,1,.708,1.211L317.08,2858Zm18.93,17.68a4.189,4.189,0,1,1,4.193-4.184A4.194,4.194,0,0,1,318.245,2875.675Z" fill="#FAD3AC"/>
    </g>
    <g id="Group_29" data-name="Group 29" opacity="0.996" style="isolation: isolate">
      <path id="Path_37" data-name="Path 37" d="M244.519,2876.5a1.062,1.062,0,0,0-.957.568,1.2,1.2,0,0,0,.054,1.169,1.027,1.027,0,0,0,.958.444h5.968a1.09,1.09,0,1,0,0-2.18Z" fill="#F29131"/>
      <path id="Path_38" data-name="Path 38" d="M231.219,2889.87a1.09,1.09,0,0,0,0,2.181h25.272a1.09,1.09,0,0,0,0-2.181Z" fill="#F29131"/>
      <path id="Path_39" data-name="Path 39" d="M269.865,2899.477a8.492,8.492,0,0,0,8.4-7.095l.056-.331h12.355a1.091,1.091,0,0,0,1.091-1.085v-7.439a12.991,12.991,0,0,0-12.977-12.977h-8.249l-7.211-14.429a10.268,10.268,0,0,0-1.262-2.084,3.515,3.515,0,0,0-2.6-1.33H220.806a3.5,3.5,0,0,0-2.538,1.323,10.638,10.638,0,0,0-1.406,2.255l-7.146,14.3-.21.027a7.043,7.043,0,0,0-6.131,6.964v13.39a1.093,1.093,0,0,0,1.085,1.083h4.933l.056.331a8.526,8.526,0,1,0,0-2.843l-.056.331h-3.842v-12.291a4.8,4.8,0,0,1,4.85-4.85h68.382a10.684,10.684,0,0,1,10.8,10.8v6.343H278.314l-.056-.331a8.518,8.518,0,1,0-8.393,9.938Zm-52.024-14.86a6.344,6.344,0,1,1-6.344,6.344A6.351,6.351,0,0,1,217.841,2884.617Zm23.383-14.068v-10.8a1.089,1.089,0,1,0-2.178-.008v10.806H212.169l6.648-13.292a9.6,9.6,0,0,1,1.108-1.8c.317-.369.552-.568.881-.568h38.657c.419,0,.593.159.918.55a10.757,10.757,0,0,1,1.072,1.832l6.648,13.281Zm28.641,14.073a6.339,6.339,0,1,1-6.345,6.346A6.351,6.351,0,0,1,269.865,2884.622Z" fill="#F29131"/>
    </g>
  </g>
</svg>
