<svg xmlns="http://www.w3.org/2000/svg" width="277.598" height="141.13" viewBox="0 0 277.598 141.13">
  <g id="Group_135" data-name="Group 135" transform="translate(-497.543 -2764.882)">
    <g id="Group_19" data-name="Group 19">
      <path id="Path_15" data-name="Path 15" d="M633.019,2764.882a53.132,53.132,0,0,0-11.943,104.905c.047-.054.082-.115.133-.167a4.854,4.854,0,0,1,.236-.474l.773-1a4.9,4.9,0,0,1,1.728-1.114c.063-.075.113-.16.181-.231a49.612,49.612,0,1,1,57.633-39.652,4.233,4.233,0,0,1,3.571.1,53.051,53.051,0,0,0-52.312-62.365Z" fill="#F29131"/>
      <path id="Path_16" data-name="Path 16" d="M633.019,2780.823a1.771,1.771,0,0,1-1.771-1.769v-7.087a1.772,1.772,0,1,1,3.543,0v7.084a1.772,1.772,0,0,1-1.77,1.772Z" fill="#F29131"/>
      <path id="Path_17" data-name="Path 17" d="M660.573,2792.235a1.771,1.771,0,0,1-1.252-3.023l5.009-5.009a1.771,1.771,0,0,1,2.505,2.5l-5.009,5.009A1.764,1.764,0,0,1,660.573,2792.235Z" fill="#F29131"/>
      <path id="Path_18" data-name="Path 18" d="M600.456,2852.352a1.771,1.771,0,0,1-1.252-3.023l5.009-5.009a1.771,1.771,0,0,1,2.5,2.5l-5.009,5.009A1.762,1.762,0,0,1,600.456,2852.352Z" fill="#F29131"/>
      <path id="Path_19" data-name="Path 19" d="M679.071,2819.789h-7.085a1.771,1.771,0,0,1,0-3.542h7.085a1.771,1.771,0,0,1,0,3.542Z" fill="#F29131"/>
      <path id="Path_20" data-name="Path 20" d="M594.053,2819.789h-7.085a1.771,1.771,0,0,1,0-3.542h7.085a1.771,1.771,0,0,1,0,3.542Z" fill="#F29131"/>
      <path id="Path_21" data-name="Path 21" d="M605.465,2792.235a1.764,1.764,0,0,1-1.252-.519l-5.009-5.009a1.771,1.771,0,0,1,2.505-2.505l5.008,5.01a1.771,1.771,0,0,1-1.252,3.023Z" fill="#F29131"/>
    </g>
    <g id="Group_20" data-name="Group 20" class="child">
      <path id="Path_23" data-name="Path 23" d="M544.769,2862.125a1.22,1.22,0,0,0-1.1.653,1.382,1.382,0,0,0,.063,1.342,1.176,1.176,0,0,0,1.1.51h6.851a1.252,1.252,0,0,0,0-2.5Z" fill="#FAD3AC"/>
      <path id="Path_24" data-name="Path 24" d="M529.5,2877.477a1.252,1.252,0,1,0,0,2.5h29.007a1.252,1.252,0,1,0,0-2.5Z" fill="#FAD3AC"/>
      <path id="Path_25" data-name="Path 25" d="M589.461,2877.477h-5.9l-.065-.38a9.767,9.767,0,1,0,0,3.264l.064-.38h3.884A4.547,4.547,0,0,1,589.461,2877.477Zm-15.6,8.527a7.276,7.276,0,1,1,7.28-7.267A7.283,7.283,0,0,1,573.863,2886Z" fill="#FAD3AC"/>
      <path id="Path_26" data-name="Path 26" d="M505.612,2857.8H584.1A12.263,12.263,0,0,1,596.5,2870.2v2.041a4.848,4.848,0,0,1,2.5-.84v-1.2a14.912,14.912,0,0,0-14.9-14.9h-9.469l-8.277-16.562a11.8,11.8,0,0,0-1.448-2.393,4.039,4.039,0,0,0-2.986-1.526H517.551a4.017,4.017,0,0,0-2.913,1.518,12.172,12.172,0,0,0-1.614,2.589l-8.2,16.416-.241.031a8.084,8.084,0,0,0-7.037,7.994v15.369a1.255,1.255,0,0,0,1.246,1.244h5.662l.064.38a9.785,9.785,0,1,0,0-3.264l-.064.38h-4.41v-14.108A5.508,5.508,0,0,1,505.612,2857.8Zm9.656-17.76a11.051,11.051,0,0,1,1.272-2.069c.364-.423.634-.652,1.011-.652h44.372c.481,0,.681.182,1.054.631a12.286,12.286,0,0,1,1.23,2.1l7.632,15.244H540.988v-12.4a1.251,1.251,0,1,0-2.5-.009v12.4h-30.85Zm-1.12,31.405a7.281,7.281,0,1,1-7.282,7.282A7.29,7.29,0,0,1,514.148,2871.447Z" fill="#FAD3AC"/>
    </g>
    <g id="Group_21" data-name="Group 21" class="child">
      <path id="Path_27" data-name="Path 27" d="M675.579,2837.821H716.89a1.5,1.5,0,0,0,0-3H675.579a1.5,1.5,0,0,0,0,3Z" fill="#FAD3AC"/>
      <path id="Path_28" data-name="Path 28" d="M674.469,2862.9H758.24a6.406,6.406,0,0,0,5.806-9.117,5.973,5.973,0,0,0-.731-1.179c-7.564-11.994-21.015-27.233-50.248-27.233H675.579a1.5,1.5,0,0,0,0,3h37.487c11.751,0,20.812,2.594,27.905,6.445H729.549a1.5,1.5,0,0,0,0,3h16.233a57.476,57.476,0,0,1,15.568,17.308,3.375,3.375,0,0,1,.3,1.368,3.411,3.411,0,0,1-3.407,3.407H674.469a1.5,1.5,0,0,0,0,3Z" fill="#FAD3AC"/>
      <path id="Path_29" data-name="Path 29" d="M773.616,2867.138l-116.056,1.627a4.838,4.838,0,0,1,1.26,2.981l114.845-1.608a1.5,1.5,0,0,0,1.476-1.524A1.536,1.536,0,0,0,773.616,2867.138Z" fill="#FAD3AC"/>
    </g>
    <g id="Group_22" data-name="Group 22" opacity="0.996" style="isolation: isolate" class="child">
      <path id="Path_30" data-name="Path 30" d="M662.278,2869.979a17.94,17.94,0,0,0-3.847.425l-5.5-19.5h15.222a1.83,1.83,0,1,1,0,3.661h-5.973a1.06,1.06,0,0,0,0,2.12h5.973a4.047,4.047,0,1,0,0-8.093H650.042l4.286,15.222H626.622l-3.655-13.006h5.494a1.137,1.137,0,0,0,1.059-1.06,1.069,1.069,0,0,0-1.059-1.06H614.587a1.06,1.06,0,1,0,0,2.12h6.079l3.881,13.812-6.044,5.867a24.075,24.075,0,0,0-16.537-6.576,1.06,1.06,0,1,0,0,2.119,21.722,21.722,0,0,1,15.029,5.921l-2.876,2.792a18,18,0,1,0,5.81,14.313h6.047a6.446,6.446,0,0,0,6.338,5.3,6.583,6.583,0,0,0,6.456-6.455,6.2,6.2,0,0,0-7.174-6.383l-4.352-15.487h27.708l1.4,4.974a17.964,17.964,0,1,0,5.926-1.024Zm-48.152,7.736a15.745,15.745,0,0,1,3.774,9.124H604.664Zm-12.064,26.177a15.9,15.9,0,1,1,10.561-27.7l-10.272,9.971a1.619,1.619,0,0,0-.385,1.83,1.563,1.563,0,0,0,1.542,1.06h14.4A15.9,15.9,0,0,1,602.062,2903.892Zm34.492-15.9a4.24,4.24,0,1,1-4.24-4.239A4.277,4.277,0,0,1,636.554,2888Zm-10.588-1.156h-6.042a17.923,17.923,0,0,0-4.308-10.561l3.6-3.469c.029-.013.068-.023.094-.036a.825.825,0,0,0,.085-.137l5.827-5.619,4.248,15.116A6.428,6.428,0,0,0,625.966,2886.839Zm36.312,17.053a15.886,15.886,0,0,1-5.351-30.847l4.291,15.239a1.126,1.126,0,0,0,1.06.771.353.353,0,0,1,.289.1,1.1,1.1,0,0,0,.77-1.349l-4.332-15.362a15.9,15.9,0,1,1,3.273,31.451Z" fill="#FAD3AC"/>
      <path id="Path_31" data-name="Path 31" d="M669.311,2885.009a1.1,1.1,0,0,0-.771,1.349,6.473,6.473,0,0,1-4.625,7.9,6.4,6.4,0,0,1-7.9-4.625,1.1,1.1,0,1,0-2.119.578,8.732,8.732,0,0,0,8.382,6.455,9.353,9.353,0,0,0,2.215-.288,8.666,8.666,0,0,0,6.166-10.6A1.1,1.1,0,0,0,669.311,2885.009Z" fill="#FAD3AC"/>
    </g>
  </g>
</svg>
