<svg xmlns="http://www.w3.org/2000/svg" width="128.328" height="89.406" viewBox="0 0 128.328 89.406">
  <g id="Group_13" data-name="Group 13" transform="translate(-989.575 -2758.65)">
    <rect class="child" id="Rectangle_3" data-name="Rectangle 3" width="22.168" height="2.778" transform="translate(1036.935 2775.024) rotate(-14.302)" fill="#f9eae8"/>
    <rect class="child" id="Rectangle_4" data-name="Rectangle 4" width="52.168" height="2.778" transform="translate(989.575 2808.126) rotate(-14.302)" fill="#f9eae8"/>
    <rect class="child" id="Rectangle_5" data-name="Rectangle 5" width="34.252" height="2.778" transform="translate(1012.282 2824.671) rotate(-14.302)" fill="#f9eae8"/>
    <rect class="child" id="Rectangle_6" data-name="Rectangle 6" width="7.252" height="2.778" transform="translate(1002.495 2827.167) rotate(-14.302)" fill="#f9eae8"/>
    <rect class="child" id="Rectangle_7" data-name="Rectangle 7" width="62.168" height="2.778" transform="translate(1013.586 2845.364) rotate(-14.302)" fill="#f9eae8"/>
    <rect class="child" id="Rectangle_8" data-name="Rectangle 8" width="16.175" height="2.778" transform="translate(1018.499 2779.727) rotate(-14.305)" fill="#f9eae8"/>
    <path class="plane" id="Path_12" data-name="Path 12" d="M1109.321,2795.967c9.13-2.329,8.783-6.656,8.46-7.926a4.318,4.318,0,0,0-2.049-2.668c-1.986-1.179-5.158-1.261-9.174-.238l-14.547,3.707L1067.9,2758.65l-9.448,2.409,17.126,31.974-15.8,4.028-12.416-15.068-6.277,1.6,7.128,16.659c-4.42,1.758-7.813,4.491-7.09,7.333a3.481,3.481,0,0,0,1.708,2.129c1.734,1.029,4.65,1.339,8.028.921l1.718,18.03,6.275-1.6,3.691-19.179,15.794-4.026.273,36.271,9.45-2.409,6.718-38.053Zm-42.475-34.18,21.9,27.422-10.62,2.707-15.554-29.04Zm14.513,74.783-.249-32.943,10.622-2.707-6.1,34.56Zm-35.024-51.447,10.146,12.313-5.82,1.483-5.748-13.434Zm-2.524,21.778c-.2-.79,2.556-3.554,8.577-5.089l54.856-13.986c4.534-1.155,6.454-.43,7.069-.064a1.556,1.556,0,0,1,.776.966c.345,1.355-1.516,3.287-6.455,4.547l-54.857,13.985c-4.637,1.181-8.191.863-9.531.067A.915.915,0,0,1,1043.811,2806.9Zm11.22,18.275-1.387-14.547,5.824-1.485-3.014,15.67Z" fill="#F29131"/>
  </g>
</svg>
