<svg xmlns="http://www.w3.org/2000/svg" width="273.102" height="123.209" viewBox="0 0 273.102 123.209">
  <g id="Group_133" data-name="Group 133" transform="translate(-1804.314 -1363.696)">
    <g id="Group_64" data-name="Group 64">
      <g id="Group_62" data-name="Group 62" class="lorry">
        <path id="Path_73" data-name="Path 73" d="M1953.473,1477.9a2.6,2.6,0,0,0-2.479,1.776,2.454,2.454,0,0,0-.146.85,2.485,2.485,0,0,0,.16.887,2.618,2.618,0,0,0,4.945-.038,2.437,2.437,0,0,0,.146-.849,2.5,2.5,0,0,0-.16-.888A2.6,2.6,0,0,0,1953.473,1477.9Zm1.069,2.971a1.12,1.12,0,0,1-2.122.041,1.024,1.024,0,0,1-.075-.386.983.983,0,0,1,.059-.346,1.12,1.12,0,0,1,2.123-.039,1.032,1.032,0,0,1,.075.385A.949.949,0,0,1,1954.542,1480.87Z" fill="#4d9cce"/>
        <path id="Path_74" data-name="Path 74" d="M1917.805,1477.9a2.6,2.6,0,0,0-2.479,1.776,2.526,2.526,0,0,0,.014,1.737,2.618,2.618,0,0,0,4.945-.038,2.437,2.437,0,0,0,.146-.849,2.5,2.5,0,0,0-.16-.888A2.605,2.605,0,0,0,1917.805,1477.9Zm1.069,2.971a1.12,1.12,0,0,1-2.122.041,1.023,1.023,0,0,1-.075-.386.931.931,0,0,1,.06-.346,1.119,1.119,0,0,1,2.122-.039,1.032,1.032,0,0,1,.075.385A.97.97,0,0,1,1918.874,1480.87Z" fill="#4d9cce"/>
        <path id="Path_75" data-name="Path 75" d="M1904.664,1477.9a2.6,2.6,0,0,0-2.479,1.776,2.526,2.526,0,0,0,.014,1.737,2.618,2.618,0,0,0,4.945-.038,2.437,2.437,0,0,0,.146-.849,2.5,2.5,0,0,0-.16-.888A2.605,2.605,0,0,0,1904.664,1477.9Zm1.069,2.971a1.12,1.12,0,0,1-2.122.041,1.023,1.023,0,0,1-.075-.386.933.933,0,0,1,.06-.346,1.119,1.119,0,0,1,2.122-.039,1.032,1.032,0,0,1,.075.385A.97.97,0,0,1,1905.733,1480.87Z" fill="#4d9cce"/>
        <path id="Path_76" data-name="Path 76" d="M1929.068,1485.028h12.2a.749.749,0,0,0,.748-.748v-1.129h5.662l.051.109a6.345,6.345,0,0,0,11.484,0l.051-.109h5.47a3.568,3.568,0,0,0,3.564-3.565v-6.57a2.628,2.628,0,0,0-2.625-2.626h-.19v-5.822a.754.754,0,0,0-.067-.31l-4.694-10.324a.749.749,0,0,0-.681-.44h-15.957a.749.749,0,0,0-.748.749V1477.9h-1.32v-29.288a.749.749,0,0,0-.748-.749h-46.932a.75.75,0,0,0-.749.749v30.037a.749.749,0,0,0,.749.748h1.128v3.007a.75.75,0,0,0,.749.748h2.656l.051.109a6.359,6.359,0,0,0,11.747-.6,6.218,6.218,0,0,0,.375-2.137,6.433,6.433,0,0,0-.079-.912l-.031-.217h.6l-.031.218a6.3,6.3,0,0,0-.079.911,6.186,6.186,0,0,0,.368,2.12,6.36,6.36,0,0,0,11.755.615l.051-.109h4.721v1.129A.749.749,0,0,0,1929.068,1485.028Zm29-2.871a4.874,4.874,0,0,1-9.2-.014,4.7,4.7,0,0,1-.283-1.618,4.745,4.745,0,0,1,.289-1.634,4.873,4.873,0,0,1,9.195.017,4.763,4.763,0,0,1-.005,3.249Zm7.417-4.448v-5.822h.19a1.13,1.13,0,0,1,1.128,1.129v6.57a2.069,2.069,0,0,1-2.067,2.067h-4.98l.031-.216a6.33,6.33,0,0,0,0-1.824l-.03-.217h4.041A1.689,1.689,0,0,0,1965.486,1477.709Zm-1.5-3.678-.286-.165a2.066,2.066,0,0,1,0-3.578l.286-.166Zm-19.153-19.04h14.726l.05.112,4.377,9.669v3.83l-.142.038a3.546,3.546,0,0,0,0,6.875l.143.037v2.347h-4.7l-.052-.109a.731.731,0,0,0-.041-.073c-.017-.028-.033-.056-.049-.086-.059-.117-.124-.228-.19-.34-.1-.173-.2-.324-.3-.468-.078-.113-.163-.219-.249-.326q-.167-.2-.349-.395c-.1-.1-.191-.193-.292-.284-.13-.12-.267-.23-.407-.339-.115-.089-.215-.166-.322-.237-.15-.1-.306-.19-.464-.278l-.1-.055c-.082-.045-.162-.092-.247-.131-.168-.082-.344-.148-.522-.214l-.106-.041c-.08-.032-.16-.063-.242-.088a6.135,6.135,0,0,0-.614-.147c-.045-.009-.09-.02-.135-.031s-.115-.028-.173-.038a6.2,6.2,0,0,0-1.923,0c-.06.011-.12.025-.179.039l-.132.031a5.875,5.875,0,0,0-.611.145c-.08.025-.159.055-.237.087l-.12.046c-.172.065-.344.129-.51.209-.094.044-.185.095-.275.146l-.086.049c-.15.085-.3.169-.442.265-.115.076-.224.161-.334.245-.142.111-.269.213-.392.325s-.214.2-.317.311-.217.235-.32.359-.188.237-.276.361-.179.268-.263.407-.153.258-.22.394c-.015.03-.032.059-.049.087a.66.66,0,0,0-.037.065l-.052.109h-2.824Zm-2.817,24.405h5.17l-.031.217a6.436,6.436,0,0,0,0,1.824l.032.216h-5.171Zm-1.5,4.135h-10.7v-6.012h10.7Zm-43.557-1.878V1479.4h1.414l-.03.217a6.436,6.436,0,0,0,0,1.824l.031.216Zm12.3.5a4.874,4.874,0,0,1-9.2-.014,4.672,4.672,0,0,1-.283-1.618,4.747,4.747,0,0,1,.288-1.634,4.873,4.873,0,0,1,9.2.017,4.675,4.675,0,0,1,.283,1.617A4.753,4.753,0,0,1,1909.26,1482.157Zm13.141,0a4.874,4.874,0,0,1-9.2-.015,4.672,4.672,0,0,1-.283-1.618,4.747,4.747,0,0,1,.288-1.634,4.873,4.873,0,0,1,9.2.017,4.675,4.675,0,0,1,.283,1.617A4.758,4.758,0,0,1,1922.4,1482.158Zm1.165-4.368a.558.558,0,0,0-.039-.068c-.017-.031-.036-.061-.051-.094-.058-.114-.124-.225-.19-.337-.1-.173-.2-.324-.3-.468-.079-.113-.163-.219-.249-.326-.112-.136-.227-.268-.35-.395-.095-.1-.191-.193-.291-.284-.131-.12-.267-.23-.408-.339-.115-.089-.215-.166-.321-.237-.15-.1-.306-.19-.464-.278l-.1-.055c-.082-.045-.163-.092-.247-.131-.169-.082-.345-.148-.522-.214l-.106-.041c-.08-.032-.16-.063-.242-.088a6.183,6.183,0,0,0-.614-.147c-.046-.009-.09-.02-.136-.031s-.114-.028-.173-.038a6.2,6.2,0,0,0-1.923,0c-.06.011-.119.025-.179.039l-.131.031a5.821,5.821,0,0,0-.611.145c-.081.025-.16.055-.237.087l-.12.046c-.172.065-.345.129-.511.209-.093.044-.184.095-.274.146l-.086.049c-.151.085-.3.169-.443.265-.115.076-.223.161-.333.245-.142.111-.269.213-.393.325-.109.1-.214.2-.317.311s-.216.235-.319.359-.189.237-.277.361-.179.268-.262.407-.153.258-.221.394a.736.736,0,0,1-.049.087.686.686,0,0,0-.037.065l-.052.109h-1.514l-.052-.109a.574.574,0,0,0-.039-.068c-.017-.031-.036-.061-.051-.094-.058-.114-.124-.225-.19-.337-.1-.173-.2-.324-.3-.468-.079-.113-.163-.219-.249-.326-.112-.136-.227-.268-.35-.395-.095-.1-.191-.193-.291-.284-.131-.12-.267-.23-.408-.339-.115-.089-.215-.166-.321-.237-.151-.1-.306-.19-.464-.278l-.1-.055c-.082-.045-.163-.092-.247-.131-.169-.082-.345-.148-.522-.214l-.106-.041c-.08-.032-.16-.063-.242-.088a6.192,6.192,0,0,0-.614-.147c-.046-.009-.09-.02-.136-.031s-.114-.028-.173-.038a6.2,6.2,0,0,0-1.923,0c-.06.011-.119.025-.178.039l-.132.031a5.821,5.821,0,0,0-.611.145c-.081.025-.16.055-.237.087l-.12.046c-.172.065-.345.129-.511.209-.093.044-.184.095-.274.146l-.086.049c-.151.085-.3.169-.443.265-.115.076-.223.161-.333.245-.142.111-.269.213-.392.325s-.215.2-.318.311-.216.235-.319.359-.189.237-.277.361-.179.268-.262.407-.153.258-.221.394a.736.736,0,0,1-.049.087.686.686,0,0,0-.037.065l-.051.109h-3.764V1449.36h45.435v26.662h-11.454a.749.749,0,0,0-.748.749v1.128h-4.7Zm.522,3.863.032-.216a6.33,6.33,0,0,0,0-1.824l-.031-.217h4.231v2.257Z" fill="#4d9cce"/>
        <path id="Path_77" data-name="Path 77" d="M1948.78,1457.249a.749.749,0,0,0-.749.749v9.386a.749.749,0,0,0,.749.748h12.2a.748.748,0,0,0,.749-.748v-2.816a2.618,2.618,0,0,0-2-2.541l-.1-.023-1.714-4.285a.745.745,0,0,0-.695-.47Zm11.454,7.319v2.067h-2.257v-3.2h1.128A1.13,1.13,0,0,1,1960.234,1464.568Zm-2.234-2.626h-.772a.749.749,0,0,0-.748.749v1.129h-2.068a.749.749,0,1,0,0,1.5h2.068v1.318h-6.951v-5.073h2.067a.749.749,0,1,0,0-1.5h-2.067v-1.319h7.192Z" fill="#4d9cce"/>
      </g>
      <g id="Group_63" data-name="Group 63" class="building">
        <path id="Path_78" data-name="Path 78" d="M1816.235,1453.114a.888.888,0,0,0-.939.939v1.595a.939.939,0,1,0,1.878,0v-1.595A.941.941,0,0,0,1816.235,1453.114Z" fill="#4d9cce"/>
        <path id="Path_79" data-name="Path 79" d="M1824.495,1453.114a.888.888,0,0,0-.939.939v1.595a.939.939,0,1,0,1.878,0v-1.595A.941.941,0,0,0,1824.495,1453.114Z" fill="#4d9cce"/>
        <path id="Path_80" data-name="Path 80" d="M1832.849,1453.114a.888.888,0,0,0-.939.939v1.595a.939.939,0,1,0,1.878,0v-1.595A1.01,1.01,0,0,0,1832.849,1453.114Z" fill="#4d9cce"/>
        <path id="Path_81" data-name="Path 81" d="M1816.235,1459.685a.887.887,0,0,0-.939.938v1.6a.939.939,0,0,0,1.878,0v-1.6A.887.887,0,0,0,1816.235,1459.685Z" fill="#4d9cce"/>
        <path id="Path_82" data-name="Path 82" d="M1824.495,1459.685a.887.887,0,0,0-.939.938v1.6a.939.939,0,0,0,1.878,0v-1.6A.887.887,0,0,0,1824.495,1459.685Z" fill="#4d9cce"/>
        <path id="Path_83" data-name="Path 83" d="M1832.849,1459.685a.887.887,0,0,0-.939.938v1.6a.939.939,0,0,0,1.878,0v-1.6A.941.941,0,0,0,1832.849,1459.685Z" fill="#4d9cce"/>
        <path id="Path_84" data-name="Path 84" d="M1816.235,1466.161a.888.888,0,0,0-.939.939v1.6a.939.939,0,0,0,1.878,0v-1.6A.888.888,0,0,0,1816.235,1466.161Z" fill="#4d9cce"/>
        <path id="Path_85" data-name="Path 85" d="M1824.495,1466.161a.888.888,0,0,0-.939.939v1.6a.939.939,0,0,0,1.878,0v-1.6A.888.888,0,0,0,1824.495,1466.161Z" fill="#4d9cce"/>
        <path id="Path_86" data-name="Path 86" d="M1832.849,1466.161a.888.888,0,0,0-.939.939v1.6a.939.939,0,0,0,1.878,0v-1.6A.941.941,0,0,0,1832.849,1466.161Z" fill="#4d9cce"/>
        <path id="Path_87" data-name="Path 87" d="M1816.235,1472.638a.887.887,0,0,0-.939.939v1.595a.939.939,0,0,0,1.878,0v-1.595A.941.941,0,0,0,1816.235,1472.638Z" fill="#4d9cce"/>
        <path id="Path_88" data-name="Path 88" d="M1824.495,1472.638a.887.887,0,0,0-.939.939v1.595a.939.939,0,0,0,1.878,0v-1.595A.941.941,0,0,0,1824.495,1472.638Z" fill="#4d9cce"/>
        <path id="Path_89" data-name="Path 89" d="M1832.849,1472.638a.887.887,0,0,0-.939.939v1.595a.939.939,0,0,0,1.878,0v-1.595A1.01,1.01,0,0,0,1832.849,1472.638Z" fill="#4d9cce"/>
        <path id="Path_90" data-name="Path 90" d="M1816.235,1479.208a.888.888,0,0,0-.939.939v1.6a.939.939,0,0,0,1.878,0v-1.6A.888.888,0,0,0,1816.235,1479.208Z" fill="#4d9cce"/>
        <path id="Path_91" data-name="Path 91" d="M1824.495,1479.208a.888.888,0,0,0-.939.939v1.6a.939.939,0,0,0,1.878,0v-1.6A.888.888,0,0,0,1824.495,1479.208Z" fill="#4d9cce"/>
        <path id="Path_92" data-name="Path 92" d="M1832.849,1479.208a.888.888,0,0,0-.939.939v1.6a.939.939,0,0,0,1.878,0v-1.6A.941.941,0,0,0,1832.849,1479.208Z" fill="#4d9cce"/>
        <path id="Path_93" data-name="Path 93" d="M1841.2,1453.114a.888.888,0,0,0-.939.939v1.595a.938.938,0,1,0,1.877,0v-1.595A1.009,1.009,0,0,0,1841.2,1453.114Z" fill="#4d9cce"/>
        <path id="Path_94" data-name="Path 94" d="M1849.463,1453.114a.888.888,0,0,0-.939.939v1.595a.938.938,0,1,0,1.877,0v-1.595A.94.94,0,0,0,1849.463,1453.114Z" fill="#4d9cce"/>
        <path id="Path_95" data-name="Path 95" d="M1841.2,1459.685a.887.887,0,0,0-.939.938v1.6a.938.938,0,1,0,1.877,0v-1.6A.94.94,0,0,0,1841.2,1459.685Z" fill="#4d9cce"/>
        <path id="Path_96" data-name="Path 96" d="M1849.463,1459.685a.887.887,0,0,0-.939.938v1.6a.938.938,0,1,0,1.877,0v-1.6A.886.886,0,0,0,1849.463,1459.685Z" fill="#4d9cce"/>
        <path id="Path_97" data-name="Path 97" d="M1841.2,1466.161a.888.888,0,0,0-.939.939v1.6a.938.938,0,0,0,1.877,0v-1.6A.941.941,0,0,0,1841.2,1466.161Z" fill="#4d9cce"/>
        <path id="Path_98" data-name="Path 98" d="M1849.463,1466.161a.888.888,0,0,0-.939.939v1.6a.938.938,0,0,0,1.877,0v-1.6A.887.887,0,0,0,1849.463,1466.161Z" fill="#4d9cce"/>
        <path id="Path_99" data-name="Path 99" d="M1841.2,1472.638a.887.887,0,0,0-.939.939v1.595a.938.938,0,1,0,1.877,0v-1.595A1.009,1.009,0,0,0,1841.2,1472.638Z" fill="#4d9cce"/>
        <path id="Path_100" data-name="Path 100" d="M1849.463,1472.638a.887.887,0,0,0-.939.939v1.595a.938.938,0,1,0,1.877,0v-1.595A.94.94,0,0,0,1849.463,1472.638Z" fill="#4d9cce"/>
        <path id="Path_101" data-name="Path 101" d="M1841.2,1479.208a.888.888,0,0,0-.939.939v1.6a.938.938,0,0,0,1.877,0v-1.6A.941.941,0,0,0,1841.2,1479.208Z" fill="#4d9cce"/>
        <path id="Path_102" data-name="Path 102" d="M1849.463,1479.208a.888.888,0,0,0-.939.939v1.6a.938.938,0,0,0,1.877,0v-1.6A.887.887,0,0,0,1849.463,1479.208Z" fill="#4d9cce"/>
        <path id="Path_103" data-name="Path 103" d="M1871.239,1485.028h-3.848l-2.065-58.384a1.009,1.009,0,0,0-.939-.938h-7.79a.94.94,0,0,0-.939.938l-.845,23.185-3.285-2.065-.751-17.365a1.01,1.01,0,0,0-.939-.939h-4.693a.942.942,0,0,0-.939.939l-.563,12.484-3.473-2.159a.851.851,0,0,0-.938,0,.985.985,0,0,0-.47.845v7.227l-1.877-1.126-.751-17.271a1.01,1.01,0,0,0-.939-.939H1830.5a.941.941,0,0,0-.938.939l-.564,12.578-3.754-2.253a.852.852,0,0,0-.939,0,1.122,1.122,0,0,0-.469.845v7.134l-1.6-.939-.751-17.365a1.01,1.01,0,0,0-.938-.939h-4.694a.941.941,0,0,0-.938.939l-.563,12.672-3.943-2.347a.851.851,0,0,0-.938,0,.985.985,0,0,0-.47.845v43.459h-3.754a.939.939,0,1,0,0,1.877h65.986a.939.939,0,1,0,0-1.877Zm-13.7-57.445h6.007l1.972,57.445H1855.47Zm-11.545,3.848h2.816l.657,15.206-4.036-2.534Zm-14.549,0h2.816l.657,15.113-4.13-2.441Zm-14.643,0h2.816l.657,15.206-4.13-2.44Zm-5.913,11.827,13.422,7.979a.852.852,0,0,0,.939,0,.987.987,0,0,0,.469-.845v-7.134l13.423,7.979a.851.851,0,0,0,.938,0,.957.957,0,0,0,.47-.751l.094-2.159v-5.069l14.173,8.73-1.22,33.04h-42.708Z" fill="#4d9cce"/>
        <path id="Path_104" data-name="Path 104" d="M1860.539,1423.641a3.191,3.191,0,1,0-3.192-3.192A3.165,3.165,0,0,0,1860.539,1423.641Zm0-4.506a1.314,1.314,0,1,1-1.314,1.314A1.283,1.283,0,0,1,1860.539,1419.135Z" fill="#4d9cce" class="smoke-1"/>
        <path id="Path_105" data-name="Path 105" d="M1852.279,1420.356a3.755,3.755,0,1,0-3.755-3.755A3.765,3.765,0,0,0,1852.279,1420.356Zm0-5.632a1.877,1.877,0,1,1-1.877,1.877A1.882,1.882,0,0,1,1852.279,1414.724Z" fill="#4d9cce" class="smoke-2"/>
      </g>
      <path class="ship" id="Path_106" data-name="Path 106" d="M2049.473,1485.345a11.3,11.3,0,0,0,11.483-.022,8.833,8.833,0,0,1,4.891-1.357h0c.331,0,.639.014.938.041a8.686,8.686,0,0,1,3.927,1.326,10.47,10.47,0,0,0,5.517,1.569l.224,0a.948.948,0,1,0,.011-1.9,8.728,8.728,0,0,1-4.894-1.365,12.3,12.3,0,0,0-2.673-1.172l-.589-.18,9-17.91a.948.948,0,0,0-.421-1.272.963.963,0,0,0-.426-.1h-7.852v-21.052a.949.949,0,0,0-.948-.947h-52.8a.947.947,0,0,0-.947.947V1467.4h-3.971v-22.518a.948.948,0,0,0-.948-.947h-11.733a.942.942,0,0,0-.936.805l-2.81,18.261H1991.4a.949.949,0,0,0-.948.948v13.2a.952.952,0,0,0,.135.489l4.1,6.83-.649.186a8.961,8.961,0,0,1-2.649.348.948.948,0,0,0,.012,1.9,10.211,10.211,0,0,0,5.738-1.571,8.816,8.816,0,0,1,4.909-1.362l.205,0a8.669,8.669,0,0,1,4.687,1.382,10.131,10.131,0,0,0,5.7,1.554,10.774,10.774,0,0,0,5.775-1.574,8.413,8.413,0,0,1,4.888-1.359,8.66,8.66,0,0,1,4.9,1.38,11.306,11.306,0,0,0,11.482-.025,8.612,8.612,0,0,1,4.878-1.355A8.768,8.768,0,0,1,2049.473,1485.345Zm1.542-42.444h15.7v6.9h-15.7Zm0,8.8h15.7v6.9h-15.7Zm0,8.8h15.7v2.5h-7.852a.938.938,0,0,0-.567.189l-5.616,4.21h-1.669Zm-17.6-17.6h15.7v6.9h-15.7Zm0,8.8h15.7v6.9h-15.7Zm0,8.8h15.7v6.9h-15.7Zm-17.6-17.6h15.7v6.9h-15.7Zm0,8.8h15.7v6.9h-15.7Zm0,8.8h15.7v6.9h-15.7Zm-17.736-14.666h9.974v20.229l-2.782-2.781a.955.955,0,0,0-.67-.278h-9.161Zm40.716,37.811a9.4,9.4,0,0,1-9.773-.015,11.3,11.3,0,0,0-11.474.01,9.431,9.431,0,0,1-9.8-.018,10.423,10.423,0,0,0-5.7-1.552c-.357,0-.679.015-.986.035-.063,0-.123.012-.182.018l-.111.012c-.231.023-.407.041-.573.066l-.311.054c-.159.029-.313.057-.461.092-.092.021-.178.043-.263.065-.172.045-.312.085-.451.127l-.25.08c-.139.047-.267.1-.393.148l-.072.028c-.046.017-.084.03-.118.046-.169.07-.317.137-.461.207l-.11.05c-.166.082-.34.169-.507.258l-.436.231-4.011-6.7V1464.9h11.859l4.121,4.122a.949.949,0,0,0,.672.277h44a.95.95,0,0,0,.568-.189l5.613-4.21h15.746l-8.633,17.17h-.592a10.66,10.66,0,0,0-5.63,1.572,9.411,9.411,0,0,1-9.783-.011A11.3,11.3,0,0,0,2038.8,1483.645Z" fill="#4d9cce"/>
    </g>
    <g id="Group_65" data-name="Group 65" class="plane">
      <path id="Path_107" data-name="Path 107" d="M2023.348,1386.9c6.321-2.414,5.716-5.472,5.381-6.351a3.1,3.1,0,0,0-1.682-1.735c-1.513-.677-3.783-.474-6.563.587l-10.071,3.844-19.692-19.547-6.541,2.5,14.854,21.4-10.939,4.176-10.1-9.724-4.346,1.658,6.459,11.3c-3.008,1.619-5.2,3.848-4.453,5.815a2.494,2.494,0,0,0,1.394,1.378,9.665,9.665,0,0,0,5.8-.005l2.712,12.72,4.344-1.656,1.051-13.985,10.935-4.175,3.186,25.851,6.542-2.5,1.654-27.7Zm-33.117-20.878,17.884,17.754-7.352,2.807-13.49-19.432Zm16.52,52.147-2.9-23.478,7.354-2.807-1.5,25.155Zm-29.227-33.81,8.253,7.947-4.029,1.538-5.208-9.109Zm0,15.743c-.209-.547,1.53-2.745,5.7-4.337l37.977-14.5c3.139-1.2,4.568-.839,5.037-.63a1.115,1.115,0,0,1,.633.626c.358.938-.81,2.47-4.229,3.776l-37.978,14.5c-3.21,1.225-5.771,1.291-6.793.833A.652.652,0,0,1,1977.52,1400.1Zm9.51,12.111-2.188-10.262,4.031-1.539-.858,11.426Z" fill="#4d9cce"/>
      <rect id="Rectangle_17" data-name="Rectangle 17" width="15.918" height="1.995" transform="translate(1969.986 1377.929) rotate(-20.897)" fill="#c8e2e8" class="line" />
      <rect id="Rectangle_18" data-name="Rectangle 18" width="44.641" height="1.995" transform="translate(1959.132 1430.03) rotate(-20.897)" fill="#c8e2e8" class="line"/>
      <rect id="Rectangle_19" data-name="Rectangle 19" width="11.615" height="1.995" transform="translate(1957.223 1382.804) rotate(-20.9)" fill="#c8e2e8" class="line"/>
    </g>
  </g>
</svg>
