<svg xmlns="http://www.w3.org/2000/svg" width="237.16" height="88.568" viewBox="0 0 237.16 88.568">
  <g id="Group_56" data-name="Group 56" transform="translate(-56.824 -2085.295)">
    <g id="Group_53" data-name="Group 53">
      <g id="Group_51" data-name="Group 51" class="child">
        <path id="Path_65" data-name="Path 65" d="M80.357,2173.863H65.383l-3.088-29.681H56.824V2108.8H88.915v35.385H83.444Zm-12.987-2.2h11l3.087-29.682h5.254V2111H59.028v30.975h5.255Z" fill="#f2dfea"/>
        <path id="Path_66" data-name="Path 66" d="M72.871,2107.289a11,11,0,1,1,11-11A11.009,11.009,0,0,1,72.871,2107.289Zm0-19.789a8.792,8.792,0,1,0,8.793,8.791A8.8,8.8,0,0,0,72.871,2087.5Z" fill="#f2dfea"/>
      </g>
      <g id="Group_52" data-name="Group 52" class="child">
        <path id="Path_67" data-name="Path 67" d="M124.152,2173.863H109.178l-3.088-29.681h-5.472V2108.8H132.71v35.385h-5.471Zm-12.987-2.2h11l3.087-29.682h5.253V2111H102.823v30.975h5.254Z" fill="#f2dfea"/>
        <path id="Path_68" data-name="Path 68" d="M116.666,2107.289a11,11,0,1,1,11-11A11.01,11.01,0,0,1,116.666,2107.289Zm0-19.789a8.792,8.792,0,1,0,8.793,8.791A8.8,8.8,0,0,0,116.666,2087.5Z" fill="#f2dfea"/>
      </g>
      <g class="child">
      <path id="Path_69" data-name="Path 69" d="M175.454,2123.924a2.2,2.2,0,0,1-1.154-.241v18.294h-5.253l-3.088,29.682h-11l-3.088-29.682h-5.254V2111H174.3v.631a2.518,2.518,0,0,1,2.205-.7V2108.8H144.413v35.385h5.472l3.087,29.681h14.975l3.087-29.681h5.471v-20.4A6.508,6.508,0,0,1,175.454,2123.924Z" fill="#f2dfea"/>
      <path id="Path_70" data-name="Path 70" d="M160.461,2107.289a11,11,0,1,1,11-11A11.01,11.01,0,0,1,160.461,2107.289Zm0-19.789a8.792,8.792,0,1,0,8.792,8.791A8.8,8.8,0,0,0,160.461,2087.5Z" fill="#f2dfea"/>
      </g>
    </g>
    <g id="Group_55" data-name="Group 55">
      <g id="Group_54" data-name="Group 54">
        <path id="Path_71" data-name="Path 71" d="M292.495,2120.286a5.769,5.769,0,0,0,1.489-3.507c0-1.2-.587-2.814-3.383-3.65l-.014,0-11.374-3.663c-22.212-6.784-39.263-12.06-50.669-15.675a1.559,1.559,0,0,0-.484-.076h-3.578a1.618,1.618,0,0,0-.5.08c-12.623,4.125-33.472,10.617-61.967,19.3a3.734,3.734,0,0,0-2.643,2.112l-.05.093a3.215,3.215,0,0,0-.108,3.384l.051.121a5.686,5.686,0,0,0,.681,1.353,1.605,1.605,0,0,0,1.069.722,3.77,3.77,0,0,1,1.013.311,1.641,1.641,0,0,0,.247.1c5.01,1.56,13.671,4.214,26.474,8.111l.483.147v33.142a1.605,1.605,0,0,0,1.027,1.494,97.053,97.053,0,0,0,34.752,6.667,93.507,93.507,0,0,0,34.309-6.671,1.6,1.6,0,0,0,1.016-1.492V2130.32l.461-.157q1.5-.515,2.793-.905l.372-.113.286.262c.341.314.65.608.914.871a23.751,23.751,0,0,1,2.46,3.183l.1.215.045.165c.156,1.437.654,5.294,1.479,11.464,1,7.711,2.256,13.1,3.843,16.482,1.554,3.544,5,7.381,10.531,11.747a1.644,1.644,0,0,0,2.252-.266,1.607,1.607,0,0,0-.269-2.251c-5.042-3.977-8.27-7.527-9.6-10.552-1.436-3.061-2.644-8.307-3.583-15.576-1.375-10.287-1.495-11.572-1.505-11.684a1.659,1.659,0,0,0-.32-1.013l-.064-.1a1.967,1.967,0,0,0-.113-.2,27.65,27.65,0,0,0-2.959-3.845c-.582-.576-1.269-1.211-2.025-1.868l-.071-.069a31.913,31.913,0,0,0-7.254-4.5,62.563,62.563,0,0,0-14.619-5.778c-1.867-.454-3.933-.919-6.127-1.377a1.6,1.6,0,1,0-.658,3.135c2.138.448,4.157.9,6,1.349a58.978,58.978,0,0,1,13.868,5.486.888.888,0,0,0,.106.054c1.048.487,2.032,1,2.932,1.515l1.291.745-1.408.488q-.572.2-1.161.41c-2.974.851-6.258,1.826-9.806,2.912-3.474,1.041-6.706,2.04-9.609,2.974-3.586,1.131-8.052,2.609-13.279,4.394l-.229.078-.227-.084c-7.413-2.747-14.168-4.99-20.077-6.668-4.951-1.549-9.6-3.035-13.824-4.423-13.468-4.1-22.6-6.894-27.9-8.545l-.093-.036a4.978,4.978,0,0,0-.61-.242l-.306-.1-.115-.3c-.028-.076-.06-.147-.093-.217l-.142-.3.368-.757.447-.137c28.234-8.6,49.026-15.067,61.794-19.233l.211-.033,3.066.032c11.467,3.633,28.4,8.872,50.341,15.571l11.4,3.671a4.628,4.628,0,0,1,.632.238l.605.286-.276.611c-.037.079-.089.175-.152.285l-.131.226-.4.13c-.191.078-.359.145-.481.184-.147.032-.214.045-.28.067l-14.395,4.491a1.6,1.6,0,1,0,.955,3.06l14.221-4.437a6.066,6.066,0,0,0,1.07-.352l.335-.09A1.6,1.6,0,0,0,292.495,2120.286Zm-100.056,10.281.891.289c3.388,1.1,7.043,2.263,10.864,3.458,6.023,1.711,12.973,4.028,20.64,6.884h0a1.592,1.592,0,0,0,1.071.011c5.6-1.919,10.306-3.479,13.986-4.639,2.941-.943,6.161-1.938,9.566-2.958,2.435-.747,4.68-1.417,6.8-2.04l.872-.257v30.271l-.441.166a89.651,89.651,0,0,1-31.679,5.877,93.025,93.025,0,0,1-32.126-5.89l-.446-.164Z" fill="#652b74"/>
        <path id="Path_72" data-name="Path 72" d="M291.278,2121.61Z" fill="#652b74"/>
      </g>
    </g>
  </g>
</svg>
