<svg xmlns="http://www.w3.org/2000/svg" width="118.905" height="147.801" viewBox="0 0 118.905 147.801">
  <g id="Group_132" data-name="Group 132" transform="translate(-1358.89 -1411.101)">
    <g id="Group_71" data-name="Group 71" class="coin-symbol">
      <path id="Path_108" data-name="Path 108" d="M1399.819,1425.477c-.378-.025-9.347-.591-15.256,4.929a14.911,14.911,0,0,0-3.915,6.069l-.217.619h-4.479a1.38,1.38,0,0,0,0,2.759h3.854l-.1,1.014c-.082.816-.124,1.637-.124,2.438,0,.43.014.85.035,1.264l.048.969h-3.711a1.38,1.38,0,0,0,0,2.759h4.148l.185.681a15.135,15.135,0,0,0,4.278,7.228c4.789,4.473,11.559,4.957,14.247,4.957.575,0,.935-.023,1-.029a1.381,1.381,0,0,0,.8-2.42,1.349,1.349,0,0,0-.991-.332c-.076.01-8.118.546-13.2-4.2a12.159,12.159,0,0,1-3.07-4.638l-.472-1.249h12.647a1.38,1.38,0,0,0,0-2.759h-13.113l-.053-.866c-.028-.445-.045-.9-.045-1.367a20.778,20.778,0,0,1,.165-2.647l.1-.8h12.943a1.38,1.38,0,0,0,0-2.759h-12.28l.684-1.342a11.928,11.928,0,0,1,2.47-3.3c4.831-4.534,12.359-4.262,13.2-4.22a1.344,1.344,0,0,0,1.011-.331,1.382,1.382,0,0,0-.8-2.419Z" fill="#4d9cce"/>
      <path id="Path_109" data-name="Path 109" d="M1390.969,1413.859a29.454,29.454,0,0,1,27.66,39.253,5.451,5.451,0,0,1,3.173-.952,32.058,32.058,0,1,0-30.833,23.356c1.008,0,2-.053,2.987-.144,1.387-1.109,2.719-2.275,4.023-3.471a29.433,29.433,0,1,1-7.01-58.042Z" fill="#4d9cce"/>
    </g>
    <g id="Group_72" data-name="Group 72">
      <path id="Path_141" data-name="Path 141" d="M1368.683,1493.77l9.506-7.647,44.817-36.056,41.368,35.469v70.457h-84.188v-69.871Z" fill="#fff"/>
      <path id="Path_110" data-name="Path 110" d="M1421.856,1449.586l-54.824,43.872a1.688,1.688,0,0,0,2.107,2.637l9.058-7.224v68.287a1.753,1.753,0,0,0,1.685,1.688q42.132.14,84.264,0a1.753,1.753,0,0,0,1.685-1.688v-68.6l9.059,7.488a1.686,1.686,0,1,0,2.106-2.583l-53.033-43.873C1422.916,1448.948,1422.864,1449.268,1421.856,1449.586Zm1.053,3.48,39.6,32.747c-.112,23.165-.052,46.451-.052,69.658-8.988.017-17.976.053-26.965.053v-35.383a1.753,1.753,0,0,0-1.685-1.688h-23.594a1.753,1.753,0,0,0-1.685,1.688v35.383q-13.482-.026-26.965-.053v-69.342Zm-.79,7.435c-9.3,7.662-18.672,15.23-28.017,22.833l2.106,2.584,25.911-21.04,15.8,12.656,2.107-2.637C1434.127,1470.015,1427.951,1465.465,1422.119,1460.5Zm-10.217,61.327h20.224v33.7H1411.9Zm4.214,16.822a2.531,2.531,0,1,0,2.528,2.531,2.529,2.529,0,0,0-2.528-2.531Z" fill="#c8e2e8"/>
    </g>
  </g>
</svg>
