<svg xmlns="http://www.w3.org/2000/svg" width="290.999" height="80.242" viewBox="0 0 290.999 80.242">
  <g id="Group_2530" data-name="Group 2530" transform="translate(-925.156 -202.196)">
    <g class="child" id="Group_2520" data-name="Group 2520">
      <path id="Path_1619" data-name="Path 1619" d="M1151.649,216.89,1134.871,203.2h-2.405l-16.777,13.694v.977h4.8v14.669h26.36V217.867h4.793Z" fill="none" stroke="#8bcccb" stroke-miterlimit="10" stroke-width="2"/>
      <path id="Path_1620" data-name="Path 1620" d="M1130.074,232.539v-6.846h7.189v6.846" fill="none" stroke="#8bcccb" stroke-miterlimit="10" stroke-width="2"/>
      <rect id="Rectangle_305" data-name="Rectangle 305" width="7.19" height="3.911" transform="translate(1130.075 217.87)" fill="none" stroke="#8bcccb" stroke-miterlimit="10" stroke-width="2"/>
    </g>
    <g class="child" id="Group_2521" data-name="Group 2521">
      <path id="Path_1621" data-name="Path 1621" d="M1024.63,265.792,1007.852,252.1h-2.4L988.67,265.792v.977h4.8v14.669h26.36V266.769h4.793Z" fill="none" stroke="#8bcccb" stroke-miterlimit="10" stroke-width="2"/>
      <path id="Path_1622" data-name="Path 1622" d="M1003.055,281.441V274.6h7.189v6.846" fill="none" stroke="#8bcccb" stroke-miterlimit="10" stroke-width="2"/>
      <rect id="Rectangle_306" data-name="Rectangle 306" width="7.19" height="3.911" transform="translate(1003.056 266.772)" fill="none" stroke="#8bcccb" stroke-miterlimit="10" stroke-width="2"/>
    </g>
    <g class="child" id="Group_2522" data-name="Group 2522">
      <path id="Path_1623" data-name="Path 1623" d="M1021.029,212.978v-7.827h-4.793v3.914l-7.191-5.869h-2.406L989.861,216.89v.978h4.8v14.668h26.368V217.868h4.793v-.978Z" fill="none" stroke="#8bcccb" stroke-miterlimit="10" stroke-width="2"/>
      <line id="Line_51" data-name="Line 51" x2="26.362" transform="translate(994.669 217.868)" fill="none" stroke="#8bcccb" stroke-miterlimit="10" stroke-width="2"/>
      <path id="Path_1624" data-name="Path 1624" d="M1004.254,232.539v-8.8h7.189v8.8" fill="none" stroke="#8bcccb" stroke-miterlimit="10" stroke-width="2"/>
    </g>
    <g class="child" id="Group_2523" data-name="Group 2523">
      <path id="Path_1625" data-name="Path 1625" d="M1088.14,216.89,1071.362,203.2h-2.405l-16.778,13.694v15.657h35.96Z" fill="none" stroke="#8bcccb" stroke-miterlimit="10" stroke-width="2"/>
      <path id="Path_1626" data-name="Path 1626" d="M1073.759,232.538v-9.781h7.19v9.781" fill="none" stroke="#8bcccb" stroke-miterlimit="10" stroke-width="2"/>
      <rect id="Rectangle_307" data-name="Rectangle 307" width="11.987" height="3.911" transform="translate(1056.974 222.764)" fill="none" stroke="#8bcccb" stroke-miterlimit="10" stroke-width="2"/>
      <line id="Line_52" data-name="Line 52" y2="3.912" transform="translate(1062.97 222.757)" fill="none" stroke="#8bcccb" stroke-miterlimit="10" stroke-width="2"/>
      <ellipse id="Ellipse_23" data-name="Ellipse 23" cx="3.595" cy="2.934" rx="3.595" ry="2.934" transform="translate(1066.566 212.977)" fill="none" stroke="#8bcccb" stroke-miterlimit="10" stroke-width="2"/>
      <path id="Path_1627" data-name="Path 1627" d="M1078.546,209.306v-3.177h4.794v6.844" fill="none" stroke="#8bcccb" stroke-miterlimit="10" stroke-width="2"/>
    </g>
    <g class="child" id="Group_2524" data-name="Group 2524">
      <path id="Path_1628" data-name="Path 1628" d="M1136.063,281.438v-7.824h4.791v7.824" fill="none" stroke="#8bcccb" stroke-miterlimit="10" stroke-width="2"/>
      <rect id="Rectangle_308" data-name="Rectangle 308" width="4.792" height="3.911" transform="translate(1136.064 265.794)" fill="none" stroke="#8bcccb" stroke-miterlimit="10" stroke-width="2"/>
      <path id="Path_1629" data-name="Path 1629" d="M1133.665,261.876h0a2.211,2.211,0,0,1-2.4-1.956h0a2.21,2.21,0,0,1,2.4-1.955h0a2.209,2.209,0,0,1,2.4,1.955h0A2.21,2.21,0,0,1,1133.665,261.876Z" fill="none" stroke="#8bcccb" stroke-miterlimit="10" stroke-width="2"/>
      <rect id="Rectangle_309" data-name="Rectangle 309" width="4.792" height="3.911" transform="translate(1126.472 265.794)" fill="none" stroke="#8bcccb" stroke-miterlimit="10" stroke-width="2"/>
      <rect id="Rectangle_310" data-name="Rectangle 310" width="4.792" height="3.911" transform="translate(1126.472 273.623)" fill="none" stroke="#8bcccb" stroke-miterlimit="10" stroke-width="2"/>
      <path id="Path_1630" data-name="Path 1630" d="M1151.639,264.809l-16.778-12.71h-2.406l-16.771,12.71v.981h3.6v15.648h28.76V265.79h3.594Z" fill="none" stroke="#8bcccb" stroke-miterlimit="10" stroke-width="2"/>
    </g>
    <g class="child" id="Group_2525" data-name="Group 2525">
      <line id="Line_53" data-name="Line 53" y2="11.735" transform="translate(1183.988 263.835)" fill="none" stroke="#8bcccb" stroke-miterlimit="10" stroke-width="2" stroke-dasharray="2 2"/>
      <line id="Line_54" data-name="Line 54" y2="11.735" transform="translate(1188.784 263.835)" fill="none" stroke="#8bcccb" stroke-miterlimit="10" stroke-width="2" stroke-dasharray="2 2"/>
      <path id="Path_1631" data-name="Path 1631" d="M1188.78,281.441v-2.933h-4.793v2.933" fill="none" stroke="#8bcccb" stroke-miterlimit="10" stroke-width="2"/>
      <line id="Line_55" data-name="Line 55" y2="21.522" transform="translate(1205.57 254.049)" fill="none" stroke="#8bcccb" stroke-miterlimit="10" stroke-width="2" stroke-dasharray="2 2"/>
      <line id="Line_56" data-name="Line 56" y2="21.522" transform="translate(1210.366 254.049)" fill="none" stroke="#8bcccb" stroke-miterlimit="10" stroke-width="2" stroke-dasharray="2 2"/>
      <path id="Path_1632" data-name="Path 1632" d="M1179.193,281.452V260.907h14.381v19.567h7.2V251.121h14.381v30.331" fill="none" stroke="#8bcccb" stroke-miterlimit="10" stroke-width="2"/>
      <path id="Path_1633" data-name="Path 1633" d="M1210.362,281.441v-2.933h-4.793v2.933" fill="none" stroke="#8bcccb" stroke-miterlimit="10" stroke-width="2"/>
    </g>
    <g class="child" id="Group_2526" data-name="Group 2526">
      <path id="Path_1634" data-name="Path 1634" d="M1215.142,218.847h-35.949v-1.959l2.4-7.824h31.155l2.4,7.824Z" fill="none" stroke="#8bcccb" stroke-miterlimit="10" stroke-width="2"/>
      <path id="Path_1635" data-name="Path 1635" d="M1212.744,218.847v13.688h-31.156V218.847" fill="none" stroke="#8bcccb" stroke-miterlimit="10" stroke-width="2"/>
      <rect id="Rectangle_311" data-name="Rectangle 311" width="11.987" height="3.912" transform="translate(1186.383 222.758)" fill="none" stroke="#8bcccb" stroke-miterlimit="10" stroke-width="2"/>
      <path id="Path_1636" data-name="Path 1636" d="M1203.16,232.539v-9.78h4.793v9.78" fill="none" stroke="#8bcccb" stroke-miterlimit="10" stroke-width="2"/>
      <rect id="Rectangle_312" data-name="Rectangle 312" width="4.793" height="3.912" transform="translate(1187.58 205.153)" fill="none" stroke="#8bcccb" stroke-miterlimit="10" stroke-width="2"/>
    </g>
    <g class="child" id="Group_2527" data-name="Group 2527">
      <path id="Path_1637" data-name="Path 1637" d="M962.3,267.749H926.354V265.79l2.4-7.824h31.155l2.4,7.824Z" fill="none" stroke="#8bcccb" stroke-miterlimit="10" stroke-width="2"/>
      <path id="Path_1638" data-name="Path 1638" d="M959.905,267.749v13.688H928.749V267.749" fill="none" stroke="#8bcccb" stroke-miterlimit="10" stroke-width="2"/>
      <rect id="Rectangle_313" data-name="Rectangle 313" width="11.987" height="3.912" transform="translate(933.544 271.66)" fill="none" stroke="#8bcccb" stroke-miterlimit="10" stroke-width="2"/>
      <path id="Path_1639" data-name="Path 1639" d="M950.321,281.441v-9.78h4.793v9.78" fill="none" stroke="#8bcccb" stroke-miterlimit="10" stroke-width="2"/>
      <rect id="Rectangle_314" data-name="Rectangle 314" width="4.793" height="3.912" transform="translate(934.741 254.055)" fill="none" stroke="#8bcccb" stroke-miterlimit="10" stroke-width="2"/>
    </g>
    <g class="child" id="Group_2528" data-name="Group 2528">
      <line id="Line_57" data-name="Line 57" y2="21.522" transform="translate(939.534 206.125)" fill="none" stroke="#8bcccb" stroke-miterlimit="10" stroke-width="2" stroke-dasharray="2 2"/>
      <line id="Line_58" data-name="Line 58" y2="21.522" transform="translate(944.33 206.125)" fill="none" stroke="#8bcccb" stroke-miterlimit="10" stroke-width="2" stroke-dasharray="2 2"/>
      <line id="Line_59" data-name="Line 59" y2="22" transform="translate(948.656 205.63)" fill="none" stroke="#8bcccb" stroke-miterlimit="10" stroke-width="2" stroke-dasharray="2 2"/>
      <path id="Path_1640" data-name="Path 1640" d="M925.156,232.55h9.583V203.2h19.173V232.55H963.5" fill="none" stroke="#8bcccb" stroke-miterlimit="10" stroke-width="2"/>
      <path id="Path_1641" data-name="Path 1641" d="M946.725,233.517v-2.933h-4.793v2.933" fill="none" stroke="#8bcccb" stroke-miterlimit="10" stroke-width="2"/>
    </g>
    <g class="child" id="Group_2529" data-name="Group 2529">
      <path id="Path_1642" data-name="Path 1642" d="M1085.731,263.834v17.6h-31.16v-17.6h-2.4v-1.956l2.4-5.867h31.16l2.4,5.867v1.956Z" fill="none" stroke="#8bcccb" stroke-miterlimit="10" stroke-width="2"/>
      <path id="Path_1643" data-name="Path 1643" d="M1074.943,281.443v-5.872h4.793v5.872" fill="none" stroke="#8bcccb" stroke-miterlimit="10" stroke-width="2"/>
      <rect id="Rectangle_315" data-name="Rectangle 315" width="4.793" height="3.912" transform="translate(1060.562 252.099)" fill="none" stroke="#8bcccb" stroke-miterlimit="10" stroke-width="2"/>
      <line id="Line_60" data-name="Line 60" x2="35.949" transform="translate(1052.175 271.66)" fill="none" stroke="#8bcccb" stroke-miterlimit="10" stroke-width="2"/>
      <line id="Line_61" data-name="Line 61" x2="2.397" transform="translate(1059.365 275.571)" fill="none" stroke="#8bcccb" stroke-miterlimit="10" stroke-width="2"/>
      <line id="Line_62" data-name="Line 62" x2="2.397" transform="translate(1064.158 275.571)" fill="none" stroke="#8bcccb" stroke-miterlimit="10" stroke-width="2"/>
      <line id="Line_63" data-name="Line 63" x2="2.397" transform="translate(1068.951 275.571)" fill="none" stroke="#8bcccb" stroke-miterlimit="10" stroke-width="2"/>
      <line id="Line_64" data-name="Line 64" x2="2.397" transform="translate(1059.365 267.742)" fill="none" stroke="#8bcccb" stroke-miterlimit="10" stroke-width="2"/>
      <line id="Line_65" data-name="Line 65" x2="2.397" transform="translate(1064.158 267.742)" fill="none" stroke="#8bcccb" stroke-miterlimit="10" stroke-width="2"/>
      <line id="Line_66" data-name="Line 66" x2="2.397" transform="translate(1068.951 267.742)" fill="none" stroke="#8bcccb" stroke-miterlimit="10" stroke-width="2"/>
      <line id="Line_67" data-name="Line 67" x2="2.397" transform="translate(1073.753 267.742)" fill="none" stroke="#8bcccb" stroke-miterlimit="10" stroke-width="2"/>
      <line id="Line_68" data-name="Line 68" x2="2.397" transform="translate(1078.546 267.742)" fill="none" stroke="#8bcccb" stroke-miterlimit="10" stroke-width="2"/>
      <line id="Line_69" data-name="Line 69" x1="31.155" transform="translate(1054.57 263.837)" fill="none" stroke="#8bcccb" stroke-miterlimit="10" stroke-width="2"/>
    </g>
  </g>
</svg>
