<svg xmlns="http://www.w3.org/2000/svg" width="142.322" height="111.36" viewBox="0 0 142.322 111.36">
  <g id="Group_45" data-name="Group 45" transform="translate(-566.355 -2066.184)">
    <g id="Group_42" data-name="Group 42">
      <path id="Path_50" data-name="Path 50" d="M686.17,2130.132a4.02,4.02,0,0,0-3.2-3.938l-.3-.062v-3.566a9.169,9.169,0,0,1,2.87-6.549,19.178,19.178,0,0,0-13.414-32.857q-.539,0-1.081.03a19.265,19.265,0,0,0-15.832,10.107,1.3,1.3,0,0,1,.194.652c.039,1.643-.012,3.283-.086,4.923a17.264,17.264,0,0,1,15.841-13.651,17.145,17.145,0,0,1,12.967,29.358,11.179,11.179,0,0,0-3.479,8v3.543H663.571v-3.46a10.9,10.9,0,0,0-3.281-7.89h0a17.192,17.192,0,0,1-5.238-10.755c-.04.725-.082,1.451-.112,2.177a26.616,26.616,0,0,1,1.1,3.422,1.387,1.387,0,0,1-.927,1.631,19.223,19.223,0,0,0,3.768,5,8.863,8.863,0,0,1,2.644,6.414v3.485l-.3.06a4,4,0,0,0-2.1,6.675l.238.253-.238.253a3.98,3.98,0,0,0,0,5.492l.238.253-.238.253a4,4,0,0,0,2.915,6.76h4.044l.063.29a6.091,6.091,0,0,0,11.9,0l.063-.29h4.044a4.005,4.005,0,0,0,2.915-6.76l-.238-.253.238-.253a3.983,3.983,0,0,0,0-5.492l-.238-.253.238-.253A4,4,0,0,0,686.17,2130.132Zm-10.3,16.5a4.057,4.057,0,0,1-7.532,0l-.2-.507h7.939Zm6.292-2.537H662.049a1.984,1.984,0,1,1,0-3.968h20.117a1.984,1.984,0,1,1,0,3.968Zm0-5.989H662.049a1.984,1.984,0,1,1,0-3.968h20.117a1.984,1.984,0,1,1,0,3.968Zm0-6H662.049a1.984,1.984,0,0,1,0-3.969h20.117a1.984,1.984,0,0,1,0,3.969Z" fill="#f2dfea"/>
      <path class="line" id="Path_51" data-name="Path 51" d="M691.123,2120.334a1.019,1.019,0,0,0-.72-.3h0a.991.991,0,0,0-.708.3,1.019,1.019,0,0,0-.3.727.989.989,0,0,0,.3.707l6.84,6.85a1.048,1.048,0,0,0,1.434,0,1.006,1.006,0,0,0,.3-.724.99.99,0,0,0-.3-.708Z" fill="#f2dfea"/>
      <path class="line" id="Path_52" data-name="Path 52" d="M697.961,2076.9a1.014,1.014,0,0,0-.72-.3h0a.991.991,0,0,0-.708.3l-6.84,6.84a1.016,1.016,0,0,0-.3.725.987.987,0,0,0,.3.707,1.04,1.04,0,0,0,1.436,0l6.838-6.838a1,1,0,0,0,.3-.724.991.991,0,0,0-.3-.708Z" fill="#f2dfea"/>
      <path class="line" id="Path_53" data-name="Path 53" d="M707.662,2101.738h-9.679a1.015,1.015,0,0,0,0,2.03h9.679a1.015,1.015,0,1,0,0-2.03Z" fill="#f2dfea"/>
      <path class="line" id="Path_54" data-name="Path 54" d="M672.108,2066.184a1.016,1.016,0,0,0-1.015,1.015v9.679a1.015,1.015,0,1,0,2.03,0V2067.2A1.016,1.016,0,0,0,672.108,2066.184Z" fill="#f2dfea"/>
    </g>
    <g id="Group_44" data-name="Group 44">
      <g id="Group_43" data-name="Group 43">
        <path id="Path_55" data-name="Path 55" d="M656.431,2090.462a10.332,10.332,0,0,0-10.306-10.307H576.734a3.8,3.8,0,0,0-.4.007c-.078.008-.157.022-.235.037a10.3,10.3,0,0,0-9.748,10.262v5.484a1.168,1.168,0,0,0,1.166,1.168h11.636a1.148,1.148,0,0,0,.129-.023v-2.29a1.065,1.065,0,0,0-.127-.023H568.69v-4.316a7.967,7.967,0,0,1,5.147-7.425l.1-.038.106.028a1.467,1.467,0,0,0,.381.041,6.558,6.558,0,0,1,6.551,6.487v6.108l-.051,0v.556l.051,0v72.836a1.168,1.168,0,0,0,1.166,1.168h42.705v4.316a3,3,0,0,0,3,2.995h0a2.987,2.987,0,0,0,1.662-.5l3.82-2.546,3.822,2.545a2.994,2.994,0,0,0,4.658-2.491v-4.316h13.456a1.169,1.169,0,0,0,1.167-1.167v-78.6Zm-16.574,67.563a1.172,1.172,0,0,0-.385.865v15.659a.637.637,0,0,1-.113.369.652.652,0,0,1-.416.277.752.752,0,0,1-.131.012.656.656,0,0,1-.364-.11l-4.472-2.977a1.162,1.162,0,0,0-1.3,0l-4.469,2.977a.673.673,0,0,1-1.026-.528v-15.68a1.169,1.169,0,0,0-.385-.867,9.685,9.685,0,0,1-3.271-7.238,9.813,9.813,0,0,1,9.8-9.787h.015a9.819,9.819,0,0,1,9.786,9.785A9.69,9.69,0,0,1,639.857,2158.025ZM654.1,2167.9H641.808v-8.5l.1-.1a12.137,12.137,0,0,0-8.574-20.721h0a12.137,12.137,0,0,0-8.585,20.716l.1.1.005.146v8.363H583.313v-78.2a8.943,8.943,0,0,0-2.852-6.614l-.635-.588h66.3a8.015,8.015,0,0,1,7.969,8.044Z" fill="#652b74"/>
        <path id="Path_56" data-name="Path 56" d="M628.5,2091.08H607.813a1.167,1.167,0,0,0,0,2.335H628.5a1.167,1.167,0,1,0,0-2.335Z" fill="#652b74"/>
        <path id="Path_57" data-name="Path 57" d="M610.928,2139.172H590.246a1.167,1.167,0,0,0,0,2.335h20.682a1.167,1.167,0,1,0,0-2.335Z" fill="#652b74"/>
        <path id="Path_58" data-name="Path 58" d="M648.3,2101.545H590.246a1.168,1.168,0,0,0,0,2.336H648.3a1.168,1.168,0,0,0,0-2.336Z" fill="#652b74"/>
        <path id="Path_59" data-name="Path 59" d="M648.3,2110.951H590.246a1.168,1.168,0,0,0,0,2.336H648.3a1.168,1.168,0,0,0,0-2.336Z" fill="#652b74"/>
        <path id="Path_60" data-name="Path 60" d="M648.3,2120.359H590.246a1.168,1.168,0,0,0,0,2.335H648.3a1.168,1.168,0,1,0,0-2.335Z" fill="#652b74"/>
        <path id="Path_61" data-name="Path 61" d="M648.3,2129.765H590.246a1.168,1.168,0,0,0,0,2.335H648.3a1.168,1.168,0,1,0,0-2.335Z" fill="#652b74"/>
      </g>
      <path id="Path_62" data-name="Path 62" d="M633.328,2144.405a6.73,6.73,0,0,0-6.711,6.712,1.168,1.168,0,0,0,2.336,0,4.375,4.375,0,1,1,8.751,0,1.168,1.168,0,0,0,2.336,0A6.728,6.728,0,0,0,633.328,2144.405Z" fill="#652b74"/>
    </g>
  </g>
</svg>
