<?xml version="1.0" encoding="UTF-8"?>
<svg viewBox="0 0 288.22 73.038" xmlns="http://www.w3.org/2000/svg">
  <g transform="translate(-59.314 -175.63)" fill="none" stroke="#8bccca" stroke-miterlimit="10" stroke-width="2" data-name="Group 4878">
    <g data-name="Group 4852" class="child">
      <path d="m60.425 237.52h1.809l1.041 10.007h4.379l1.041-10.007h1.811v-11.189h-10.081z" data-name="Path 2560"/>
      <circle transform="translate(62.128 218.41)" cx="3.336" cy="3.336" r="3.336" data-name="Ellipse 60"/>
    </g>
    <g data-name="Group 4853" class="child">
      <path d="m346.43 195.74h-1.813l-1.04 10.007h-4.376l-1.041-10.007h-1.808v-11.189h10.081z" data-name="Path 2561"/>
      <circle transform="translate(338.05 176.63)" cx="3.336" cy="3.336" r="3.336" data-name="Ellipse 61"/>
    </g>
    <g data-name="Group 4854" class="child">
      <path d="m243.08 237.52h1.809l1.041 10.007h4.379l1.041-10.007h1.811v-11.189h-10.081z" data-name="Path 2562"/>
      <circle transform="translate(244.78 218.41)" cx="3.336" cy="3.336" r="3.336" data-name="Ellipse 62"/>
    </g>
    <g data-name="Group 4855" class="child">
      <path d="m162.8 195.74h-1.813l-1.04 10.007h-4.379l-1.041-10.007h-1.808v-11.189h10.081z" data-name="Path 2563"/>
      <circle transform="translate(154.42 176.63)" cx="3.336" cy="3.336" r="3.336" data-name="Ellipse 63"/>
    </g>
    <g data-name="Group 4856" class="child">
      <path d="m290.68 237.52h1.809l1.041 10.007h4.379l1.041-10.007h1.811v-11.189h-10.081z" data-name="Path 2564"/>
      <circle transform="translate(292.39 218.41)" cx="3.336" cy="3.336" r="3.336" data-name="Ellipse 64"/>
    </g>
    <g data-name="Group 4857" class="child">
      <path d="m116.17 195.74h-1.813l-1.04 10.007h-4.379l-1.037-10.007h-1.808v-11.189h10.081z" data-name="Path 2565"/>
      <circle transform="translate(107.79 176.63)" cx="3.336" cy="3.336" r="3.336" data-name="Ellipse 65"/>
    </g>
    <g data-name="Group 4858" class="child">
      <path d="m129.41 237.52h1.809l1.041 10.007h4.379l1.041-10.007h1.811v-11.189h-10.081z" data-name="Path 2566"/>
      <circle transform="translate(131.11 218.41)" cx="3.336" cy="3.336" r="3.336" data-name="Ellipse 66"/>
    </g>
    <g data-name="Group 4859" class="child">
      <path d="m277.45 195.74h-1.813l-1.04 10.007h-4.379l-1.041-10.007h-1.808v-11.189h10.081z" data-name="Path 2567"/>
      <circle transform="translate(269.07 176.63)" cx="3.336" cy="3.336" r="3.336" data-name="Ellipse 67"/>
    </g>
    <g data-name="Group 4860" class="child">
      <path d="M92.307,227.3H85.254l-1.512,14h2.2l.648,6.226h4.379l.647-6.226h2.2Z" data-name="Path 2568"/>
      <circle transform="translate(85.444 219.38)" cx="3.336" cy="3.336" r="3.336" data-name="Ellipse 68"/>
    </g>
    <g data-name="Group 4861" class="child">
      <path d="m314.54 185.52h7.057l1.512 14h-2.2l-0.648 6.226h-4.384l-0.647-6.226h-2.2z" data-name="Path 2569"/>
      <circle transform="translate(314.73 177.6)" cx="3.336" cy="3.336" r="3.336" data-name="Ellipse 69"/>
    </g>
    <g data-name="Group 4862" class="child">
      <path d="M275.932,227.3h-7.053l-1.512,14h2.2l.648,6.226h4.379l.647-6.226h2.2Z" data-name="Path 2570"/>
      <circle transform="translate(269.07 219.38)" cx="3.336" cy="3.336" r="3.336" data-name="Ellipse 70"/>
    </g>
    <g data-name="Group 4863" class="child">
      <path d="m130.92 185.52h7.052l1.512 14h-2.2l-0.648 6.226h-4.379l-0.647-6.226h-2.2z" data-name="Path 2571"/>
      <circle transform="translate(131.11 177.6)" cx="3.336" cy="3.336" r="3.336" data-name="Ellipse 71"/>
    </g>
    <g data-name="Group 4864" class="child">
      <path d="M344.913,227.3H337.86l-1.512,14h2.2l.648,6.226h4.379l.647-6.226h2.2Z" data-name="Path 2572"/>
      <circle transform="translate(338.05 219.38)" cx="3.336" cy="3.336" r="3.336" data-name="Ellipse 72"/>
    </g>
    <g data-name="Group 4865" class="child">
      <path d="M61.938,185.524H68.99l1.512,14H68.3l-.648,6.226H63.275l-.647-6.226h-2.2Z" data-name="Path 2573"/>
      <circle transform="translate(62.128 177.6)" cx="3.336" cy="3.336" r="3.336" data-name="Ellipse 73"/>
    </g>
    <g data-name="Group 4866" class="child">
      <path d="M183.634,227.3h-7.053l-1.512,14h2.2l.648,6.226H182.3l.647-6.226h2.2Z" data-name="Path 2574"/>
      <circle transform="translate(176.77 219.38)" cx="3.336" cy="3.336" r="3.336" data-name="Ellipse 74"/>
    </g>
    <g data-name="Group 4867" class="child">
      <path d="m222.24 185.52h7.055l1.512 14h-2.2l-0.648 6.226h-4.379l-0.647-6.226h-2.2z" data-name="Path 2575"/>
      <circle transform="translate(222.44 177.6)" cx="3.336" cy="3.336" r="3.336" data-name="Ellipse 75"/>
    </g>
    <g data-name="Group 4868" class="child">
      <path d="m114.41 230.11h-5.839l-1.512 11.33h2.2l0.648 6.226h3.165l0.647-6.226h2.2z" data-name="Path 2576"/>
      <circle transform="translate(108.68 223.26)" cx="2.817" cy="2.817" r="2.817" data-name="Ellipse 76"/>
    </g>
    <g data-name="Group 4869" class="child">
      <path d="M292.2,188.335h5.839l1.512,11.33h-2.2l-.648,6.226h-3.167l-.647-6.226h-2.2Z" data-name="Path 2577"/>
      <circle transform="translate(292.3 181.49)" cx="2.817" cy="2.817" r="2.817" data-name="Ellipse 77"/>
    </g>
    <g data-name="Group 4870" class="child">
      <path d="M205.737,230.112H199.9l-1.512,11.33h2.2l.648,6.226H204.4l.647-6.226h2.2Z" data-name="Path 2578"/>
      <circle transform="translate(200 223.26)" cx="2.817" cy="2.817" r="2.817" data-name="Ellipse 78"/>
    </g>
    <g data-name="Group 4871" class="child">
      <path d="M199.9,188.335h5.839l1.512,11.33h-2.2l-.648,6.226h-3.167l-.647-6.226h-2.2Z" data-name="Path 2579"/>
      <circle transform="translate(200 181.49)" cx="2.817" cy="2.817" r="2.817" data-name="Ellipse 79"/>
    </g>
    <g data-name="Group 4872" class="child">
      <path d="M321.353,230.112h-5.839L314,241.442h2.2l.648,6.226h3.165l.647-6.226h2.2Z" data-name="Path 2580"/>
      <circle transform="translate(315.62 223.26)" cx="2.817" cy="2.817" r="2.817" data-name="Ellipse 80"/>
    </g>
    <g data-name="Group 4873" class="child">
      <path d="M85.255,188.335h5.839l1.512,11.33h-2.2l-.648,6.226H86.591l-.647-6.226h-2.2Z" data-name="Path 2581"/>
      <circle transform="translate(85.357 181.49)" cx="2.817" cy="2.817" r="2.817" data-name="Ellipse 81"/>
    </g>
    <g data-name="Group 4874" class="child">
      <path d="m152.72 239.84h1.809l1.041 7.581h3.165l1.041-7.581h1.808v-8.762h-8.864z" data-name="Path 2582"/>
      <circle transform="translate(154.34 224.24)" cx="2.817" cy="2.817" r="2.817" data-name="Ellipse 82"/>
    </g>
    <g data-name="Group 4875" class="child">
      <path d="m253.88 198.07h-1.809l-1.041 7.581h-3.165l-1.041-7.581h-1.808v-8.767h8.864z" data-name="Path 2583"/>
      <circle transform="translate(246.64 182.46)" cx="2.817" cy="2.817" r="2.817" data-name="Ellipse 83"/>
    </g>
    <g data-name="Group 4876" class="child">
      <path d="m220.73 239.84h1.809l1.041 7.581h3.165l1.041-7.581h1.812v-8.762h-8.864z" data-name="Path 2584"/>
      <circle transform="translate(222.35 224.24)" cx="2.817" cy="2.817" r="2.817" data-name="Ellipse 84"/>
    </g>
    <g data-name="Group 4877" class="child">
      <path d="m184.9 198.07h-1.8l-1.041 7.581h-3.165l-1.041-7.581h-1.813v-8.767h8.86z" data-name="Path 2585"/>
      <circle transform="translate(177.66 182.46)" cx="2.817" cy="2.817" r="2.817" data-name="Ellipse 85"/>
    </g>
  </g>
</svg>
