<svg xmlns="http://www.w3.org/2000/svg" width="338" height="72" viewBox="0 0 338 72">
  <g id="Group_135" data-name="Group 135" transform="translate(-1331 -2772)">
    <rect id="Rectangle_36" data-name="Rectangle 36" width="338" height="72" transform="translate(1331 2772)" fill="#fff"/>
    <g id="Group_6" data-name="Group 6" class="bus">
      <path id="Path_3" data-name="Path 3" d="M1590.92,2776.771H1488.054a5.952,5.952,0,0,0-3.5,1.136,34.65,34.65,0,0,1,6.244,1.168h97.239V2795.2a6,6,0,0,0,5.991,5.99h.46v12.1a3.605,3.605,0,0,1-3.686,3.686h-10.79l-.034-.19a8.265,8.265,0,0,0-9.3-6.724,8.368,8.368,0,0,0-6.719,6.727l-.037.187h-28.107a6.925,6.925,0,0,1,.1,2.3h28.129l.033.189a8.266,8.266,0,0,0,9.3,6.725,8.369,8.369,0,0,0,6.72-6.728l.037-.186h10.787a6,6,0,0,0,5.991-5.99v-30.526A6,6,0,0,0,1590.92,2776.771Zm-18.891,47.113a5.875,5.875,0,1,1,5.874-5.874A5.881,5.881,0,0,1,1572.029,2823.884Zm22.577-25h-.46a3.6,3.6,0,0,1-3.686-3.685V2778.96h.46a3.8,3.8,0,0,1,3.686,3.75Z" fill="#f9eae8"/>
      <path id="Path_4" data-name="Path 4" d="M1576.061,2784.872h-9.446a5.976,5.976,0,0,0-5.837,5.952v4.262a5.844,5.844,0,0,0,5.837,5.837h9.446a5.843,5.843,0,0,0,5.836-5.837v-4.377A5.843,5.843,0,0,0,1576.061,2784.872Zm3.839,10.214a3.8,3.8,0,0,1-3.839,3.84h-9.331a3.8,3.8,0,0,1-3.839-3.84l-.116-4.262a3.8,3.8,0,0,1,3.84-3.839h9.446a3.8,3.8,0,0,1,3.839,3.839Z" fill="#f9eae8"/>
      <path id="Path_5" data-name="Path 5" d="M1548.76,2784.988h-44.754q1.648.97,3.247,2h3.992v2.654c.265.181.531.362.793.543.4.273.8.542,1.205.811v-4.123h18.507v12.056h-7.075c.228.2.465.39.687.594a13.366,13.366,0,0,1,1.4,1.519h22a4.114,4.114,0,0,0,4.109-4.11V2789.1A4.113,4.113,0,0,0,1548.76,2784.988Zm1.527,13.357a2.039,2.039,0,0,1-1.527.7h-15.128v-12.056h15.013a2.166,2.166,0,0,1,2.112,2.111v7.833A1.813,1.813,0,0,1,1550.287,2798.345Z" fill="#f9eae8"/>
      <path id="Path_6" data-name="Path 6" d="M1572.259,2774.083a1.166,1.166,0,0,0,.729-.45.793.793,0,0,0,.16-.6,1.181,1.181,0,0,0-.456-.792.8.8,0,0,0-.6-.16l-68.142,0a1.173,1.173,0,0,0-.729.451.8.8,0,0,0-.159.6,1.181,1.181,0,0,0,.456.792.814.814,0,0,0,.6.159Z" fill="#f9eae8"/>
    </g>
    <g id="Group_7" data-name="Group 7" class="train">
      <path id="Path_142" data-name="Path 142" d="M1384.979,2777.065l81.548-.869,29.96,4.6,20.835,12.753,17.97,19.815,1.879,8.738-4.552,3.665-108.654,1.039H1384.15Z" fill="#fff"/>
      <path id="Path_7" data-name="Path 7" d="M1410.977,2792.532h59.6a2.165,2.165,0,0,0,0-4.329h-59.6a2.165,2.165,0,0,0,0,4.329Z" fill="#F29131"/>
      <path id="Path_8" data-name="Path 8" d="M1409.376,2828.723h120.867a9.243,9.243,0,0,0,8.376-13.154,8.539,8.539,0,0,0-1.054-1.7c-10.913-17.3-30.32-39.292-72.5-39.292h-54.09a2.165,2.165,0,0,0,0,4.329h54.087c16.955,0,30.029,3.742,40.263,9.3h-16.481a2.165,2.165,0,0,0,0,4.329h23.422c10.557,7.487,17.479,16.868,22.462,24.972a4.889,4.889,0,0,1-4.487,6.889H1409.376a2.165,2.165,0,1,0,0,4.33Z" fill="#F29131"/>
      <path id="Path_9" data-name="Path 9" d="M1552.427,2834.831l-167.448,2.348a6.985,6.985,0,0,1,1.819,4.3l165.7-2.32a2.164,2.164,0,0,0,2.13-2.2A2.217,2.217,0,0,0,1552.427,2834.831Z" fill="#F29131"/>
    </g>
  </g>
</svg>
