<svg xmlns="http://www.w3.org/2000/svg" width="115.874" height="102.808" viewBox="0 0 115.874 102.808">
  <g id="Group_131" data-name="Group 131" transform="translate(-921.683 -1438.55)">
    <path id="Path_111" data-name="Path 111" d="M1036.3,1506.482a6.114,6.114,0,0,0-6.695-2.214l-.989.3-.185-1.015a5.57,5.57,0,0,0-8.073-3.947l-4.425,2.338-.236-1.224a5.519,5.519,0,0,0-8.049-3.824l-3.405,1.85-.231-1.252a5.762,5.762,0,0,0-1.015-2.358,5.668,5.668,0,0,0-3.477-2.219,8.941,8.941,0,0,1-1.985,2.773,2.975,2.975,0,0,1,2.28,5.461l-7.468,4.057H979.321l12.21-6.417c-2.646.78-5.467,1.239-7.862,2.035a5,5,0,0,1-2.306.2l-7.693,4.044-.386-.145a37.1,37.1,0,0,0-19.109-1.7c-9.2,1.718-16.844,7.266-18.967,8.925l-.25.2h-11.9a1.377,1.377,0,0,0-1.371,1.38V1536.4a1.377,1.377,0,0,0,1.371,1.38h12.29l38.788,3.466c.844.076,1.717.115,2.594.115,11.016,0,21.946-6.075,31.59-11.434l.417-.231c1.041-.577,2.069-1.149,3.084-1.7l22.5-12.289a6.237,6.237,0,0,0,1.982-9.219Zm-14.668-4.438a2.837,2.837,0,0,1,3.624.862,2.844,2.844,0,0,1-.927,4.133l-11.27,6.278c-10.725,5.975-20.05,8.91-28.362,8.91a33.6,33.6,0,0,1-3.822-.214l-.167-.035-5.99-1.845,22.622-2.87a6.049,6.049,0,0,0,5.132-4.727l.091-.42Zm-12.682-2.726a2.79,2.79,0,1,1,2.625,4.923l-9.274,4.9-.437-.8a6.084,6.084,0,0,0-2.284-2.335l-1.427-.823Zm25.785,11.648a3.415,3.415,0,0,1-1.724,2.311l-22.5,12.289c-1.158.632-2.331,1.284-3.519,1.944-9.4,5.223-19.96,11.088-30.286,11.088-.779,0-1.555-.032-2.33-.1l-38.808-3.472a1.164,1.164,0,0,0-.122-.006H924.424V1515.1h11.022a1.373,1.373,0,0,0,.883-.324c.082-.07,8.323-6.973,18.345-8.844a34.59,34.59,0,0,1,18.5,1.908c.1.037.136.051.173.063.1.025.136.032.173.038a1.611,1.611,0,0,0,.211.02h22.855a3.294,3.294,0,0,1,.413,6.561l-28.963,3.676a1.381,1.381,0,0,0-.23,2.687l12.3,3.788a1.314,1.314,0,0,0,.238.052c9.89,1.191,21.031-1.749,34.043-9l15.364-8.56a3.456,3.456,0,0,1,4.984,3.795Z" fill="#c8e2e8"/>
    <g id="Group_78" data-name="Group 78" opacity="0.996" style="isolation: isolate">
      <path id="Path_112" data-name="Path 112" d="M988.647,1452.926c-.378-.025-9.347-.591-15.256,4.929a14.917,14.917,0,0,0-3.915,6.07l-.216.619h-4.48a1.379,1.379,0,0,0,0,2.758h3.854l-.1,1.015c-.082.815-.124,1.636-.124,2.438,0,.429.014.849.034,1.264l.049.969H964.78a1.379,1.379,0,0,0,0,2.758h4.149l.184.681a15.138,15.138,0,0,0,4.278,7.228c4.789,4.474,11.559,4.957,14.248,4.957.574,0,.934-.023,1-.028a1.378,1.378,0,0,0,1.274-1.475,1.364,1.364,0,0,0-.473-.946,1.349,1.349,0,0,0-.99-.331c-.076.01-8.119.546-13.2-4.2a12.155,12.155,0,0,1-3.07-4.638l-.472-1.249h12.648a1.379,1.379,0,0,0,0-2.758H971.248l-.054-.867c-.028-.445-.045-.9-.045-1.366a20.741,20.741,0,0,1,.165-2.647l.1-.806h12.944a1.379,1.379,0,0,0,0-2.758H972.08l.684-1.342a11.937,11.937,0,0,1,2.471-3.305c4.83-4.535,12.359-4.263,13.2-4.22a1.343,1.343,0,0,0,1.01-.332,1.382,1.382,0,0,0-.8-2.419Z" fill="#4d9cce"/>
      <path id="Path_113" data-name="Path 113" d="M979.8,1502.966a32.208,32.208,0,1,0-32.079-32.208A32.181,32.181,0,0,0,979.8,1502.966Zm0-61.657a29.449,29.449,0,1,1-29.338,29.449A29.427,29.427,0,0,1,979.8,1441.309Z" fill="#4d9cce"/>
    </g>
  </g>
</svg>
