<svg xmlns="http://www.w3.org/2000/svg" width="269.603" height="141.89" viewBox="0 0 269.603 141.89">
  <g id="Group_130" data-name="Group 130" transform="translate(-1795.714 -771.032)">
    <g id="Group_95" data-name="Group 95">
      <path id="Path_118" data-name="Path 118" d="M2041.382,842.619l-.3-.2,17.676-35.01.341.124a3.45,3.45,0,0,0,2.834-6.282l-59.146-29.861a3.45,3.45,0,0,0-3.373,6.01l.3.2-17.623,34.907-.342-.125a3.449,3.449,0,0,0-2.832,6.281l22.856,11.54-1.025,2.031a7.4,7.4,0,0,0-.808,3.8l.015.193-.141.133-19.531,18.495a.817.817,0,0,0-.063,1.065.871.871,0,0,1,.183.2l.019.024a.722.722,0,0,0,.779-.175l18.978-17.984.238.52a7.812,7.812,0,0,0,2.665,3.341l.29.2-11.883,23.537a.758.758,0,1,0,1.353.683l11.883-23.537.336.113a8.8,8.8,0,0,0,4.685.112l.564-.123-.03.245-3.218,26.033a.731.731,0,0,0,.347.787.43.43,0,0,0,.071.033l.111-.021a.831.831,0,0,0,.9-.668l3.361-27.5.128-.1a8.069,8.069,0,0,0,2.147-2.52l1.025-2.031,22.857,11.54a3.449,3.449,0,0,0,3.372-6.01Zm-41.016-66.439a1.925,1.925,0,1,1,1.735-3.437l59.249,29.913a1.925,1.925,0,1,1-1.735,3.437Zm57.161,30.557-17.664,34.988-56.44-28.494,17.665-34.988Zm-44.6,31.649a6.008,6.008,0,0,1-10.726-5.416l1.026-2.031,10.726,5.415Zm25.918,8.838L1979.6,817.311a1.925,1.925,0,0,1,1.735-3.437l59.249,29.913a1.925,1.925,0,1,1-1.735,3.437Z" fill="#bae5e3"/>
      <path id="Path_119" data-name="Path 119" d="M2041.172,815.857a.941.941,0,0,0-.371-.938l-4.223-2.133a.654.654,0,0,0-.59,1.168l2.6,1.311-13.136,2.833-.122-.246a2.038,2.038,0,0,0-.875-.926,2.871,2.871,0,0,0-1.281-.238h-.267l-.03-.11-3.986-14.2.2-.392a2.091,2.091,0,0,0-.913-2.772,2.018,2.018,0,0,0-2.682.957l-.079.157-.171.031-11.3,2.113-.131-.177a2.645,2.645,0,0,0-.773-.8,1.963,1.963,0,1,0,.868,2.637l.169-.335,11.381-2.109.118.238a2.128,2.128,0,0,0,.965.972,1.657,1.657,0,0,0,1.129.2l.314-.055,4.121,14.635-.062.122a1.962,1.962,0,1,0,3.5,1.769l.122-.241.166-.034,13.606-2.894-1.194,2.364a.654.654,0,1,0,1.167.589Z" fill="#bae5e3"/>
    </g>
    <g id="Group_96" data-name="Group 96">
      <path id="Path_121" data-name="Path 121" d="M1830.831,783.626a1.128,1.128,0,0,0-1.55.165l-17.036,20.269a.431.431,0,0,0-.153.349,1.656,1.656,0,0,0,.527,1.138l.077.086a1.482,1.482,0,0,0,.264.083,1.05,1.05,0,0,0,1.159-.45l16.91-20.133A1.112,1.112,0,0,0,1830.831,783.626Z" fill="#bae5e3"/>
      <path id="Path_122" data-name="Path 122" d="M1820.845,810.845l16.91-20.135a1.247,1.247,0,0,0,.192-.819.959.959,0,0,0-.389-.686,1.13,1.13,0,0,0-1.551.164l-16.946,20.179a1.269,1.269,0,0,0,.283,1.577l.077.086a1.488,1.488,0,0,0,.265.083A1.06,1.06,0,0,0,1820.845,810.845Z" fill="#bae5e3"/>
      <path id="Path_123" data-name="Path 123" d="M1827.569,816.423l16.912-20.134a1.248,1.248,0,0,0,.192-.819.961.961,0,0,0-.389-.687,1.263,1.263,0,0,0-.865-.225.953.953,0,0,0-.684.39l-16.948,20.179a1.11,1.11,0,0,0,.2,1.505l.162.158a1.708,1.708,0,0,0,.265.083A1.056,1.056,0,0,0,1827.569,816.423Z" fill="#bae5e3"/>
      <path id="Path_124" data-name="Path 124" d="M1851.009,800.361a1.129,1.129,0,0,0-1.55.165l-16.766,20.219a1.051,1.051,0,0,0-.345.833.864.864,0,0,0,.363.633l.163.157a1.453,1.453,0,0,0,.264.083,1.052,1.052,0,0,0,1.159-.45l16.911-20.134A1.116,1.116,0,0,0,1851.009,800.361Z" fill="#bae5e3"/>
      <path id="Path_125" data-name="Path 125" d="M1845.407,840.528l.212.02a1.155,1.155,0,0,0,.8-.385l24.946-30.017a.84.84,0,0,0,.158-.648.977.977,0,0,0-.4-.682l-.043-.034-44.813-37.558a.833.833,0,0,0-.328-.146,1.824,1.824,0,0,0-.587-.038,1.17,1.17,0,0,0-.805.384l-24.944,30.019a1.109,1.109,0,0,0,.2,1.508l45.164,37.528.06.1c.005-.021.18.021.237.035Zm-.114-2.553-43.3-35.941,23.649-28.244,43.3,35.942Z" fill="#bae5e3"/>
    </g>
    <path id="Path_126" data-name="Path 126" d="M2056.839,862.8l-.521-.29-.081.02-.125-.043a1.228,1.228,0,0,1-.242.008l-.047.01L2000.4,875.276a1.1,1.1,0,0,1-.378.148,1.038,1.038,0,0,1-.255.209l.122.072-.356.6a1.154,1.154,0,0,1-.064.409l7.87,33.514.143.084.063.243.115.069a1.422,1.422,0,0,1,.469.473.519.519,0,0,0,.174.028l.181.033.114-.027,56.1-12.812.08-.022.477-.8a1.125,1.125,0,0,1,.063-.406l-8.019-33.606-.144-.084-.072-.278A1.138,1.138,0,0,1,2056.839,862.8Zm-3.1,1.962-21.575,21.094-28.921-9.623Zm-52.317,12.513,29.373,9.882-.329.321-21.77,21.318Zm9.478,31.672,21.656-21.248.165.056,28.622,9.733Zm52.4-12.664-29.373-9.88.329-.321,21.768-21.318Z" fill="#bae5e3"/>
    <path id="Path_127" data-name="Path 127" d="M1795.73,899.56a.623.623,0,0,0,.083.479.657.657,0,0,0,.405.286l57.321,12.578a.6.6,0,0,0,.764-.49l11.007-50.165a.6.6,0,0,0-.489-.764l-7.237-1.587,1.054-4.8a.6.6,0,0,0-.489-.764l-4.167-.915a.634.634,0,0,0-.494.071.642.642,0,0,0-.27.419l-1.053,4.8-.16-.036-31.692-6.953,1.054-4.8a.6.6,0,0,0-.489-.763l-4.166-.916a.6.6,0,0,0-.764.491l-1.053,4.8-.16-.036-7.234-1.587a.683.683,0,0,0-.41.024.614.614,0,0,0-.354.465Zm7.6-28.659,1.708-7.788.161.035,10.068,2.209-.035.16-1.709,7.788-.16-.036-10.069-2.208Zm21.362,6.335-1.742,7.945-.16-.036-10.069-2.208.036-.16,1.743-7.946.16.036,10.068,2.209Zm1.27.193.16.035,10.069,2.209-.036.16-1.743,7.945-.16-.035-10.067-2.209.035-.16Zm-3.3,9.082-.036.161-1.742,7.944-.161-.036-10.068-2.207.036-.161,1.742-7.946.161.036Zm-.491,8.22,1.742-7.946.16.036,10.069,2.209-.036.16-1.743,7.945-.16-.036-10.067-2.208Zm11.48,2.519,1.742-7.946.16.036,10.069,2.209-.036.16-1.743,7.945-.16-.036-10.068-2.208Zm2.035-9.275.035-.161,1.742-7.945.16.036,10.069,2.208-.036.161-1.743,7.945-.16-.036Zm2.052-9.357.036-.16,1.708-7.789.161.036,10.067,2.209-.035.16-1.709,7.788-.16-.036Zm.457-8.063-1.708,7.788-.161-.036-10.067-2.208.036-.16,1.707-7.788.16.035,10.069,2.209Zm-11.48-2.519L1825,875.824l-.16-.036-10.068-2.208.036-.16,1.707-7.788.16.035,10.069,2.209Zm-25.451,12.3,1.743-7.946.16.036,10.068,2.209-.036.16-1.742,7.945-.16-.036-10.069-2.208Zm-2.053,9.356,1.743-7.946.16.036,10.068,2.209-.036.161L1809.4,892.1l-.16-.035-10.069-2.208Zm7.98,11.725-10.069-2.207.036-.161,1.743-7.946.16.036,10.068,2.209-.036.161-1.742,7.944Zm11.479,2.519L1808.6,901.73l.036-.161,1.743-7.946.16.036,10.068,2.209-.036.161-1.742,7.944Zm11.48,2.519-10.068-2.208.036-.16,1.742-7.946.161.036,10.067,2.209-.035.16-1.743,7.945Zm11.48,2.519-10.068-2.208.036-.16,1.742-7.946.16.036,10.069,2.209-.036.16-1.743,7.945Zm13.383-5.39-1.743,7.945-.16-.036-10.068-2.208.036-.16,1.742-7.946.16.036,10.069,2.209Zm2.053-9.357-1.743,7.945-.161-.036-10.067-2.208.036-.16,1.742-7.946.16.036,10.069,2.209Zm2.07-9.435-1.742,7.944-.16-.036-10.069-2.207.036-.161,1.742-7.945.16.036,10.069,2.208Zm2.018-9.2-1.707,7.787-10.229-2.243.036-.16,1.708-7.789.16.036,10.068,2.209Zm.232-1.429-.16-.036-55.908-12.266.484-2.209.16.036,55.909,12.267Zm-7.051-19.355,2.916.639-.036.16-1.691,7.709-2.915-.64.036-.16Zm-37.27-8.178,2.916.639-.036.16-1.69,7.71-2.916-.639.035-.16Zm-9.211,3.665.161.036,6.609,1.449-.675,3.07a.6.6,0,0,0,.488.764l4.168.914a.6.6,0,0,0,.765-.488l.672-3.071.161.036,31.769,6.97-.674,3.07a.6.6,0,0,0,.488.764l4.168.914a.628.628,0,0,0,.494-.069.649.649,0,0,0,.27-.42l.673-3.07.161.036,6.45,1.416-.036.16L1862.2,870.8l-.16-.036-55.988-12.284.036-.161Z" fill="#bae5e3"/>
  </g>
</svg>
