<svg xmlns="http://www.w3.org/2000/svg" width="118.139" height="179.623" viewBox="0 0 118.139 179.623">
  <g id="Group_36" data-name="Group 36" transform="translate(-947.311 -2059.367)">
    <g id="Group_4854" data-name="Group 4854" class="child">
      <path id="Path_42" data-name="Path 42" d="M1027.7,2174.057a6.334,6.334,0,0,1,.2-.942c.095-.284.159-.576.228-.867,0-.168-.005-.382,0-.564-.07-.326-.169-.892-.2-1.006-.043-.179-.068-.3-.086-.4-.05-.095-.109-.211-.189-.378-1.772-3.725-.941-7.75,2.637-10.057.124-.08.256-.147.386-.216v-53.011H964.585v51.734a8.216,8.216,0,0,1,5.028,2.149,5.618,5.618,0,0,1,.935,1.122v-49.041h54.159v60.769h-10.5l-6.214,59.68H987.258l-6.209-59.68h-10.5v-1.69a9.031,9.031,0,0,1-.935,1.209,7.348,7.348,0,0,1-3.243,1.89l-1.785.24v4.315h11.089l6.208,59.68h31.486l6.214-59.68h6.636A7.93,7.93,0,0,1,1027.7,2174.057Z" fill="#f2dfea"/>
      <path id="Path_43" data-name="Path 43" d="M997.619,2105.122a22.878,22.878,0,1,1,22.877-22.877A22.9,22.9,0,0,1,997.619,2105.122Zm0-39.791a16.913,16.913,0,1,0,16.914,16.914A16.935,16.935,0,0,0,997.619,2065.331Z" fill="#f2dfea"/>
    </g>
    <g id="Group_4854-2" data-name="Group 4854" opacity="0.996" style="isolation: isolate" class="child">
      <path id="Path_44" data-name="Path 44" d="M1054.79,2238.99h-19.4l-3.825-36.768h-6.831v-44.787h40.714v44.787h-6.831Zm-16.086-3.674h12.774l3.829-36.768h6.469v-37.439H1028.41v37.439h6.469Z" fill="#652b74"/>
      <path id="Path_45" data-name="Path 45" d="M1045.088,2156.517a14.095,14.095,0,1,1,14.094-14.095A14.111,14.111,0,0,1,1045.088,2156.517Zm0-24.515a10.42,10.42,0,1,0,10.42,10.42A10.433,10.433,0,0,0,1045.088,2132Z" fill="#652b74"/>
    </g>
    <g id="Group_4854-3" data-name="Group 4854" opacity="0.996" style="isolation: isolate" class="child">
      <path id="Path_46" data-name="Path 46" d="M970.033,2238.99H955.368l-2.892-27.8h-5.165V2177.33h30.782v33.862h-5.165Zm-12.161-2.778h9.657l2.9-27.8h4.891v-28.306H950.089v28.306h4.891Z" fill="#652b74"/>
      <path id="Path_47" data-name="Path 47" d="M962.7,2176.635a10.656,10.656,0,1,1,10.656-10.656A10.668,10.668,0,0,1,962.7,2176.635Zm0-18.534a7.878,7.878,0,1,0,7.878,7.878A7.888,7.888,0,0,0,962.7,2158.1Z" fill="#652b74"/>
    </g>
  </g>
</svg>
