<svg id="Group_279" data-name="Group 279" xmlns="http://www.w3.org/2000/svg" xmlns:xlink="http://www.w3.org/1999/xlink" width="15.6" height="15.6" viewBox="0 0 15.6 15.6">
  <defs>
    <clipPath id="clip-path">
      <path id="Path_192" data-name="Path 192" d="M9.4-17.256V-2.744c0,.3.358.544.8.544s.8-.244.8-.544V-17.256c0-.3-.358-.544-.8-.544S9.4-17.556,9.4-17.256Z" transform="translate(-9.4 17.8)" fill="none"/>
    </clipPath>
    <clipPath id="clip-path-2">
      <path id="Path_194" data-name="Path 194" d="M2.944-9.2H17.456c.3,0,.544-.358.544-.8s-.244-.8-.544-.8H2.944c-.3,0-.544.358-.544.8S2.644-9.2,2.944-9.2Z" transform="translate(-2.4 10.8)" fill="none"/>
    </clipPath>
  </defs>
  <g id="Group_277" data-name="Group 277" transform="translate(7)" clip-path="url(#clip-path)">
    <path id="Path_191" data-name="Path 191" d="M16-22.8V2.8H4.4V-22.8Z" transform="translate(-9.4 17.8)" fill="#802437"/>
  </g>
  <g id="Group_278" data-name="Group 278" transform="translate(0 7)" clip-path="url(#clip-path-2)">
    <path id="Path_193" data-name="Path 193" d="M-2.6-4.2H23V-15.8H-2.6Z" transform="translate(-2.4 10.8)" fill="#802437"/>
  </g>
</svg>
