<svg xmlns="http://www.w3.org/2000/svg" width="89.908" height="64.624" viewBox="0 0 89.908 64.624">
  <g id="Group_11554" data-name="Group 11554" transform="translate(-1990.715 -579.621)">
    <g id="Group_11538" data-name="Group 11538" transform="translate(2021.811 580.621)">
      <circle id="Ellipse_1001" data-name="Ellipse 1001" cx="19.271" cy="19.271" r="19.271" fill="none" stroke="#fff" stroke-miterlimit="10" stroke-width="2"/>
      <path id="Path_5008" data-name="Path 5008" d="M1755.011,588.752l5.452-5.452,15.236,15.236a3.856,3.856,0,0,1,0,5.452h0a3.853,3.853,0,0,1-5.45,0Z" transform="translate(-1719.015 -547.303)" fill="none" stroke="#fff" stroke-miterlimit="10" stroke-width="2"/>
      <line id="Line_1452" data-name="Line 1452" x2="6.099" y2="6.099" transform="translate(32.702 32.699)" fill="none" stroke="#fff" stroke-miterlimit="10" stroke-width="2"/>
    </g>
    <g id="Group_11539" data-name="Group 11539" transform="translate(1991.715 583.503)">
      <path id="Path_5009" data-name="Path 5009" d="M1728.423,608.242V585.117h-7.708v23.125" transform="translate(-1720.714 -548.501)" fill="none" stroke="#fff" stroke-miterlimit="10" stroke-width="2"/>
      <path id="Path_5010" data-name="Path 5010" d="M1736.423,615.66V577.116h-7.708V615.66" transform="translate(-1713.298 -555.919)" fill="none" stroke="#fff" stroke-miterlimit="10" stroke-width="2"/>
      <path id="Path_5011" data-name="Path 5011" d="M1744.423,604.478v-15.3h-7.708v15.3" transform="translate(-1705.881 -544.737)" fill="none" stroke="#fff" stroke-miterlimit="10" stroke-width="2"/>
      <path id="Path_5012" data-name="Path 5012" d="M1755.277,596.92v-26.8h-11.562v27.274" transform="translate(-1699.391 -562.404)" fill="none" stroke="#fff" stroke-miterlimit="10" stroke-width="2"/>
      <path id="Path_5013" data-name="Path 5013" d="M1720.714,566.117v59.741h53.959V606.586" transform="translate(-1720.714 -566.117)" fill="none" stroke="#fff" stroke-miterlimit="10" stroke-width="2"/>
      <line id="Line_1453" data-name="Line 1453" y2="19.272" transform="translate(46.25 40.469)" fill="none" stroke="#fff" stroke-miterlimit="10" stroke-width="2"/>
    </g>
  </g>
</svg>
