<svg xmlns="http://www.w3.org/2000/svg" width="58.511" height="55.951" viewBox="0 0 58.511 55.951">
  <g id="Group_5180" data-name="Group 5180" transform="translate(0.851 31.938)">
    <path id="Path_315" data-name="Path 315" d="M16.34-21.019H12.933a.856.856,0,0,1-.826-.9V-28.98a.856.856,0,0,1,.826-.9H16.34a.856.856,0,0,1,.826.9v7.057A.873.873,0,0,1,16.34-21.019Zm-2.581-1.807h1.729v-5.25H13.759Z" transform="translate(8.705 1.658)" fill="#8bccca" fill-rule="evenodd"/>
    <path id="Path_316" data-name="Path 316" d="M21.311-16.815H7.013a.813.813,0,0,1-.9-.723v-5.646a.813.813,0,0,1,.9-.723H21.282a.813.813,0,0,1,.9.723v5.646C22.208-17.154,21.787-16.815,21.311-16.815ZM7.939-18.283H20.413v-4.178H7.939Z" transform="translate(3.873 6.478)" fill="#8bccca" fill-rule="evenodd"/>
    <path id="Path_317" data-name="Path 317" d="M25.93-10.019H1.01a.887.887,0,0,1-.894-.9V-17.98a.887.887,0,0,1,.894-.9H25.9a.887.887,0,0,1,.894.9v7.057A.864.864,0,0,1,25.93-10.019Zm-24-1.807h23.1v-5.25H1.932Z" transform="translate(-0.967 10.53)" fill="#8bccca" fill-rule="evenodd"/>
    <path id="Path_318" data-name="Path 318" d="M23.726-4.019H4.018a.891.891,0,0,1-.9-.9V-11.98a.891.891,0,0,1,.9-.9H23.726a.891.891,0,0,1,.9.9v7.057A.928.928,0,0,1,23.726-4.019ZM4.919-5.854H22.8v-5.222H4.919Z" transform="translate(1.454 15.37)" fill="#8bccca" fill-rule="evenodd"/>
    <path id="Path_319" data-name="Path 319" d="M22.786-21.019H18.244a1,1,0,0,1-1.1-.9V-28.98a1,1,0,0,1,1.1-.9h4.542a1,1,0,0,1,1.1.9v7.057A1,1,0,0,1,22.786-21.019Zm-3.441-1.807h2.306v-5.25H19.345Z" transform="translate(13.886 1.658)" fill="#8bccca" fill-rule="evenodd"/>
    <path id="Path_320" data-name="Path 320" d="M32.282-16.815H18.013a.813.813,0,0,1-.9-.723v-5.646a.813.813,0,0,1,.9-.723H32.282a.813.813,0,0,1,.9.723v5.646A.829.829,0,0,1,32.282-16.815ZM18.911-18.283H31.385v-4.178H18.911Z" transform="translate(13.865 6.478)" fill="#8bccca" fill-rule="evenodd"/>
    <path id="Path_321" data-name="Path 321" d="M42.9-10.019H18.01a.887.887,0,0,1-.894-.9V-17.98a.887.887,0,0,1,.894-.9H42.9a.887.887,0,0,1,.894.9v7.057A.887.887,0,0,1,42.9-10.019Zm-24-1.807h23.1v-5.25H18.9Z" transform="translate(13.864 10.53)" fill="#8bccca" fill-rule="evenodd"/>
    <path id="Path_322" data-name="Path 322" d="M37.726-4.019H18.018a.891.891,0,0,1-.9-.9V-11.98a.891.891,0,0,1,.9-.9H37.726a.891.891,0,0,1,.9.9v7.057A.908.908,0,0,1,37.726-4.019ZM18.919-5.854H36.8v-5.222H18.919Z" transform="translate(13.865 15.37)" fill="#8bccca" fill-rule="evenodd"/>
    <path id="Path_323" data-name="Path 323" d="M18.7.185H10a.808.808,0,0,1-.889-.723V-6.184A.808.808,0,0,1,10-6.906h8.672a.808.808,0,0,1,.889.723V-.538C19.594-.131,19.177.185,18.7.185ZM10.922-1.283h6.865V-5.461H10.922Z" transform="translate(6.292 20.191)" fill="#8bccca" fill-rule="evenodd"/>
    <path id="Path_324" data-name="Path 324" d="M26.676.185H18a.808.808,0,0,1-.889-.723V-6.184A.808.808,0,0,1,18-6.906h8.672a.808.808,0,0,1,.889.723V-.538A.808.808,0,0,1,26.676.185ZM18.894-1.283h6.865V-5.461H18.894Z" transform="translate(13.864 20.191)" fill="#8bccca" fill-rule="evenodd"/>
    <path id="Path_325" data-name="Path 325" d="M55.205,22.3H29.115V-31.081a.849.849,0,0,0-.862-.858.849.849,0,0,0-.862.858V22.3H.924a.857.857,0,1,0,0,1.715H55.205a.857.857,0,1,0,0-1.715Z" transform="translate(0.109 0)" fill="#8bccca" fill-rule="evenodd"/>
  </g>
</svg>
