<svg xmlns="http://www.w3.org/2000/svg" width="338" height="338" viewBox="0 0 338 338">
  <g id="Group_5414" data-name="Group 5414" transform="translate(-181 -1474)">
    <path id="Subtraction_15" data-name="Subtraction 15" d="M2734,382a170.252,170.252,0,0,1-34.06-3.433,168.071,168.071,0,0,1-60.43-25.429,169.5,169.5,0,0,1-61.23-74.355,168.157,168.157,0,0,1-9.847-31.723,170.641,170.641,0,0,1,0-68.119,168.062,168.062,0,0,1,25.429-60.43,169.495,169.495,0,0,1,74.355-61.23,168.16,168.16,0,0,1,31.723-9.847,170.651,170.651,0,0,1,68.119,0,168.077,168.077,0,0,1,60.43,25.429,169.493,169.493,0,0,1,61.229,74.355,168.162,168.162,0,0,1,9.847,31.723,170.653,170.653,0,0,1,0,68.119,168.077,168.077,0,0,1-25.429,60.43,169.491,169.491,0,0,1-74.355,61.229,168.143,168.143,0,0,1-31.723,9.847A170.252,170.252,0,0,1,2734,382Zm0-313a145.06,145.06,0,0,0-29.021,2.926,143.213,143.213,0,0,0-51.491,21.667,144.418,144.418,0,0,0-52.172,63.356,143.267,143.267,0,0,0-8.391,27.03,145.405,145.405,0,0,0,0,58.042,143.213,143.213,0,0,0,21.667,51.491,144.42,144.42,0,0,0,63.356,52.172,143.27,143.27,0,0,0,27.03,8.391,145.4,145.4,0,0,0,58.042,0,143.212,143.212,0,0,0,51.491-21.667,144.419,144.419,0,0,0,52.172-63.356,143.282,143.282,0,0,0,8.391-27.03,145.405,145.405,0,0,0,0-58.042,143.218,143.218,0,0,0-21.667-51.491,144.418,144.418,0,0,0-63.356-52.172,143.267,143.267,0,0,0-27.03-8.391A145.054,145.054,0,0,0,2734,69Z" transform="translate(-2384 1430)" fill="#29b5ba"/>
    <text id="_1_119" data-name="#1/119" transform="translate(212 1680)" fill="#29b5ba" font-size="64" font-family="CorporateSPro-Light, Corporate S Pro" font-weight="300"><tspan x="62.31" y="57">#1</tspan><tspan y="57" fill="#b4a4a9" font-size="37.331" baseline-shift="21.33119979772072">/119</tspan></text>
    <g id="Group_470" data-name="Group 470" transform="translate(303.391 1593.222)">
      <path id="Path_315" data-name="Path 315" d="M19.02-15.407H13.456a1.4,1.4,0,0,1-1.349-1.475V-28.408a1.4,1.4,0,0,1,1.349-1.475H19.02a1.4,1.4,0,0,1,1.349,1.475v11.525A1.425,1.425,0,0,1,19.02-15.407ZM14.8-18.358h2.824v-8.575H14.8Z" transform="translate(22.421 4.009)" fill="#8bccca" fill-rule="evenodd"/>
      <path id="Path_316" data-name="Path 316" d="M30.931-12.326H7.581a1.328,1.328,0,0,1-1.465-1.18v-9.22a1.328,1.328,0,0,1,1.465-1.18h23.3a1.328,1.328,0,0,1,1.465,1.18v9.22C32.4-12.879,31.709-12.326,30.931-12.326Zm-21.839-2.4H29.466v-6.823H9.092Z" transform="translate(10.737 15.666)" fill="#8bccca" fill-rule="evenodd"/>
      <path id="Path_317" data-name="Path 317" d="M42.274-4.407H1.576A1.449,1.449,0,0,1,.116-5.882V-17.408a1.449,1.449,0,0,1,1.46-1.475H42.229a1.449,1.449,0,0,1,1.46,1.475V-5.882A1.412,1.412,0,0,1,42.274-4.407ZM3.082-7.358H40.814v-8.575H3.082Z" transform="translate(-0.967 25.464)" fill="#8bccca" fill-rule="evenodd"/>
      <path id="Path_318" data-name="Path 318" d="M36.775,1.593H4.588A1.454,1.454,0,0,1,3.117.118V-11.408a1.454,1.454,0,0,1,1.471-1.475H36.775a1.454,1.454,0,0,1,1.471,1.475V.118A1.515,1.515,0,0,1,36.775,1.593ZM6.06-1.4h29.2V-9.932H6.06Z" transform="translate(4.886 37.167)" fill="#8bccca" fill-rule="evenodd"/>
      <path id="Path_319" data-name="Path 319" d="M26.36-15.407H18.941a1.639,1.639,0,0,1-1.8-1.475V-28.408a1.639,1.639,0,0,1,1.8-1.475H26.36a1.639,1.639,0,0,1,1.8,1.475v11.525A1.639,1.639,0,0,1,26.36-15.407Zm-5.62-2.95h3.765v-8.575H20.74Z" transform="translate(34.071 4.009)" fill="#8bccca" fill-rule="evenodd"/>
      <path id="Path_320" data-name="Path 320" d="M41.885-12.326h-23.3a1.328,1.328,0,0,1-1.465-1.18v-9.22a1.328,1.328,0,0,1,1.465-1.18h23.3a1.328,1.328,0,0,1,1.465,1.18v9.22A1.354,1.354,0,0,1,41.885-12.326Zm-21.839-2.4H40.42v-6.823H20.046Z" transform="translate(34.019 15.666)" fill="#8bccca" fill-rule="evenodd"/>
      <path id="Path_321" data-name="Path 321" d="M59.229-4.407H18.576a1.449,1.449,0,0,1-1.46-1.475V-17.408a1.449,1.449,0,0,1,1.46-1.475H59.229a1.449,1.449,0,0,1,1.46,1.475V-5.882A1.449,1.449,0,0,1,59.229-4.407ZM20.036-7.358H57.769v-8.575H20.036Z" transform="translate(34.019 25.464)" fill="#8bccca" fill-rule="evenodd"/>
      <path id="Path_322" data-name="Path 322" d="M50.775,1.593H18.588A1.454,1.454,0,0,1,17.117.118V-11.408a1.454,1.454,0,0,1,1.471-1.475H50.775a1.454,1.454,0,0,1,1.471,1.475V.118A1.484,1.484,0,0,1,50.775,1.593ZM20.06-1.4h29.2V-9.932H20.06Z" transform="translate(34.02 37.167)" fill="#8bccca" fill-rule="evenodd"/>
      <path id="Path_323" data-name="Path 323" d="M24.776,4.674H10.568a1.32,1.32,0,0,1-1.452-1.18v-9.22a1.32,1.32,0,0,1,1.452-1.18H24.73a1.32,1.32,0,0,1,1.453,1.18v9.22C26.228,4.158,25.547,4.674,24.776,4.674Zm-12.71-2.4H23.278V-4.546H12.066Z" transform="translate(16.586 48.824)" fill="#8bccca" fill-rule="evenodd"/>
      <path id="Path_324" data-name="Path 324" d="M32.73,4.674H18.568a1.32,1.32,0,0,1-1.453-1.18v-9.22a1.32,1.32,0,0,1,1.453-1.18H32.73a1.32,1.32,0,0,1,1.453,1.18v9.22A1.32,1.32,0,0,1,32.73,4.674Zm-12.71-2.4H31.232V-4.546H20.02Z" transform="translate(34.017 48.824)" fill="#8bccca" fill-rule="evenodd"/>
      <path id="Path_325" data-name="Path 325" d="M90.12,56.638H47.509V-30.538a1.386,1.386,0,0,0-1.407-1.4,1.386,1.386,0,0,0-1.407,1.4V56.638H1.469a1.4,1.4,0,1,0,0,2.8H90.12a1.4,1.4,0,1,0,0-2.8Z" transform="translate(0.756 0)" fill="#8bccca" fill-rule="evenodd"/>
    </g>
  </g>
</svg>
