<svg xmlns="http://www.w3.org/2000/svg" xmlns:xlink="http://www.w3.org/1999/xlink" width="29.272" height="21.084" viewBox="0 0 29.272 21.084">
  <defs>
    <clipPath id="clip-path">
      <path id="Path_197" data-name="Path 197" d="M1.989-10.943V6.527H27.647v-17.47Zm-.3-1.807h26.26a1.506,1.506,0,0,1,1.506,1.506V6.828a1.506,1.506,0,0,1-1.506,1.506H1.688A1.506,1.506,0,0,1,.182,6.828V-11.244A1.506,1.506,0,0,1,1.688-12.75Z" transform="translate(-0.182 12.75)" fill="#210a12"/>
    </clipPath>
    <clipPath id="clip-path-2">
      <path id="Path_199" data-name="Path 199" d="M14.45-1.267,1.809-12.334.627-10.952l13.8,12.081L28.785-10.94l-1.154-1.406Z" transform="translate(-0.627 12.346)" fill="#210a12"/>
    </clipPath>
  </defs>
  <g id="Group_11544" data-name="Group 11544" transform="translate(-0.182 12.75)">
    <g id="Group_291" data-name="Group 291" transform="translate(0.182 -12.75)" clip-path="url(#clip-path)">
      <path id="Path_196" data-name="Path 196" d="M-4.818,23.415H44.534V-17.75H-4.818Z" transform="translate(-5.222 7.71)" fill="#210a12"/>
    </g>
    <g id="Group_292" data-name="Group 292" transform="translate(1.085 -11.93)" clip-path="url(#clip-path-2)">
      <path id="Path_198" data-name="Path 198" d="M-4.373,16.434h48.23v-33.78H-4.373Z" transform="translate(-5.662 7.193)" fill="#210a12"/>
    </g>
  </g>
</svg>
