<svg xmlns="http://www.w3.org/2000/svg" width="35.875" height="42.827" viewBox="0 0 35.875 42.827">
  <g id="Group_5418" data-name="Group 5418" transform="translate(-1086 -501.031)">
    <g id="Group_5280" data-name="Group 5280" transform="translate(1085.906 531.939)">
      <path id="Path_3007" data-name="Path 3007" d="M4.751,6.894a1.039,1.039,0,0,1-.926-.555H3.173A1.061,1.061,0,0,1,2.093,5.248V.672A1.061,1.061,0,0,1,3.173-.419H7.118l.429-1.057L6.655-3.3l-.292-.156a1.12,1.12,0,0,1-.549-1.178,1.081,1.081,0,0,1,.926-.884l.24-.035a1.113,1.113,0,0,1,.343-.416,1.125,1.125,0,0,1,.84-.208l.086.017.961-1.231A.894.894,0,0,1,9.64-7.75l.961-.364,1.269-2.045a1.117,1.117,0,0,1,1.149-.468l.274.069.377-.156L13.5-11.1l-.566-1.646a.621.621,0,0,1-.034-.173,1.176,1.176,0,0,1,.017-.485l.257-1.144a1.182,1.182,0,0,1,.669-.763l.429-.139a1.064,1.064,0,0,1,.995.069,1.064,1.064,0,0,1,.5.9l.051.988a.917.917,0,0,1-.1.5L15.3-11.979l.257.416,1.012-.1h.1a1.1,1.1,0,0,1,.978.624l.051.121.051-.1a1.07,1.07,0,0,1,.72-.624l1.561-.451a.749.749,0,0,1,.858.416v.017h.395l.36-1.04.446-1.82c0-.017.017-.052.017-.069a1.136,1.136,0,0,1,1.046-.763,1.144,1.144,0,0,1,.72.26l.017-.035-.309-.641a1.092,1.092,0,0,1-.069-.884l.189-.52a1.1,1.1,0,0,1,1.012-.728h1.9a.678.678,0,0,1,.7.555.709.709,0,0,1-.377.849l-.051.017.223.624a.751.751,0,0,1,.086.364l.069,1.8,1.115.225a1.086,1.086,0,0,1,.892,1.04l.034.572.635.572a1.054,1.054,0,0,1,.343,1.092,1.26,1.26,0,0,1-.412.641h.48a1.091,1.091,0,0,1,1.081.919l.069.607.858.78,2.075.676a1.033,1.033,0,0,1,.755.936v.555a1.129,1.129,0,0,1-.463.919L32.486-2.6a.98.98,0,0,1,.1.815,1.206,1.206,0,0,1-.48.641l-.566.329A.969.969,0,0,1,30.72-.7a1.117,1.117,0,0,1-.7-.572l-.189-.364a1.174,1.174,0,0,1-.1-.676l-.017-.017-.961.208L27.512.568a1.078,1.078,0,0,1-.137.867,1.021,1.021,0,0,1-.858.52l-.12.017-.051.139a1.136,1.136,0,0,1-1.527.572l-.755.329L24.03,3.9l.377,1.092a1.059,1.059,0,0,1-.961,1.456h-.1a1.046,1.046,0,0,1-.978-.572l-.086-.191a.972.972,0,0,1-.154-.624,1.017,1.017,0,0,1-.395-.416l-.858-1.334a.724.724,0,0,1-.583.52,1.1,1.1,0,0,1-.172.5l-.5.763a.689.689,0,0,1-.823.329.727.727,0,0,1-.549-.711V4.139L18.13,3.6l-1.75-1.126a.374.374,0,0,1-.086-.069l-1.012-.884a1.025,1.025,0,0,1-.36-.676l-.137-.78L14.374-.09,14.254,0a1.071,1.071,0,0,1-.892.173l-.154.208a1.185,1.185,0,0,1-.617.416c-.017,0-.051.017-.069.017l-1.406.26-.051.485a.945.945,0,0,1-.566.832l-1.132.607L8.937,4.52a.949.949,0,0,1-.24.451l-.961,1.2a1.226,1.226,0,0,1-.823.381L5.643,6.6,5.3,6.773A1.115,1.115,0,0,1,4.751,6.894ZM4.082,5.248a.662.662,0,0,1,.515.26.959.959,0,0,1,.1.139l.086.191.446-.243a.543.543,0,0,1,.24-.052h.086L6.844,5.49l.995-1.2.48-1.7a.646.646,0,0,1,.429-.485l1.2-.641.086-.763a.653.653,0,0,1,.617-.624l1.6-.312c.034-.017.069-.017.069-.035l.309-.416a.772.772,0,0,1,.617-.26.216.216,0,0,1,.1.017l.223.052.326-.225a.642.642,0,0,1,.738-.052l.7.277a.669.669,0,0,1,.48.607l.172.971.034.035.961.832.034.035,1.8,1.161a.672.672,0,0,1,.172.139.54.54,0,0,1,.1-.225.561.561,0,0,1,.257-.191l-.017-.017-.961-.537c-.034-.017-.051-.035-.086-.052L17.513,1.3c-.017-.017-.086-.069-.1-.087a.311.311,0,0,1-.086-.121L16.175-.939a.679.679,0,0,1-.12-.4.67.67,0,0,1,.154-.433l.515-.728a.669.669,0,0,1,.463-.312.765.765,0,0,1,.652.225c.017.017.034.052.051.069L19.348-.4l.738.087a.633.633,0,0,1,.412.208l.995.832a.758.758,0,0,1,.24.555V2.7l.034.069.875,1.369.36.156h0l-.034-.087a.622.622,0,0,1-.034-.173l.051-1.248a.7.7,0,0,1,.463-.641l1.132-.485a.431.431,0,0,1,.206-.035h.137a.694.694,0,0,1,.309.087l.069.052.154-.312a.7.7,0,0,1,.652-.468L26.449.95c.017-.017,0-.052,0-.1a.386.386,0,0,1-.017-.139V.516a.484.484,0,0,1,.051-.225L27.821-2.62a.63.63,0,0,1,.532-.451l1.286-.26A.645.645,0,0,1,30-3.3l.5.208a.649.649,0,0,1,.48.624A.722.722,0,0,1,30.823-2l.189.329.549-.312c-.017-.017-.017-.035-.034-.052L31.492-2.1a.58.58,0,0,1-.292-.468.549.549,0,0,1,.206-.5l2.762-1.924v-.451l-2.2-.728a.749.749,0,0,1-.257-.173l-.995-.9a.66.66,0,0,1-.223-.5l-.086-.659-.961.017A.648.648,0,0,1,28.782-9l-.12-.5a.385.385,0,0,1-.017-.139.718.718,0,0,1,.532-.728l.154-.035-.823-.693a.607.607,0,0,1-.223-.5l-.051-.745-1.372-.26a.7.7,0,0,1-.617-.676l-.086-2.114-.377-1.023a.519.519,0,0,1-.051-.329h-.978l-.172.5.394.8a.707.707,0,0,1,.12.364.61.61,0,0,1-.137.381l-.343.607a.65.65,0,0,1-.5.364.639.639,0,0,1-.583-.208l-.343-.295-.034.035-.446,1.82-.446,1.334a.681.681,0,0,1-.669.5h-.943a.657.657,0,0,1-.617-.381l-1.252.364-.412.867a.709.709,0,0,1-.635.416.643.643,0,0,1-.617-.4l-.412-.936-1.252.139h-.017a.751.751,0,0,1-.566-.243l-.051-.052a.518.518,0,0,1,.034.173v.139a.665.665,0,0,1-.48.624l-.806.347a.431.431,0,0,1-.206.035h-.086a.374.374,0,0,1-.137-.017l-.36-.087L11.441-7.438a.592.592,0,0,1-.463.347l-.892.329a.017.017,0,0,1-.017.017L8.937-5.289a.723.723,0,0,1-.566.26H8.3l-.343-.052a.748.748,0,0,1-.669.607L6.9-4.44a.06.06,0,0,1-.034.017l.412.225a.707.707,0,0,1,.274.277l1.046,2.1a.558.558,0,0,1,.051.243v.139a.879.879,0,0,1-.034.208L8.027.222A.623.623,0,0,1,7.907.4a.719.719,0,0,1-.515.26H3.173V5.23ZM23.327,4.97l-.1.156.1.225.154-.035Zm-4.6-.485c-.017.017-.017.035-.034.052ZM7.839,4.347v.069C7.822,4.4,7.839,4.381,7.839,4.347Zm.017-.087Zm15.8-1.109Zm.446-.416v0ZM9.417,2.683ZM18.936.95l.909.485a1.1,1.1,0,0,1,.463.468l.377.607V1.383L19.862.707,19.211.638h0A.964.964,0,0,1,18.473.17l-.326-.52-.806-1.144-.086.139L18.267.412Zm7.341,1.04-.069.017C26.226,2.007,26.243,1.99,26.277,1.99Zm.274-.451Zm-16.6-.052ZM26.466.88ZM11.132.724v0ZM19.948.707c.034,0,.051.017.086.017ZM19.777.638ZM19.262-.471h0Zm9.176-1.594Zm1.9-.035ZM28.9-2.516ZM6.9-5.289c0,.035-.017.069-.017.121v-.069A.064.064,0,0,0,6.9-5.289ZM34.2-5.5ZM7.221-5.584a.153.153,0,0,0-.086.017l.086-.017Zm26.912-.035ZM10.051-6.763Zm.069-.087Zm.292-.832Zm18.85-1.646ZM14.2-10.922Zm15.145-.78v0ZM13.979-13.036l.274.8c0-.017.017-.035.034-.052l.463-1.161-.034-1.005c-.034.017-.034.035-.069.052l-.377.121-.292,1.179h0C13.962-13.106,13.979-13.071,13.979-13.036ZM27.307-13.4v.035C27.324-13.383,27.324-13.4,27.307-13.4Zm-.394-.364Zm-3.225-.953c0,.017-.017.017-.017.035Zm.566-.1.017.017C24.271-14.821,24.271-14.821,24.253-14.821Zm1.9-.607Zm.206-.884Zm.394-.624.034.069C26.775-16.884,26.775-16.9,26.758-16.936Z" transform="translate(0.773 5.025)" fill="#fff" fill-rule="evenodd"/>
      <path id="Path_3008" data-name="Path 3008" d="M13.85.67H13.2a.608.608,0,0,1-.489-.222l-.44-.555A.907.907,0,0,1,12.088-.7a.615.615,0,0,1,.147-.407l.13-.148a.42.42,0,0,1,.179-.129l1.125-.481A.752.752,0,0,1,13.85-1.9h.179a.477.477,0,0,1,.359.166,1,1,0,0,1,.245.61L14.551-.051A.751.751,0,0,1,13.85.67Zm-.343-.85v0ZM13.393-.5h.147V-.569ZM13-.9l.033.037A.038.038,0,0,0,13-.9Z" transform="translate(4.635 11.211)" fill="#fff" fill-rule="evenodd"/>
      <path id="Path_3009" data-name="Path 3009" d="M10.152.006A1.1,1.1,0,0,1,9.9-.035a.661.661,0,0,1-.405-.458l-.32-1A.6.6,0,0,1,9.342-2.2l.405-.312a.3.3,0,0,1-.021-.146.74.74,0,0,1,.192-.582l.3-.4a.727.727,0,0,1,.853-.187.664.664,0,0,1,.427.6v.707a.591.591,0,0,1-.128.4l.256.562a.608.608,0,0,1,.043.5.534.534,0,0,1-.256.312l-.768.582A.715.715,0,0,1,10.152.006Zm-.085-.832a.045.045,0,0,0-.043.042Zm-.021-.832.213.666.427-.333-.277-.624Zm.725.5ZM10-1.824l.021.062C10.024-1.782,10-1.8,10-1.824Z" transform="translate(3.487 10.443)" fill="#fff" fill-rule="evenodd"/>
      <path id="Path_3010" data-name="Path 3010" d="M4.882-7.3H4.807a.289.289,0,0,1-.12-.015l-.7-.2c-.03-.015-.06-.015-.09-.03A.64.64,0,0,1,3.578-7.9a.543.543,0,0,1-.045-.47.651.651,0,0,1,.33-.364l.375-.182a.8.8,0,0,1-.24-.3.717.717,0,0,1,.135-.834l.749-.895-.075-.8H4.672a.8.8,0,0,1-.54-.227.814.814,0,0,1-.225-.546l.03-.728-.764-1.365a.829.829,0,0,1-.015-.728l.734-1.228a.744.744,0,0,1,.645-.349h.6a.688.688,0,0,1,.495.212.606.606,0,0,1,.045.789l-.015.03.195.046a.829.829,0,0,1,.555.789v.076l-.075.44a.644.644,0,0,1-.135.364c-.045.076-.09.152-.135.212a.605.605,0,0,1,.135.076.477.477,0,0,1,.24.212L7.4-12.338a.712.712,0,0,1,.075.152.521.521,0,0,1,.06.243l.09.94a.623.623,0,0,1,.33.076.822.822,0,0,1,.435.516l.09.47v.091a.9.9,0,0,1-.09.409l-.7,1.092a.68.68,0,0,1-.6.334L5.766-7.91l-.315.334A.807.807,0,0,1,4.882-7.3ZM6.86-8.85a.079.079,0,0,0-.03.061Zm-1.844-.8.45.061a.49.49,0,0,1,.39.334.461.461,0,0,1-.06.394L6.92-8.957l.57-.88-.015-.091a.462.462,0,0,1-.375.015.455.455,0,0,1-.27-.258l-.12-.273a.448.448,0,0,1-.03-.136l-.12-1.213v-.015l-.884-1.228c-.09-.045-.18-.091-.255-.136a1.2,1.2,0,0,0-.255-.121.463.463,0,0,1-.3-.3.477.477,0,0,1,.06-.425q.045-.068.135-.182.112-.159.315-.455l.045-.288L4.9-15.083a.5.5,0,0,1-.435-.258.5.5,0,0,1-.06-.212l-.33.561.779,1.38a.5.5,0,0,1,.06.258l-.03.546.195-.061a.475.475,0,0,1,.4.045.478.478,0,0,1,.21.349l.165,1.592a.522.522,0,0,1-.1.364Zm1.994.713h0Zm-2.188-.47Zm1.124-3.533Z" transform="translate(1.155 5.407)" fill="#fff" fill-rule="evenodd"/>
      <path id="Path_3011" data-name="Path 3011" d="M1.168-8.269a.851.851,0,0,1-.624-.315L.319-8.857A.454.454,0,0,1,.25-8.962a1.437,1.437,0,0,1,0-1.3c.017-.021.035-.063.052-.084l.243-.336a1.505,1.505,0,0,1-.035-.252.98.98,0,0,1-.139-.5v-1.113a1.182,1.182,0,0,1,.156-.63L.995-14a.728.728,0,0,1,.555-.483l1.179-.378a.319.319,0,0,1,.139-.021h.087a.927.927,0,0,1,.849.735l.26.9a1.063,1.063,0,0,1,0,.861l-.295.756.069.861v.063a1.09,1.09,0,0,1-.485.987L1.636-8.5A.522.522,0,0,1,1.168-8.269ZM.96-9.467Zm.763-1.471a1.2,1.2,0,0,1,.087.273.761.761,0,0,1-.139.525l-.26.357,1.352-.966-.069-.861a.619.619,0,0,1,.052-.357l.312-.819-.191-.693-.953.294-.416.714v.693a.555.555,0,0,1,.225.315A.9.9,0,0,1,1.723-10.937ZM3.2-12.45Zm-.1-.483Z" transform="translate(0 6.192)" fill="#fff" fill-rule="evenodd"/>
      <path id="Path_3012" data-name="Path 3012" d="M15.187-7.491a.823.823,0,0,1-.768-.543L13-11.561l-.05.119a.9.9,0,0,1-.8.509H10.43a.777.777,0,0,1-.734-.424.8.8,0,0,1-.067-.678l.618-2.374H10.08A.863.863,0,0,1,9.262-15c0-.017-.017-.034-.017-.051L9.128-15.6a.913.913,0,0,1,.083-.712.3.3,0,0,1,.083-.119l1.719-1.933a.852.852,0,0,1,.384-.254l1.135-.424-.083-.271a.883.883,0,0,1,.334-1.017l.451-.322L15.2-24.787l.1-.153,2-2.917a.58.58,0,0,1,.2-.2l2.12-1.34,2.4-1.289a.663.663,0,0,1,.417-.136l2.971-.085h0a.833.833,0,0,1,.818.594l.117.339a.872.872,0,0,1-.15.848.3.3,0,0,1-.067.085l-.651.661-.15,2.052.567.543a.887.887,0,0,1,.25.661v.085l-.3,1.764.567,1.56a.68.68,0,0,1-.017.644l-.284.78.3,1.679.434.678a.908.908,0,0,1,0,1l-2.236,2.984a.747.747,0,0,1-.668.373l-1.3.034-.968.373a.7.7,0,0,1-.184.034h-.083a.773.773,0,0,1-.551-.254l-.9-.746a.779.779,0,0,1-.35-.661l-.167-2.374a.921.921,0,0,1,.234-.644l1.335-1.577.968-1.2-.4-.882-.467.085-.517,1.1-.167,1.34a.29.29,0,0,1-.05.17,1.632,1.632,0,0,1-.234.356L18.174-16.9l-.5,2.459.217-.034a.876.876,0,0,1,.651.187.741.741,0,0,1,.3.661l-.05.543a.8.8,0,0,1-.584.729l-.634.187-.284,3.154a.809.809,0,0,1-.467.7L15.6-7.677A.525.525,0,0,1,15.187-7.491Zm.217-.933v.017C15.42-8.407,15.4-8.424,15.4-8.424Zm-2.42-5.1a.524.524,0,0,1,.484.339L15.3-8.661l.951-.492.3-3.425a.541.541,0,0,1,.384-.475l.818-.254-.7.1a.5.5,0,0,1-.451-.17.556.556,0,0,1-.134-.475l.7-3.391a.657.657,0,0,1,.2-.322l2-1.56h0l.167-1.34a.384.384,0,0,1,.05-.17l.668-1.424a.545.545,0,0,1,.384-.305l1.152-.22a.525.525,0,0,1,.584.305l.7,1.56a.56.56,0,0,1-.067.56l-1.185,1.475-1.318,1.56.167,2.187.834.7.884-.339a.585.585,0,0,1,.167-.034l1.285-.034,2.1-2.8-.417-.661a.632.632,0,0,1-.083-.187l-.4-1.933a.565.565,0,0,1,.017-.288l.334-.916-.584-1.628a.758.758,0,0,1-.033-.271l.284-1.8-.651-.627a.545.545,0,0,1-.167-.441l.217-2.51a.688.688,0,0,1,.15-.339l.718-.729-.033-.1-2.77.085L20.143-28.5l-1.986,1.255-2,2.917c-.017.017-.033.034-.033.051l-1.986,4.205a.429.429,0,0,1-.184.2l-.467.322.05.17.117.068a.53.53,0,0,1,.284.509.532.532,0,0,1-.35.475l-1.852.7L10.18-15.817l.067.271.617-.2a.523.523,0,0,1,.517.119.559.559,0,0,1,.15.526l-.8,3.086h1.3l.467-1.187a.534.534,0,0,1,.484-.322Zm3.271,4.477v0Zm.1-.17ZM10.6-11.628Zm7.143-1.492v0Zm3.805-1.034Zm2.387-.492Zm-3.288-.187v0ZM10.113-15.986Zm10.33-1.085Zm5.524-.271Zm-14.436-.2Zm0,0Zm1.852-1.882Zm12.049-1.882c0,.017,0,.017.017.034Zm-.017-.17Zm-7.143-6.071Zm7.11-2.069a.29.29,0,0,0,.033.085Zm-2.921-.119Zm.234-.119Zm2.553-.1Z" transform="translate(3.477)" fill="#fff" fill-rule="evenodd"/>
      <path id="Path_3013" data-name="Path 3013" d="M2.166-25.932H2.08a.458.458,0,0,1-.173-.04l-1.2-.475a.876.876,0,0,1-.5-.475A.9.9,0,0,1,.121-27.6l.121-.753a.938.938,0,0,1,.243-.574c.693-.792.919-.971,1.248-.971.381,0,.589.238.815.634h.139A1.019,1.019,0,0,1,3-29.2H3a.485.485,0,0,1,.347.238l.5.733c.017.04.035.059.052.1a1.408,1.408,0,0,1,.1.594.969.969,0,0,1-.433.832l-.988.634A.608.608,0,0,1,2.166-25.932Zm0-.931v0Zm0-.317Zm-.936-.376.884.337.745-.5-.208-.277-.191.059a.533.533,0,0,1-.641-.3c-.052-.1-.087-.2-.121-.257-.087.079-.208.218-.364.4Zm1.716-.02v0Zm-1.924-.059.035.02A.059.059,0,0,1,1.023-27.635Zm2.062-.2a.018.018,0,0,0-.017.02Zm-.139-1.386Z" transform="translate(0 0.392)" fill="#fff" fill-rule="evenodd"/>
    </g>
  </g>
</svg>
