<svg xmlns="http://www.w3.org/2000/svg" xmlns:xlink="http://www.w3.org/1999/xlink" width="15.846" height="22" viewBox="0 0 15.846 22">
  <defs>
    <clipPath id="clip-path">
      <path id="Path_197" data-name="Path 197" d="M1.54-11.392V1.738H20.824v-13.13ZM1.314-12.75H21.05a1.132,1.132,0,0,1,1.132,1.132V1.964A1.132,1.132,0,0,1,21.05,3.1H1.314A1.132,1.132,0,0,1,.182,1.964V-11.618A1.132,1.132,0,0,1,1.314-12.75Z" transform="translate(-0.182 12.75)" fill="#fff"/>
    </clipPath>
    <clipPath id="clip-path-2">
      <path id="Path_199" data-name="Path 199" d="M11.015-4.02l-9.5-8.318L.627-11.3,11-2.219,21.79-11.29l-.868-1.056Z" transform="translate(-0.627 12.346)" fill="#fff"/>
    </clipPath>
  </defs>
  <g id="Group_326" data-name="Group 326" transform="translate(12.75 22.182) rotate(-90)">
    <g id="Group_5413" data-name="Group 5413">
      <g id="Group_291" data-name="Group 291" transform="translate(0.182 -12.75)" clip-path="url(#clip-path)">
        <path id="Path_196" data-name="Path 196" d="M-4.818,13.188H32.273V-17.75H-4.818Z" transform="translate(-2.728 10.204)" fill="#fff"/>
      </g>
      <g id="Group_292" data-name="Group 292" transform="translate(0.86 -12.134)" clip-path="url(#clip-path-2)">
        <path id="Path_198" data-name="Path 198" d="M-4.373,8.042H31.875V-17.346H-4.373Z" transform="translate(-3.169 9.716)" fill="#fff"/>
      </g>
    </g>
  </g>
</svg>
