<svg xmlns="http://www.w3.org/2000/svg" width="33.005" height="32.005" viewBox="0 0 33.005 32.005">
  <g id="_02n" data-name="02n" transform="translate(-157 -32)">
    <path id="Path_3145" data-name="Path 3145" d="M250.995,171.1c0-.034.005-.068.005-.1a10,10,0,0,0-19.167-3.99A7,7,0,0,0,231.995,181l18.01,0a5,5,0,0,0,.99-9.9Z" transform="translate(-66 -117.999)" fill="none" stroke="#a44993" stroke-miterlimit="10" stroke-width="2"/>
    <line id="Line_1283" data-name="Line 1283" y2="2" transform="translate(170 32)" fill="none" stroke="#a44993" stroke-miterlimit="10" stroke-width="2"/>
    <line id="Line_1284" data-name="Line 1284" x2="1" y2="1.732" transform="translate(163.5 33.742)" fill="none" stroke="#a44993" stroke-miterlimit="10" stroke-width="2"/>
    <line id="Line_1285" data-name="Line 1285" x2="1.732" y2="1" transform="translate(158.742 38.5)" fill="none" stroke="#a44993" stroke-miterlimit="10" stroke-width="2"/>
    <line id="Line_1286" data-name="Line 1286" x2="2" transform="translate(157 45)" fill="none" stroke="#a44993" stroke-miterlimit="10" stroke-width="2"/>
    <line id="Line_1287" data-name="Line 1287" y1="1" x2="1.732" transform="translate(179.526 38.5)" fill="none" stroke="#a44993" stroke-miterlimit="10" stroke-width="2"/>
    <line id="Line_1288" data-name="Line 1288" y1="1.732" x2="1" transform="translate(175.5 33.742)" fill="none" stroke="#a44993" stroke-miterlimit="10" stroke-width="2"/>
    <path id="Path_3146" data-name="Path 3146" d="M229.371,167.478a8,8,0,1,1,14.468-6.091" transform="translate(-66 -117.999)" fill="none" stroke="#a44993" stroke-miterlimit="10" stroke-width="2"/>
  </g>
</svg>
