<svg xmlns="http://www.w3.org/2000/svg" width="32.004" height="20.997" viewBox="0 0 32.004 20.997">
  <g id="_04n" data-name="04n" transform="translate(-221.998 -40.338)">
    <path id="Path_3143" data-name="Path 3143" d="M308.057,171.076c0-.025,0-.05,0-.075a7.33,7.33,0,0,0-14.051-2.925,5.129,5.129,0,0,0,.119,10.257h13.2a3.665,3.665,0,0,0,.725-7.258Z" transform="translate(-66 -117.999)" fill="none" stroke="#a44993" stroke-miterlimit="10" stroke-width="2"/>
    <path id="Path_3144" data-name="Path 3144" d="M303.851,161.2a7.328,7.328,0,0,1,12.215,5.463c0,.026,0,.05,0,.076a3.665,3.665,0,0,1-.725,7.257H314" transform="translate(-66 -117.999)" fill="none" stroke="#a44993" stroke-miterlimit="10" stroke-width="2"/>
  </g>
</svg>
