<svg xmlns="http://www.w3.org/2000/svg" width="32.01" height="28.008" viewBox="0 0 32.01 28.008">
  <g id="_09n" data-name="09n" transform="translate(-605.995 -35.998)">
    <path id="Path_3164" data-name="Path 3164" d="M695.876,175h2.129a5,5,0,0,0,.99-9.9c0-.035.005-.068.005-.1a10,10,0,0,0-19.167-3.99A7,7,0,0,0,679.995,175h2.129" transform="translate(-66 -117.999)" fill="none" stroke="#a44993" stroke-miterlimit="10" stroke-width="2"/>
    <g id="Group_5479" data-name="Group 5479" transform="translate(-66 -117.999)">
      <path id="Path_3165" data-name="Path 3165" d="M686,168l0,1-1,2v1" fill="none" stroke="#a44993" stroke-miterlimit="10" stroke-width="2"/>
    </g>
    <path id="Path_3166" data-name="Path 3166" d="M690,168l0,1-1,2v1" transform="translate(-66 -117.999)" fill="none" stroke="#a44993" stroke-miterlimit="10" stroke-width="2"/>
    <path id="Path_3167" data-name="Path 3167" d="M694,168l0,1-1,2v1" transform="translate(-66 -117.999)" fill="none" stroke="#a44993" stroke-miterlimit="10" stroke-width="2"/>
    <g id="Group_5480" data-name="Group 5480" transform="translate(-66 -117.999)">
      <path id="Path_3168" data-name="Path 3168" d="M687,173l0,1-1,2v1" fill="none" stroke="#a44993" stroke-miterlimit="10" stroke-width="2"/>
    </g>
    <path id="Path_3169" data-name="Path 3169" d="M691,173l0,1-1,2v1" transform="translate(-66 -117.999)" fill="none" stroke="#a44993" stroke-miterlimit="10" stroke-width="2"/>
    <g id="Group_5481" data-name="Group 5481" transform="translate(-66 -117.999)">
      <path id="Path_3170" data-name="Path 3170" d="M684,178.005l0,1-1,2v1" fill="none" stroke="#a44993" stroke-miterlimit="10" stroke-width="2"/>
    </g>
    <path id="Path_3171" data-name="Path 3171" d="M688,178.005l0,1-1,2v1" transform="translate(-66 -117.999)" fill="none" stroke="#a44993" stroke-miterlimit="10" stroke-width="2"/>
    <path id="Path_3172" data-name="Path 3172" d="M692,178.005l0,1-1,2v1" transform="translate(-66 -117.999)" fill="none" stroke="#a44993" stroke-miterlimit="10" stroke-width="2"/>
    <path id="Path_3173" data-name="Path 3173" d="M693.007,171" transform="translate(-66 -117.999)" fill="none" stroke="#a44993" stroke-miterlimit="10" stroke-width="2"/>
  </g>
</svg>
