<svg xmlns="http://www.w3.org/2000/svg" width="32.01" height="28.003" viewBox="0 0 32.01 28.003">
  <g id="_13n" data-name="13n" transform="translate(-93.995 -225.997)">
    <path id="Path_3246" data-name="Path 3246" d="M186.005,365a5,5,0,0,0,.99-9.9c0-.035.005-.068.005-.1a10,10,0,0,0-18.387-5.44,4.033,4.033,0,0,1-2.389,1.674A7,7,0,0,0,167.995,365" transform="translate(-66 -117.999)" fill="none" stroke="#a44993" stroke-miterlimit="10" stroke-width="2"/>
    <line id="Line_1409" data-name="Line 1409" y2="6" transform="translate(105 240)" fill="none" stroke="#a44993" stroke-miterlimit="10" stroke-width="2"/>
    <line id="Line_1410" data-name="Line 1410" y2="6" transform="translate(105 248)" fill="none" stroke="#a44993" stroke-miterlimit="10" stroke-width="2"/>
    <g id="Group_5552" data-name="Group 5552" transform="translate(-66 -117.999)">
      <line id="Line_1411" data-name="Line 1411" y2="6" transform="translate(177 353.999)" fill="none" stroke="#a44993" stroke-miterlimit="10" stroke-width="2"/>
      <line id="Line_1412" data-name="Line 1412" x1="6" transform="translate(174 356.999)" fill="none" stroke="#a44993" stroke-miterlimit="10" stroke-width="2"/>
      <line id="Line_1413" data-name="Line 1413" y2="6" transform="translate(183 357.999)" fill="none" stroke="#a44993" stroke-miterlimit="10" stroke-width="2"/>
      <line id="Line_1414" data-name="Line 1414" x1="6" transform="translate(180 360.999)" fill="none" stroke="#a44993" stroke-miterlimit="10" stroke-width="2"/>
      <line id="Line_1415" data-name="Line 1415" y2="6" transform="translate(177 361.999)" fill="none" stroke="#a44993" stroke-miterlimit="10" stroke-width="2"/>
      <line id="Line_1416" data-name="Line 1416" x1="6" transform="translate(174 364.999)" fill="none" stroke="#a44993" stroke-miterlimit="10" stroke-width="2"/>
      <line id="Line_1417" data-name="Line 1417" x1="6" transform="translate(168 360.999)" fill="none" stroke="#a44993" stroke-miterlimit="10" stroke-width="2"/>
      <line id="Line_1418" data-name="Line 1418" x1="6" transform="translate(168 368.999)" fill="none" stroke="#a44993" stroke-miterlimit="10" stroke-width="2"/>
      <line id="Line_1419" data-name="Line 1419" y2="6" transform="translate(183 365.999)" fill="none" stroke="#a44993" stroke-miterlimit="10" stroke-width="2"/>
      <line id="Line_1420" data-name="Line 1420" x1="6" transform="translate(180 368.999)" fill="none" stroke="#a44993" stroke-miterlimit="10" stroke-width="2"/>
    </g>
  </g>
</svg>
