<svg xmlns="http://www.w3.org/2000/svg" width="42" height="42" viewBox="0 0 42 42">
  <g id="flag-austria" transform="translate(-54.171 -147.66)">
    <g id="Group_5553" data-name="Group 5553" transform="translate(54.171 162.112)">
      <path id="Path_3272" data-name="Path 3272" d="M95.129,180.272H55.213a21.093,21.093,0,0,0,0,13.1H95.129a21.093,21.093,0,0,0,0-13.1Z" transform="translate(-54.171 -180.272)" fill="#f5f5f5"/>
    </g>
    <g id="Group_5554" data-name="Group 5554" transform="translate(55.213 147.66)">
      <path id="Path_3273" data-name="Path 3273" d="M76.48,147.66a21.009,21.009,0,0,0-19.958,14.452H96.438A21.008,21.008,0,0,0,76.48,147.66Z" transform="translate(-56.523 -147.66)" fill="#d52927"/>
    </g>
    <g id="Group_5555" data-name="Group 5555" transform="translate(55.213 175.209)">
      <path id="Path_3274" data-name="Path 3274" d="M76.48,224.278a21.008,21.008,0,0,0,19.958-14.451H56.523A21.009,21.009,0,0,0,76.48,224.278Z" transform="translate(-56.523 -209.827)" fill="#d52927"/>
    </g>
  </g>
</svg>
