<svg xmlns="http://www.w3.org/2000/svg" width="42" height="42" viewBox="0 0 42 42">
  <g id="flag-belgium" transform="translate(-213.359 -147.66)">
    <g id="Group_8796" data-name="Group 8796" transform="translate(213.359 148.685)">
      <path id="Path_4548" data-name="Path 4548" d="M213.359,169.89a21.008,21.008,0,0,0,14.4,20l.111-39.915A21.007,21.007,0,0,0,213.359,169.89Z" transform="translate(-213.359 -149.973)" fill="#050508"/>
    </g>
    <g id="Group_8797" data-name="Group 8797" transform="translate(227.755 147.66)">
      <path id="Path_4549" data-name="Path 4549" d="M258.942,188.636l.111-39.915a21.076,21.076,0,0,0-13.1-.036l-.111,39.915a21.093,21.093,0,0,0,13.1.036Z" transform="translate(-245.845 -147.66)" fill="#ffde00"/>
    </g>
    <g id="Group_8798" data-name="Group 8798" transform="translate(240.852 148.721)">
      <path id="Path_4550" data-name="Path 4550" d="M289.907,170.052a21.008,21.008,0,0,0-14.4-20L275.4,189.97A21.008,21.008,0,0,0,289.907,170.052Z" transform="translate(-275.4 -150.055)" fill="#dd2428"/>
    </g>
  </g>
</svg>
