<svg xmlns="http://www.w3.org/2000/svg" width="42" height="42" viewBox="0 0 42 42">
  <g id="flag-germany" transform="translate(-530.164 -306.923)">
    <g id="Group_9183" data-name="Group 9183" transform="translate(531.207 334.472)">
      <path id="Path_4781" data-name="Path 4781" d="M552.474,383.542a21.008,21.008,0,0,0,19.958-14.452H532.517A21.008,21.008,0,0,0,552.474,383.542Z" transform="translate(-532.517 -369.09)" fill="#ffca1d"/>
    </g>
    <g id="Group_9184" data-name="Group 9184" transform="translate(530.164 321.375)">
      <path id="Path_4782" data-name="Path 4782" d="M571.122,339.535H531.207a21.084,21.084,0,0,0,0,13.1h39.915a21.094,21.094,0,0,0,0-13.1Z" transform="translate(-530.164 -339.535)" fill="#dc1f29"/>
    </g>
    <g id="Group_9185" data-name="Group 9185" transform="translate(531.207 306.923)">
      <path id="Path_4783" data-name="Path 4783" d="M552.474,306.923a21.008,21.008,0,0,0-19.957,14.452h39.915A21.009,21.009,0,0,0,552.474,306.923Z" transform="translate(-532.517 -306.923)" fill="#050508"/>
    </g>
  </g>
</svg>
