<svg xmlns="http://www.w3.org/2000/svg" width="42" height="42" viewBox="0 0 42 42">
  <g id="flag-denmark" transform="translate(-1010.213 -147.661)">
    <g id="Group_9155" data-name="Group 9155" transform="translate(1010.213 148.415)">
      <path id="Path_4738" data-name="Path 4738" d="M1052.057,167.1h-26.421V149.363q-.774.213-1.524.481a20.956,20.956,0,0,0-5.816,3.221V167.1h-7.926a20.477,20.477,0,0,0,.065,5.534q.132.916.341,1.806h7.52v11.711a20.944,20.944,0,0,0,5.816,3.221q.748.27,1.524.482V174.44h26.016q.207-.889.34-1.806a20.53,20.53,0,0,0,.065-5.534Z" transform="translate(-1010.213 -149.363)" fill="#f5f5f5"/>
    </g>
    <g id="Group_9156" data-name="Group 9156" transform="translate(1025.636 147.661)">
      <path id="Path_4739" data-name="Path 4739" d="M1045.016,166.152h26.421c-.055-.453-.119-.9-.2-1.348a20.941,20.941,0,0,0-20.642-17.143c-.383,0-.761.013-1.138.034a20.907,20.907,0,0,0-4.44.721Z" transform="translate(-1045.016 -147.661)" fill="#d22435"/>
    </g>
    <g id="Group_9157" data-name="Group 9157" transform="translate(1010.37 152.118)">
      <path id="Path_4740" data-name="Path 4740" d="M1018.493,157.718a20.826,20.826,0,0,0-7.724,12.687c-.083.444-.147.894-.2,1.348h7.926Z" transform="translate(-1010.567 -157.718)" fill="#d22435"/>
    </g>
    <g id="Group_9158" data-name="Group 9158" transform="translate(1025.636 173.492)">
      <path id="Path_4741" data-name="Path 4741" d="M1045.016,221.366a20.963,20.963,0,0,0,4.44.721c.377.02.755.034,1.138.034a21.009,21.009,0,0,0,19.958-14.452q.275-.843.48-1.717h-26.016Z" transform="translate(-1045.016 -205.952)" fill="#d22435"/>
    </g>
    <g id="Group_9159" data-name="Group 9159" transform="translate(1010.775 173.492)">
      <path id="Path_4742" data-name="Path 4742" d="M1011.482,205.952q.2.873.481,1.717a21.016,21.016,0,0,0,7.039,9.995V205.952Z" transform="translate(-1011.482 -205.952)" fill="#d22435"/>
    </g>
  </g>
</svg>
