<svg xmlns="http://www.w3.org/2000/svg" width="42" height="42" viewBox="0 0 42 42">
  <g id="flag-france" transform="translate(-373.785 -306.924)">
    <g id="Group_9177" data-name="Group 9177" transform="translate(388.181 306.924)">
      <path id="Path_4772" data-name="Path 4772" d="M419.368,347.9l.11-39.915a21.083,21.083,0,0,0-13.1-.036l-.111,39.915a21.1,21.1,0,0,0,13.1.036Z" transform="translate(-406.271 -306.924)" fill="#f5f5f5"/>
    </g>
    <g id="Group_9178" data-name="Group 9178" transform="translate(373.785 307.948)">
      <path id="Path_4773" data-name="Path 4773" d="M373.785,329.153a21.01,21.01,0,0,0,14.4,20l.111-39.915A21.008,21.008,0,0,0,373.785,329.153Z" transform="translate(-373.785 -309.236)" fill="#263d90"/>
    </g>
    <g id="Group_9179" data-name="Group 9179" transform="translate(401.278 307.985)">
      <path id="Path_4774" data-name="Path 4774" d="M450.334,329.315a21.008,21.008,0,0,0-14.4-20l-.11,39.915A21.009,21.009,0,0,0,450.334,329.315Z" transform="translate(-435.827 -309.318)" fill="#ef363b"/>
    </g>
  </g>
</svg>
