<svg xmlns="http://www.w3.org/2000/svg" width="42" height="42.001" viewBox="0 0 42 42.001">
  <g id="flag-uk" transform="translate(-1009.753 -632.748)">
    <path id="Path_4922" data-name="Path 4922" d="M1051.752,653.935c0,.235-.009.47-.022.7a20.624,20.624,0,0,1-.425,3.421,19.92,19.92,0,0,1-.651,2.411c-.058.168-.115.337-.182.505a18.642,18.642,0,0,1-.988,2.26,20.454,20.454,0,0,1-2.322,3.616,21.042,21.042,0,0,1-9.252,6.642,20.294,20.294,0,0,1-2.743.789,21.18,21.18,0,0,1-8.69.031,20.243,20.243,0,0,1-2.88-.82,20.927,20.927,0,0,1-9.248-6.647c-.319-.39-.616-.793-.9-1.205a20.037,20.037,0,0,1-1.445-2.428,20.787,20.787,0,0,1-1.267-3.093c-.213-.674-.394-1.36-.541-2.06a21.328,21.328,0,0,1-.439-3.789c0-.235-.009-.47-.009-.7a20.91,20.91,0,0,1,.417-3.97,19.936,19.936,0,0,1,.687-2.57c.058-.168.115-.337.182-.5a19.5,19.5,0,0,1,1.015-2.331,20.811,20.811,0,0,1,2.291-3.549A21.067,21.067,0,0,1,1023.6,634a20.829,20.829,0,0,1,2.88-.82,21.173,21.173,0,0,1,4.462-.434,21.4,21.4,0,0,1,4.227.461,21.077,21.077,0,0,1,12,7.44c.315.39.616.793.9,1.21a20.142,20.142,0,0,1,1.444,2.424,20.736,20.736,0,0,1,1.268,3.093,21.449,21.449,0,0,1,.576,2.22A21.214,21.214,0,0,1,1051.752,653.935Z" transform="translate(0)" fill="#f5f5f5"/>
    <g id="Group_9232" data-name="Group 9232" transform="translate(1009.753 632.748)">
      <path id="Path_4923" data-name="Path 4923" d="M1051.752,653.935c0,.235-.009.47-.022.7a20.624,20.624,0,0,1-.425,3.421h-16.139v16.223a21.18,21.18,0,0,1-8.69.031V658.06H1010.2a21.328,21.328,0,0,1-.439-3.789c0-.235-.009-.47-.009-.7a20.91,20.91,0,0,1,.417-3.97h16.307V633.183a21.173,21.173,0,0,1,4.462-.434,21.4,21.4,0,0,1,4.227.461V649.6h16.178A21.214,21.214,0,0,1,1051.752,653.935Z" transform="translate(-1009.753 -632.748)" fill="#cf142b"/>
      <g id="Group_9230" data-name="Group 9230" transform="translate(2.256 28.228)">
        <path id="Path_4924" data-name="Path 4924" d="M1029.371,699.3v11.255a20.926,20.926,0,0,1-9.248-6.647Z" transform="translate(-1017.783 -698.037)" fill="#00247d"/>
        <path id="Path_4925" data-name="Path 4925" d="M1025.691,696.45l-9.4,4.666a20.028,20.028,0,0,1-1.445-2.428l4.515-2.238Z" transform="translate(-1014.843 -696.45)" fill="#cf142b"/>
      </g>
      <path id="Path_4926" data-name="Path 4926" d="M1082.545,703.913a21.041,21.041,0,0,1-9.252,6.642V699.3Z" transform="translate(-1045.137 -669.809)" fill="#00247d"/>
      <path id="Path_4927" data-name="Path 4927" d="M1029.365,635.58v11.255l-9.253-4.613A21.067,21.067,0,0,1,1029.365,635.58Z" transform="translate(-1015.522 -634.325)" fill="#00247d"/>
      <g id="Group_9231" data-name="Group 9231" transform="translate(28.156 1.255)">
        <path id="Path_4928" data-name="Path 4928" d="M1082.545,642.227l-9.252,4.609V635.58A21,21,0,0,1,1082.545,642.227Z" transform="translate(-1073.293 -635.58)" fill="#00247d"/>
        <path id="Path_4929" data-name="Path 4929" d="M1085.82,655.734l-4.519,2.242h-6.328l9.4-4.666A20.142,20.142,0,0,1,1085.82,655.734Z" transform="translate(-1074.229 -645.453)" fill="#cf142b"/>
      </g>
      <path id="Path_4930" data-name="Path 4930" d="M1094.66,696.45a18.661,18.661,0,0,1-.988,2.26l-4.569-2.26Z" transform="translate(-1053.941 -668.222)" fill="#cf142b"/>
      <path id="Path_4931" data-name="Path 4931" d="M1018.414,660.911h-5.761a19.491,19.491,0,0,1,1.015-2.331Z" transform="translate(-1011.368 -647.133)" fill="#cf142b"/>
    </g>
  </g>
</svg>
