<svg xmlns="http://www.w3.org/2000/svg" width="42" height="42" viewBox="0 0 42 42">
  <g id="flag-ireland" transform="translate(-1010.214 -306.924)">
    <g id="Group_9205" data-name="Group 9205" transform="translate(1024.61 306.924)">
      <path id="Path_4814" data-name="Path 4814" d="M1055.8,347.9l.111-39.916a21.088,21.088,0,0,0-13.1-.037l-.111,39.916a21.106,21.106,0,0,0,13.1.037Z" transform="translate(-1042.7 -306.924)" fill="#f5f5f5"/>
    </g>
    <g id="Group_9206" data-name="Group 9206" transform="translate(1010.214 307.948)">
      <path id="Path_4815" data-name="Path 4815" d="M1010.214,329.152a21.009,21.009,0,0,0,14.4,20l.111-39.916A21.009,21.009,0,0,0,1010.214,329.152Z" transform="translate(-1010.214 -309.235)" fill="#129065"/>
    </g>
    <g id="Group_9207" data-name="Group 9207" transform="translate(1037.707 307.985)">
      <path id="Path_4816" data-name="Path 4816" d="M1086.762,329.316a21.007,21.007,0,0,0-14.4-20l-.111,39.916A21.009,21.009,0,0,0,1086.762,329.316Z" transform="translate(-1072.255 -309.318)" fill="#f5853e"/>
    </g>
  </g>
</svg>
