<svg xmlns="http://www.w3.org/2000/svg" xmlns:xlink="http://www.w3.org/1999/xlink" width="42" height="42" viewBox="0 0 42 42">
  <defs>
    <clipPath id="clip-path">
      <rect width="42" height="42" fill="none"/>
    </clipPath>
  </defs>
  <g id="flag-italy" clip-path="url(#clip-path)">
    <g id="flag-italy-2" data-name="flag-italy" transform="translate(-54.171 -467.515)">
      <g id="Group_9211" data-name="Group 9211" transform="translate(68.567 467.515)">
        <path id="Path_4824" data-name="Path 4824" d="M99.754,508.492l.111-39.916a21.083,21.083,0,0,0-13.1-.036l-.111,39.915a21.107,21.107,0,0,0,13.1.037Z" transform="translate(-86.657 -467.515)" fill="#f5f5f5"/>
      </g>
      <g id="Group_9212" data-name="Group 9212" transform="translate(54.171 468.539)">
        <path id="Path_4825" data-name="Path 4825" d="M54.171,489.744a21.009,21.009,0,0,0,14.4,20l.111-39.915A21.007,21.007,0,0,0,54.171,489.744Z" transform="translate(-54.171 -469.827)" fill="#109448"/>
      </g>
      <g id="Group_9213" data-name="Group 9213" transform="translate(81.664 468.576)">
        <path id="Path_4826" data-name="Path 4826" d="M130.719,489.907a21.007,21.007,0,0,0-14.4-20l-.111,39.916A21.01,21.01,0,0,0,130.719,489.907Z" transform="translate(-116.212 -469.909)" fill="#d82532"/>
      </g>
    </g>
  </g>
</svg>
