<svg xmlns="http://www.w3.org/2000/svg" width="42" height="42" viewBox="0 0 42 42">
  <g id="flag-luxembourg" transform="translate(-557.994 -382.207)">
    <g id="Group_5565" data-name="Group 5565" transform="translate(557.994 396.659)">
      <path id="Path_3281" data-name="Path 3281" d="M571.121,500.126H531.207a21.083,21.083,0,0,0,0,13.1h39.914a21.075,21.075,0,0,0,0-13.1Z" transform="translate(-530.164 -500.126)" fill="#f5f5f5"/>
    </g>
    <g id="Group_5566" data-name="Group 5566" transform="translate(559.037 382.207)">
      <path id="Path_3282" data-name="Path 3282" d="M552.474,467.514a21.008,21.008,0,0,0-19.957,14.452h39.914A21.007,21.007,0,0,0,552.474,467.514Z" transform="translate(-532.517 -467.514)" fill="#ee302f"/>
    </g>
    <g id="Group_5567" data-name="Group 5567" transform="translate(559.037 409.756)">
      <path id="Path_3283" data-name="Path 3283" d="M552.474,544.132a21.007,21.007,0,0,0,19.957-14.452H532.517A21.008,21.008,0,0,0,552.474,544.132Z" transform="translate(-532.517 -529.68)" fill="#0fa3d8"/>
    </g>
  </g>
</svg>
