<svg xmlns="http://www.w3.org/2000/svg" width="42" height="42" viewBox="0 0 42 42">
  <g id="flag-sweden" transform="translate(-848.978 -627.684)">
    <g id="Group_8789" data-name="Group 8789" transform="translate(864.4 653.516)">
      <path id="Path_4536" data-name="Path 4536" d="M883.78,701.39a20.91,20.91,0,0,0,4.44.721c.377.02.756.034,1.138.034a21.008,21.008,0,0,0,19.958-14.452q.276-.843.48-1.717H883.78Z" transform="translate(-883.78 -685.977)" fill="#124e92"/>
    </g>
    <g id="Group_8790" data-name="Group 8790" transform="translate(864.4 627.684)">
      <path id="Path_4537" data-name="Path 4537" d="M883.78,646.176H910.2c-.054-.454-.118-.9-.2-1.348a20.945,20.945,0,0,0-20.642-17.144c-.382,0-.761.013-1.138.034a20.879,20.879,0,0,0-4.44.72Z" transform="translate(-883.78 -627.684)" fill="#124e92"/>
    </g>
    <g id="Group_8791" data-name="Group 8791" transform="translate(849.54 653.516)">
      <path id="Path_4538" data-name="Path 4538" d="M850.246,685.977q.2.873.481,1.717a21.014,21.014,0,0,0,7.039,9.994V685.977Z" transform="translate(-850.246 -685.977)" fill="#124e92"/>
    </g>
    <g id="Group_8792" data-name="Group 8792" transform="translate(848.978 628.438)">
      <path id="Path_4539" data-name="Path 4539" d="M890.821,647.124H864.4V629.386q-.774.213-1.524.481a20.972,20.972,0,0,0-5.816,3.221v14.035h-7.925a20.5,20.5,0,0,0,.064,5.533q.132.917.341,1.807h7.52v11.711a20.951,20.951,0,0,0,5.816,3.221q.749.27,1.524.481V654.464h26.016q.208-.89.341-1.807a21.144,21.144,0,0,0,.221-3.025A20.834,20.834,0,0,0,890.821,647.124Z" transform="translate(-848.978 -629.386)" fill="#ecc425"/>
    </g>
    <g id="Group_8793" data-name="Group 8793" transform="translate(849.135 632.141)">
      <path id="Path_4540" data-name="Path 4540" d="M857.257,637.741a20.827,20.827,0,0,0-7.724,12.687c-.083.444-.147.894-.2,1.348h7.925Z" transform="translate(-849.332 -637.741)" fill="#124e92"/>
    </g>
  </g>
</svg>
